{
.appVersion = "116";
DisplayStrings = (
A
);
copyright = "Copyright © 2024 gbgk + The Inter Project Authors";
customParameters = (
{
name = license;
value = "OFL 1.1";
}
);
date = "2023-11-20 00:06:37 +0000";
designer = gbgk;
designerURL = "https://gbgk.me/";
familyName = "Dag Round Text";
featurePrefixes = (
{
automatic = 1;
code = "languagesystem DFLT dflt;\012languagesystem latn dflt;\012languagesystem hebr dflt;\012languagesystem latn ROM;\012languagesystem latn MOL;\012languagesystem latn CAT;\012";
name = Languagesystems;
}
);
features = (
{
automatic = 1;
code = "feature locl;\012feature frac;\012feature ordn;\012feature smcp;\012";
name = aalt;
},
{
automatic = 1;
code = "script latn;\012language ROM;\012sub Scedilla by Scommaaccent;\012sub scedilla by scommaaccent;\012sub tcedilla by tcommaaccent;\012language MOL;\012sub Scedilla by Scommaaccent;\012sub scedilla by scommaaccent;\012sub tcedilla by tcommaaccent;\012language CAT;\012sub  l' periodcentered' l by ldot;\012sub  L' periodcentered' L by Ldot;\012";
name = locl;
},
{
automatic = 1;
code = "lookup FRAC {\012	sub slash by fraction;\012} FRAC;\012lookup UP {\012	sub [zero one two three four five six seven eight nine] by [zero.numr one.numr two.numr three.numr four.numr five.numr six.numr seven.numr eight.numr nine.numr];\012} UP;\012lookup DOWN {\012	sub fraction [zero.numr one.numr two.numr three.numr four.numr five.numr six.numr seven.numr eight.numr nine.numr]' by [zero.dnom one.dnom two.dnom three.dnom four.dnom five.dnom six.dnom seven.dnom eight.dnom nine.dnom];\012	sub [zero.dnom one.dnom two.dnom three.dnom four.dnom five.dnom six.dnom seven.dnom eight.dnom nine.dnom] [zero.numr one.numr two.numr three.numr four.numr five.numr six.numr seven.numr eight.numr nine.numr]' by [zero.dnom one.dnom two.dnom three.dnom four.dnom five.dnom six.dnom seven.dnom eight.dnom nine.dnom];\012} DOWN;\012";
name = frac;
},
{
automatic = 1;

glyphs = (
{
glyphname = A;
lastChange = "2024-07-06 19:21:01 +0000";
layers = (
{
layerId = "67E838D8-D572-4887-B173-0E3F5AAC2F16";
paths = (
{
closed = 1;
nodes = (
"167 0 LINE SMOOTH",
"226 0 OFFCURVE",
"263 27 OFFCURVE",
"282 82 CURVE SMOOTH",
"398 416 LINE",
"1012 416 LINE",
"1132 81 LINE SMOOTH",
"1152 25 OFFCURVE",
"1189 0 OFFCURVE",
"1247 0 CURVE SMOOTH",
"1261 0 LINE SMOOTH",
"1321 0 OFFCURVE",
"1344 45 OFFCURVE",
"1318 116 CURVE SMOOTH",
"843 1409 LINE SMOOTH",
"823 1464 OFFCURVE",
"785 1490 OFFCURVE",
"727 1490 CURVE SMOOTH",
"679 1490 LINE SMOOTH",
"621 1490 OFFCURVE",
"584 1464 OFFCURVE",
"564 1409 CURVE SMOOTH",
"94 116 LINE SMOOTH",
"69 46 OFFCURVE",
"92 0 OFFCURVE",
"153 0 CURVE SMOOTH"
);
},
{
closed = 1;
nodes = (
"456 582 LINE",
"561 884 LINE SMOOTH",
"577 930 OFFCURVE",
"596.667 989.667 OFFCURVE",
"620 1063 CURVE SMOOTH",
"643.333 1136.333 OFFCURVE",
"670.667 1228 OFFCURVE",
"702 1338 CURVE",
"734 1230 OFFCURVE",
"761.333 1139.833 OFFCURVE",
"784 1067.5 CURVE SMOOTH",
"806.667 995.167 OFFCURVE",
"827 934 OFFCURVE",
"845 884 CURVE SMOOTH",
"953 582 LINE"
);
}
);
userData = {
assembly = "NPUSHB[ ]	/* 41 values pushed */\01213 1 4 0 1 76 0 4 0 2 1 4 2 104 0 0 0 103 77 5 3 2 1 1 104 1 78 0 0 9 8 0 7 0 7 17 17 17 6 12 25 \012CALL[ ]	/* CallFunction */";
};
width = 1413;
}
);
leftKerningGroup = A;
note = A;
rightKerningGroup = A;
unicode = 0041;
},
{
glyphname = Astroke;
lastChange = "2024-07-06 19:21:01 +0000";
layers = (
{
layerId = "67E838D8-D572-4887-B173-0E3F5AAC2F16";
paths = (
{
closed = 1;
nodes = (
"1004 1678 OFFCURVE",
"969 1653 OFFCURVE",
"949 1597 CURVE SMOOTH",
"863 1354 LINE",
"838 1422 LINE SMOOTH",
"821 1469 OFFCURVE",
"785 1490 OFFCURVE",
"727 1490 CURVE SMOOTH",
"679 1490 LINE SMOOTH",
"621 1490 OFFCURVE",
"584 1464 OFFCURVE",
"564 1409 CURVE SMOOTH",
"94 116 LINE SMOOTH",
"69 46 OFFCURVE",
"98 0 OFFCURVE",
"167 0 CURVE SMOOTH",
"226 0 OFFCURVE",
"263 27 OFFCURVE",
"282 82 CURVE SMOOTH",
"398 416 LINE",
"529 416 LINE",
"355 -74 LINE SMOOTH",
"330 -145 OFFCURVE",
"347 -190 OFFCURVE",
"397 -190 CURVE SMOOTH",
"453 -190 OFFCURVE",
"489 -165 OFFCURVE",
"509 -109 CURVE SMOOTH",
"695 416 LINE",
"1012 416 LINE",
"1132 81 LINE SMOOTH",
"1152 25 OFFCURVE",
"1189 0 OFFCURVE",
"1247 0 CURVE SMOOTH",
"1261 0 LINE SMOOTH",
"1321 0 OFFCURVE",
"1344 45 OFFCURVE",
"1318 116 CURVE SMOOTH",
"947 1125 LINE",
"1103 1562 LINE SMOOTH",
"1128 1633 OFFCURVE",
"1111 1678 OFFCURVE",
"1061 1678 CURVE SMOOTH"
);
},
{
closed = 1;
nodes = (
"456 582 LINE",
"561 884 LINE SMOOTH",
"577 930 OFFCURVE",
"596.667 989.667 OFFCURVE",
"620 1063 CURVE SMOOTH",
"643.333 1136.333 OFFCURVE",
"670.667 1228 OFFCURVE",
"702 1338 CURVE",
"728 1248.667 OFFCURVE",
"751.667 1170 OFFCURVE",
"773 1102 CURVE",
"588 582 LINE"
);
},
{
closed = 1;
nodes = (
"953 582 LINE",
"754 582 LINE",
"853 860 LINE"
);
}
);
userData = {
assembly = "NPUSHB[ ]	/* 66 values pushed */\01219 17 14 1 4 7 5 1 76 9 1 6 5 6 133 0 2 0 2 134 8 10 2 7 3 1 1 0 7 1 104 0 5 5 103 77 4 1 0 0 104 0 78 16 16 0 0 26 25 16 23 16 23 0 15 0 15 17 17 17 17 17 18 11 12 28 \012CALL[ ]	/* CallFunction */";
};
width = 1413;
}
);
leftKerningGroup = A;
note = uni023A;
rightKerningGroup = A;
unicode = 023A;
},
{
glyphname = AE;
lastChange = "2024-07-06 19:21:01 +0000";
layers = (
{
layerId = "67E838D8-D572-4887-B173-0E3F5AAC2F16";
paths = (
{
closed = 1;
nodes = (
"178 0 LINE SMOOTH",
"235 0 OFFCURVE",
"272 24 OFFCURVE",
"296 75 CURVE SMOOTH",
"455 416 LINE",
"992 416 LINE",
"992 101 LINE SMOOTH",
"992 36 OFFCURVE",
"1028 0 OFFCURVE",
"1093 0 CURVE SMOOTH",
"1800 0 LINE SMOOTH",
"1865 0 OFFCURVE",
"1901 30 OFFCURVE",
"1901 84 CURVE SMOOTH",
"1901 138 OFFCURVE",
"1865 168 OFFCURVE",
"1800 168 CURVE SMOOTH",
"1174 168 LINE",
"1174 662 LINE",
"1743 662 LINE SMOOTH",
"1808 662 OFFCURVE",
"1844 692 OFFCURVE",
"1844 746 CURVE SMOOTH",
"1844 800 OFFCURVE",
"1808 830 OFFCURVE",
"1743 830 CURVE SMOOTH",
"1174 830 LINE",
"1174 1322 LINE",
"1789 1322 LINE SMOOTH",
"1854 1322 OFFCURVE",
"1890 1352 OFFCURVE",
"1890 1406 CURVE SMOOTH",
"1890 1460 OFFCURVE",
"1854 1490 OFFCURVE",
"1789 1490 CURVE SMOOTH",
"851 1490 LINE SMOOTH",
"794 1490 OFFCURVE",
"756 1467 OFFCURVE",
"732 1416 CURVE SMOOTH",
"109 119 LINE SMOOTH",
"75 48 OFFCURVE",
"96 0 OFFCURVE",
"157 0 CURVE SMOOTH"
);
},
{
closed = 1;
nodes = (
"529 574 LINE",
"899 1367 LINE",
"992 1367 LINE",
"992 574 LINE"
);
}
);
userData = {
assembly = "NPUSHB[ ]	/* 66 values pushed */\0120 9 0 1 1 9 114 0 2 0 3 8 2 3 103 0 8 0 6 4 8 6 103 0 1 1 0 96 0 0 0 103 77 0 4 4 5 95 10 7 2 5 5 104 5 78 0 0 19 18 17 16 0 15 0 15 17 17 17 17 17 17 17 11 12 29 \012CALL[ ]	/* CallFunction */";
};
width = 2035;
}
);
leftKerningGroup = A;
note = AE;
rightKerningGroup = AE;
unicode = 00C6;
},
{
glyphname = B;
lastChange = "2024-07-06 19:21:01 +0000";
layers = (
{
layerId = "67E838D8-D572-4887-B173-0E3F5AAC2F16";
paths = (
{
closed = 1;
nodes = (
"180 101 LINE SMOOTH",
"180 36 OFFCURVE",
"216 0 OFFCURVE",
"281 0 CURVE SMOOTH",
"725 0 LINE SMOOTH",
"842.333 0 OFFCURVE",
"937.667 17.5 OFFCURVE",
"1011 52.5 CURVE SMOOTH",
"1084.333 87.5 OFFCURVE",
"1138.167 135 OFFCURVE",
"1172.5 195 CURVE SMOOTH",
"1206.833 255 OFFCURVE",
"1224 322.333 OFFCURVE",
"1224 397 CURVE SMOOTH",
"1224 475 OFFCURVE",
"1208.5 541 OFFCURVE",
"1177.5 595 CURVE SMOOTH",
"1146.5 649 OFFCURVE",
"1107.833 690.667 OFFCURVE",
"1061.5 720 CURVE SMOOTH",
"1015.167 749.333 OFFCURVE",
"968.667 765.333 OFFCURVE",
"922 768 CURVE",
"922 782 LINE",
"965.333 794 OFFCURVE",
"1005.5 812.333 OFFCURVE",
"1042.5 837 CURVE SMOOTH",
"1079.5 861.667 OFFCURVE",
"1109.333 894.833 OFFCURVE",
"1132 936.5 CURVE SMOOTH",
"1154.667 978.167 OFFCURVE",
"1166 1031 OFFCURVE",
"1166 1095 CURVE SMOOTH",
"1166 1167.667 OFFCURVE",
"1149.5 1233.833 OFFCURVE",
"1116.5 1293.5 CURVE SMOOTH",
"1083.5 1353.167 OFFCURVE",
"1033.167 1400.833 OFFCURVE",
"965.5 1436.5 CURVE SMOOTH",
"897.833 1472.167 OFFCURVE",
"812 1490 OFFCURVE",
"708 1490 CURVE SMOOTH",
"281 1490 LINE SMOOTH",
"216 1490 OFFCURVE",
"180 1454 OFFCURVE",
"180 1389 CURVE SMOOTH"
);
},
{
closed = 1;
nodes = (
"370 168 LINE",
"370 676 LINE",
"730 676 LINE SMOOTH",
"794 676 OFFCURVE",
"849.167 663.333 OFFCURVE",
"895.5 638 CURVE SMOOTH",
"941.833 612.667 OFFCURVE",
"977.667 579 OFFCURVE",
"1003 537 CURVE SMOOTH",
"1028.333 495 OFFCURVE",
"1041 449 OFFCURVE",
"1041 399 CURVE SMOOTH",
"1041 334.333 OFFCURVE",
"1016.5 279.667 OFFCURVE",
"967.5 235 CURVE SMOOTH",
"918.5 190.333 OFFCURVE",
"836 168 OFFCURVE",
"720 168 CURVE SMOOTH"
);
},
{
closed = 1;
nodes = (
"370 836 LINE",
"370 1322 LINE",
"704 1322 LINE SMOOTH",
"800.667 1322 OFFCURVE",
"871.5 1299.667 OFFCURVE",
"916.5 1255 CURVE SMOOTH",
"961.5 1210.333 OFFCURVE",
"984 1155.667 OFFCURVE",
"984 1091 CURVE SMOOTH",
"984 1014.333 OFFCURVE",
"956.333 952.667 OFFCURVE",
"901 906 CURVE SMOOTH",
"845.667 859.333 OFFCURVE",
"778 836 OFFCURVE",
"698 836 CURVE SMOOTH"
);
}
);
userData = {
assembly = "NPUSHB[ ]	/* 54 values pushed */\01210 1 3 4 1 76 0 4 0 3 2 4 3 103 0 5 5 0 95 0 0 0 103 77 0 2 2 1 95 6 1 1 1 104 1 78 0 0 38 36 32 30 29 27 22 20 0 19 0 18 33 7 12 23 \012CALL[ ]	/* CallFunction */";
};
width = 1340;
}
);
leftKerningGroup = B;
note = B;
rightKerningGroup = B;
unicode = 0042;
},
{
glyphname = Bhook;
lastChange = "2024-07-06 19:21:01 +0000";
layers = (
{
layerId = "67E838D8-D572-4887-B173-0E3F5AAC2F16";
paths = (
{
closed = 1;
nodes = (
"60 1140 OFFCURVE",
"92 1114 OFFCURVE",
"149 1114 CURVE SMOOTH",
"206 1114 OFFCURVE",
"238 1140 OFFCURVE",
"238 1186 CURVE SMOOTH",
"238 1277.333 OFFCURVE",
"281.667 1323 OFFCURVE",
"369 1323 CURVE SMOOTH",
"460 1323 LINE",
"460 101 LINE SMOOTH",
"460 36 OFFCURVE",
"496 0 OFFCURVE",
"561 0 CURVE SMOOTH",
"1005 0 LINE SMOOTH",
"1122.333 0 OFFCURVE",
"1217.667 17.5 OFFCURVE",
"1291 52.5 CURVE SMOOTH",
"1364.333 87.5 OFFCURVE",
"1418.167 135 OFFCURVE",
"1452.5 195 CURVE SMOOTH",
"1486.833 255 OFFCURVE",
"1504 322.333 OFFCURVE",
"1504 397 CURVE SMOOTH",
"1504 475 OFFCURVE",
"1488.5 541 OFFCURVE",
"1457.5 595 CURVE SMOOTH",
"1426.5 649 OFFCURVE",
"1387.833 690.667 OFFCURVE",
"1341.5 720 CURVE SMOOTH",
"1295.167 749.333 OFFCURVE",
"1248.667 765.333 OFFCURVE",
"1202 768 CURVE",
"1202 782 LINE",
"1245.333 794 OFFCURVE",
"1285.5 812.333 OFFCURVE",
"1322.5 837 CURVE SMOOTH",
"1359.5 861.667 OFFCURVE",
"1389.333 894.833 OFFCURVE",
"1412 936.5 CURVE SMOOTH",
"1434.667 978.167 OFFCURVE",
"1446 1031 OFFCURVE",
"1446 1095 CURVE SMOOTH",
"1446 1167.667 OFFCURVE",
"1429.5 1233.833 OFFCURVE",
"1396.5 1293.5 CURVE SMOOTH",
"1363.5 1353.167 OFFCURVE",
"1313.167 1400.833 OFFCURVE",
"1245.5 1436.5 CURVE SMOOTH",
"1177.833 1472.167 OFFCURVE",
"1092 1490 OFFCURVE",
"988 1490 CURVE SMOOTH",
"368 1490 LINE SMOOTH",
"162.667 1490 OFFCURVE",
"60 1389.333 OFFCURVE",
"60 1188 CURVE SMOOTH"
);
},
{
closed = 1;
nodes = (
"650 168 LINE",
"650 676 LINE",
"1010 676 LINE SMOOTH",
"1074 676 OFFCURVE",
"1129.167 663.333 OFFCURVE",
"1175.5 638 CURVE SMOOTH",
"1221.833 612.667 OFFCURVE",
"1257.667 579 OFFCURVE",
"1283 537 CURVE SMOOTH",
"1308.333 495 OFFCURVE",
"1321 449 OFFCURVE",
"1321 399 CURVE SMOOTH",
"1321 334.333 OFFCURVE",
"1296.5 279.667 OFFCURVE",
"1247.5 235 CURVE SMOOTH",
"1198.5 190.333 OFFCURVE",
"1116 168 OFFCURVE",
"1000 168 CURVE SMOOTH"
);
},
{
closed = 1;
nodes = (
"650 836 LINE",
"650 1322 LINE",
"984 1322 LINE SMOOTH",
"1080.667 1322 OFFCURVE",
"1151.5 1299.667 OFFCURVE",
"1196.5 1255 CURVE SMOOTH",
"1241.5 1210.333 OFFCURVE",
"1264 1155.667 OFFCURVE",
"1264 1091 CURVE SMOOTH",
"1264 1014.333 OFFCURVE",
"1236.333 952.667 OFFCURVE",
"1181 906 CURVE SMOOTH",
"1125.667 859.333 OFFCURVE",
"1058 836 OFFCURVE",
"978 836 CURVE SMOOTH"
);
}
);
userData = {
assembly = "PUSHB[ ]	/* 6 values pushed */\01212 1 5 6 1 76 \012MPPEM[ ]	/* MeasurePixelPerEm */\012PUSHB[ ]	/* 1 value pushed */\01212 \012LT[ ]	/* LessThan */\012IF[ ]	/* If */\012NPUSHB[ ]	/* 38 values pushed */\0128 1 3 2 6 2 3 114 0 6 0 5 4 6 5 103 7 1 2 2 0 95 0 0 0 103 77 0 4 4 1 95 0 1 1 104 1 78 \012ELSE[ ]	/* Else */\012NPUSHB[ ]	/* 39 values pushed */\0128 1 3 2 6 2 3 6 128 0 6 0 5 4 6 5 103 7 1 2 2 0 95 0 0 0 103 77 0 4 4 1 95 0 1 1 104 1 78 \012EIF[ ]	/* EndIf */\012NPUSHB[ ]	/* 20 values pushed */\0120 0 46 44 40 38 37 35 30 28 0 27 0 27 33 47 50 9 12 25 \012CALL[ ]	/* CallFunction */";
};
width = 1620;
}
);
leftKerningGroup = B;
note = uni0181;
rightKerningGroup = B;
unicode = 0181;
},
{
glyphname = Btopbar;
lastChange = "2024-07-06 19:21:01 +0000";
layers = (
{
layerId = "67E838D8-D572-4887-B173-0E3F5AAC2F16";
paths = (
{
closed = 1;
nodes = (
"180 101 LINE SMOOTH",
"180 36 OFFCURVE",
"216 0 OFFCURVE",
"281 0 CURVE SMOOTH",
"738 0 LINE SMOOTH",
"899.333 0 OFFCURVE",
"1023.333 41.167 OFFCURVE",
"1110 123.5 CURVE SMOOTH",
"1196.667 205.833 OFFCURVE",
"1240 312.333 OFFCURVE",
"1240 443 CURVE SMOOTH",
"1240 573 OFFCURVE",
"1196.667 676.667 OFFCURVE",
"1110 754 CURVE SMOOTH",
"1023.333 831.333 OFFCURVE",
"899.333 870 OFFCURVE",
"738 870 CURVE SMOOTH",
"370 870 LINE",
"370 1323 LINE",
"986 1323 LINE SMOOTH",
"1051 1323 OFFCURVE",
"1087 1353 OFFCURVE",
"1087 1407 CURVE SMOOTH",
"1087 1461 OFFCURVE",
"1051 1490 OFFCURVE",
"986 1490 CURVE SMOOTH",
"281 1490 LINE SMOOTH",
"216 1490 OFFCURVE",
"180 1454 OFFCURVE",
"180 1389 CURVE SMOOTH"
);
},
{
closed = 1;
nodes = (
"370 165 LINE",
"370 703 LINE",
"738 703 LINE SMOOTH",
"839.333 703 OFFCURVE",
"917 677.667 OFFCURVE",
"971 627 CURVE SMOOTH",
"1025 576.333 OFFCURVE",
"1052 515.667 OFFCURVE",
"1052 445 CURVE SMOOTH",
"1052 397.667 OFFCURVE",
"1039.833 352.5 OFFCURVE",
"1015.5 309.5 CURVE SMOOTH",
"991.167 266.5 OFFCURVE",
"955.667 231.667 OFFCURVE",
"909 205 CURVE SMOOTH",
"862.333 178.333 OFFCURVE",
"805.333 165 OFFCURVE",
"738 165 CURVE SMOOTH"
);
}
);
userData = {
assembly = "NPUSHB[ ]	/* 46 values pushed */\0120 2 0 5 4 2 5 103 0 1 1 0 95 0 0 0 103 77 0 4 4 3 95 6 1 3 3 104 3 78 0 0 22 20 15 13 0 12 0 11 33 17 17 7 12 25 \012CALL[ ]	/* CallFunction */";
};
width = 1344;
}
);
note = uni0182;
unicode = 0182;
},
{
glyphname = C;
lastChange = "2024-07-06 19:21:01 +0000";
layers = (
{
layerId = "67E838D8-D572-4887-B173-0E3F5AAC2F16";
paths = (
{
closed = 1;
nodes = (
"885 -20 OFFCURVE",
"978.167 -0.333 OFFCURVE",
"1062.5 39 CURVE SMOOTH",
"1146.833 78.333 OFFCURVE",
"1217.167 134.667 OFFCURVE",
"1273.5 208 CURVE SMOOTH",
"1308 252 OFFCURVE",
"1334 302 OFFCURVE",
"1354 356 CURVE SMOOTH",
"1379 425 OFFCURVE",
"1345 469 OFFCURVE",
"1282 469 CURVE SMOOTH",
"1223 469 OFFCURVE",
"1192 441 OFFCURVE",
"1167 385 CURVE SMOOTH",
"1153 353 OFFCURVE",
"1135 324 OFFCURVE",
"1112.5 298 CURVE SMOOTH",
"1072.167 251.333 OFFCURVE",
"1023.5 216 OFFCURVE",
"966.5 192 CURVE SMOOTH",
"909.5 168 OFFCURVE",
"848.333 156 OFFCURVE",
"783 156 CURVE SMOOTH",
"694.333 156 OFFCURVE",
"614 178.5 OFFCURVE",
"542 223.5 CURVE SMOOTH",
"470 268.5 OFFCURVE",
"412.833 334.833 OFFCURVE",
"370.5 422.5 CURVE SMOOTH",
"328.167 510.167 OFFCURVE",
"307 617.333 OFFCURVE",
"307 744 CURVE SMOOTH",
"307 871.333 OFFCURVE",
"328 978.833 OFFCURVE",
"370 1066.5 CURVE SMOOTH",
"412 1154.167 OFFCURVE",
"469 1220.667 OFFCURVE",
"541 1266 CURVE SMOOTH",
"613 1311.333 OFFCURVE",
"693.667 1334 OFFCURVE",
"783 1334 CURVE SMOOTH",
"847.667 1334 OFFCURVE",
"908.667 1322.167 OFFCURVE",
"966 1298.5 CURVE SMOOTH",
"1023.333 1274.833 OFFCURVE",
"1072.167 1239.667 OFFCURVE",
"1112.5 1193 CURVE SMOOTH",
"1135 1167 OFFCURVE",
"1153 1138 OFFCURVE",
"1168 1105 CURVE SMOOTH",
"1192 1049 OFFCURVE",
"1223 1021 OFFCURVE",
"1282 1021 CURVE SMOOTH",
"1289 1021 LINE SMOOTH",
"1347 1021 OFFCURVE",
"1379 1065 OFFCURVE",
"1355 1134 CURVE SMOOTH",
"1335 1190 OFFCURVE",
"1307 1240 OFFCURVE",
"1272.5 1284 CURVE SMOOTH",
"1215.5 1356.667 OFFCURVE",
"1144.833 1412.5 OFFCURVE",
"1060.5 1451.5 CURVE SMOOTH",
"976.167 1490.5 OFFCURVE",
"883.667 1510 OFFCURVE",
"783 1510 CURVE SMOOTH",
"655.667 1510 OFFCURVE",
"542.167 1479 OFFCURVE",
"442.5 1417 CURVE SMOOTH",
"342.833 1355 OFFCURVE",
"264.5 1266.833 OFFCURVE",
"207.5 1152.5 CURVE SMOOTH",
"150.5 1038.167 OFFCURVE",
"122 902 OFFCURVE",
"122 744 CURVE SMOOTH",
"122 586.667 OFFCURVE",
"150.5 450.833 OFFCURVE",
"207.5 336.5 CURVE SMOOTH",
"264.5 222.167 OFFCURVE",
"342.833 134.167 OFFCURVE",
"442.5 72.5 CURVE SMOOTH",
"542.167 10.833 OFFCURVE",
"655.667 -20 OFFCURVE",
"783 -20 CURVE SMOOTH"
);
}
);
userData = {
assembly = "NPUSHB[ ]	/* 56 values pushed */\0120 2 3 5 3 2 5 128 0 5 4 3 5 4 126 0 3 3 1 97 0 1 1 109 77 0 4 4 0 97 6 1 0 0 110 0 78 1 0 30 29 26 24 18 16 13 12 9 7 0 33 1 33 7 12 22 \012CALL[ ]	/* CallFunction */";
};
width = 1496;
}
);
leftKerningGroup = C;
note = C;
rightKerningGroup = C;
unicode = 0043;
},
{
glyphname = Chook;
lastChange = "2024-07-06 19:21:01 +0000";
layers = (
{
layerId = "67E838D8-D572-4887-B173-0E3F5AAC2F16";
paths = (
{
closed = 1;
nodes = (
"885 -20 OFFCURVE",
"978.167 -0.333 OFFCURVE",
"1062.5 39 CURVE SMOOTH",
"1146.833 78.333 OFFCURVE",
"1217.167 134.667 OFFCURVE",
"1273.5 208 CURVE SMOOTH",
"1308 252 OFFCURVE",
"1334 302 OFFCURVE",
"1354 356 CURVE SMOOTH",
"1379 425 OFFCURVE",
"1345 469 OFFCURVE",
"1282 469 CURVE SMOOTH",
"1223 469 OFFCURVE",
"1192 441 OFFCURVE",
"1167 385 CURVE SMOOTH",
"1153 353 OFFCURVE",
"1135 324 OFFCURVE",
"1112.5 298 CURVE SMOOTH",
"1072.167 251.333 OFFCURVE",
"1023.5 216 OFFCURVE",
"966.5 192 CURVE SMOOTH",
"909.5 168 OFFCURVE",
"848.333 156 OFFCURVE",
"783 156 CURVE SMOOTH",
"694.333 156 OFFCURVE",
"614 178.5 OFFCURVE",
"542 223.5 CURVE SMOOTH",
"470 268.5 OFFCURVE",
"412.833 334.833 OFFCURVE",
"370.5 422.5 CURVE SMOOTH",
"328.167 510.167 OFFCURVE",
"307 617.333 OFFCURVE",
"307 744 CURVE SMOOTH",
"307 871.333 OFFCURVE",
"328 978.833 OFFCURVE",
"370 1066.5 CURVE SMOOTH",
"412 1154.167 OFFCURVE",
"469 1220.667 OFFCURVE",
"541 1266 CURVE SMOOTH",
"613 1311.333 OFFCURVE",
"693.667 1334 OFFCURVE",
"783 1334 CURVE SMOOTH",
"847.667 1334 OFFCURVE",
"908.667 1322.167 OFFCURVE",
"966 1298.5 CURVE SMOOTH",
"1023.333 1274.833 OFFCURVE",
"1072.167 1239.667 OFFCURVE",
"1112.5 1193 CURVE SMOOTH",
"1135 1167 OFFCURVE",
"1153 1138 OFFCURVE",
"1168 1105 CURVE SMOOTH",
"1192 1049 OFFCURVE",
"1223 1021 OFFCURVE",
"1282 1021 CURVE SMOOTH",
"1289 1021 LINE SMOOTH",
"1350 1021 OFFCURVE",
"1384 1057 OFFCURVE",
"1384 1122 CURVE SMOOTH",
"1384 1430 LINE SMOOTH",
"1384 1497.333 OFFCURVE",
"1438 1531 OFFCURVE",
"1546 1531 CURVE SMOOTH",
"1554.667 1531 OFFCURVE",
"1564 1530.667 OFFCURVE",
"1574 1530 CURVE SMOOTH",
"1594 1528 OFFCURVE",
"1605 1554 OFFCURVE",
"1605 1602 CURVE SMOOTH",
"1605 1651 OFFCURVE",
"1573 1684 OFFCURVE",
"1510 1685 CURVE SMOOTH",
"1507 1685 OFFCURVE",
"1503 1685 OFFCURVE",
"1500 1685 CURVE SMOOTH",
"1405.333 1685 OFFCURVE",
"1333.333 1663.167 OFFCURVE",
"1284 1619.5 CURVE SMOOTH",
"1234.667 1575.833 OFFCURVE",
"1210 1512.667 OFFCURVE",
"1210 1430 CURVE SMOOTH",
"1210 1352 LINE",
"1096.667 1457.333 OFFCURVE",
"954.333 1510 OFFCURVE",
"783 1510 CURVE SMOOTH",
"655.667 1510 OFFCURVE",
"542.167 1479 OFFCURVE",
"442.5 1417 CURVE SMOOTH",
"342.833 1355 OFFCURVE",
"264.5 1266.833 OFFCURVE",
"207.5 1152.5 CURVE SMOOTH",
"150.5 1038.167 OFFCURVE",
"122 902 OFFCURVE",
"122 744 CURVE SMOOTH",
"122 586.667 OFFCURVE",
"150.5 450.833 OFFCURVE",
"207.5 336.5 CURVE SMOOTH",
"264.5 222.167 OFFCURVE",
"342.833 134.167 OFFCURVE",
"442.5 72.5 CURVE SMOOTH",
"542.167 10.833 OFFCURVE",
"655.667 -20 OFFCURVE",
"783 -20 CURVE SMOOTH"
);
}
);
userData = {
assembly = "NPUSHB[ ]	/* 82 values pushed */\01216 1 3 2 17 1 1 3 10 1 5 1 3 76 0 4 5 7 5 4 7 128 0 7 6 5 7 6 126 0 2 0 3 1 2 3 105 0 5 5 1 97 0 1 1 109 77 0 6 6 0 97 8 1 0 0 110 0 78 1 0 41 40 37 35 29 27 24 23 21 19 15 13 9 7 0 44 1 44 9 12 22 \012CALL[ ]	/* CallFunction */";
};
width = 1496;
}
);
leftKerningGroup = C;
note = uni0187;
rightKerningGroup = C;
unicode = 0187;
},
{
glyphname = Cstroke;
lastChange = "2024-07-06 19:21:01 +0000";
layers = (
{
layerId = "67E838D8-D572-4887-B173-0E3F5AAC2F16";
paths = (
{
closed = 1;
nodes = (
"477 -190 OFFCURVE",
"514 -163 OFFCURVE",
"533 -108 CURVE SMOOTH",
"575 12 LINE",
"640.333 -9.333 OFFCURVE",
"709.667 -20 OFFCURVE",
"783 -20 CURVE SMOOTH",
"885 -20 OFFCURVE",
"978.167 -0.333 OFFCURVE",
"1062.5 39 CURVE SMOOTH",
"1146.833 78.333 OFFCURVE",
"1217.167 134.667 OFFCURVE",
"1273.5 208 CURVE SMOOTH",
"1308 252 OFFCURVE",
"1334 302 OFFCURVE",
"1354 356 CURVE SMOOTH",
"1379 425 OFFCURVE",
"1345 469 OFFCURVE",
"1282 469 CURVE SMOOTH",
"1223 469 OFFCURVE",
"1192 441 OFFCURVE",
"1167 385 CURVE SMOOTH",
"1153 353 OFFCURVE",
"1135 324 OFFCURVE",
"1112.5 298 CURVE SMOOTH",
"1072.167 251.333 OFFCURVE",
"1023.5 216 OFFCURVE",
"966.5 192 CURVE SMOOTH",
"909.5 168 OFFCURVE",
"848.333 156 OFFCURVE",
"783 156 CURVE SMOOTH",
"731 156 OFFCURVE",
"681.667 163.667 OFFCURVE",
"635 179 CURVE",
"1021 1270 LINE",
"1063.667 1244 OFFCURVE",
"1100.333 1210.167 OFFCURVE",
"1131 1168.5 CURVE SMOOTH",
"1147 1147 OFFCURVE",
"1160 1124 OFFCURVE",
"1171 1098 CURVE SMOOTH",
"1192 1047 OFFCURVE",
"1223 1021 OFFCURVE",
"1282 1021 CURVE SMOOTH",
"1289 1021 LINE SMOOTH",
"1347 1021 OFFCURVE",
"1379 1065 OFFCURVE",
"1355 1134 CURVE SMOOTH",
"1336 1186 OFFCURVE",
"1311 1233 OFFCURVE",
"1279 1275 CURVE SMOOTH",
"1225.667 1346.333 OFFCURVE",
"1160 1401.667 OFFCURVE",
"1082 1441 CURVE",
"1125 1562 LINE SMOOTH",
"1150 1633 OFFCURVE",
"1133 1678 OFFCURVE",
"1083 1678 CURVE SMOOTH",
"1027 1678 OFFCURVE",
"990 1652 OFFCURVE",
"971 1597 CURVE SMOOTH",
"935 1494 LINE",
"885.667 1504.667 OFFCURVE",
"835 1510 OFFCURVE",
"783 1510 CURVE SMOOTH",
"655.667 1510 OFFCURVE",
"542.167 1479 OFFCURVE",
"442.5 1417 CURVE SMOOTH",
"342.833 1355 OFFCURVE",
"264.5 1266.833 OFFCURVE",
"207.5 1152.5 CURVE SMOOTH",
"150.5 1038.167 OFFCURVE",
"122 902 OFFCURVE",
"122 744 CURVE SMOOTH",
"122 588.667 OFFCURVE",
"150 454.333 OFFCURVE",
"206 341 CURVE SMOOTH",
"262 227.667 OFFCURVE",
"337.667 140.333 OFFCURVE",
"433 79 CURVE",
"379 -74 LINE SMOOTH",
"354 -145 OFFCURVE",
"371 -190 OFFCURVE",
"421 -190 CURVE SMOOTH"
);
},
{
closed = 1;
nodes = (
"438 304.667 OFFCURVE",
"392 369.833 OFFCURVE",
"358 451.5 CURVE SMOOTH",
"324 533.167 OFFCURVE",
"307 630.667 OFFCURVE",
"307 744 CURVE SMOOTH",
"307 871.333 OFFCURVE",
"328 978.833 OFFCURVE",
"370 1066.5 CURVE SMOOTH",
"412 1154.167 OFFCURVE",
"469 1220.667 OFFCURVE",
"541 1266 CURVE SMOOTH",
"613 1311.333 OFFCURVE",
"693.667 1334 OFFCURVE",
"783 1334 CURVE SMOOTH",
"814.333 1334 OFFCURVE",
"845 1331.333 OFFCURVE",
"875 1326 CURVE",
"496 256 LINE"
);
}
);
userData = {
assembly = "NPUSHB[ ]	/* 85 values pushed */\01213 10 2 7 0 37 20 2 2 7 21 1 3 4 34 1 2 5 3 4 76 0 1 0 1 133 0 2 7 4 7 2 4 128 0 4 3 7 4 3 126 8 1 6 5 6 134 0 7 7 0 97 0 0 0 109 77 0 3 3 5 97 0 5 5 110 5 78 0 0 40 38 0 35 0 35 35 19 37 20 18 39 9 12 28 \012CALL[ ]	/* CallFunction */";
};
width = 1496;
}
);
leftKerningGroup = C;
note = uni023B;
rightKerningGroup = C;
unicode = 023B;
},
{
glyphname = D;
lastChange = "2024-07-06 19:21:01 +0000";
layers = (
{
layerId = "67E838D8-D572-4887-B173-0E3F5AAC2F16";
paths = (
{
closed = 1;
nodes = (
"796.333 0 OFFCURVE",
"925 30 OFFCURVE",
"1031 90 CURVE SMOOTH",
"1137 150 OFFCURVE",
"1217.667 235.833 OFFCURVE",
"1273 347.5 CURVE SMOOTH",
"1328.333 459.167 OFFCURVE",
"1356 592.667 OFFCURVE",
"1356 748 CURVE SMOOTH",
"1356 902 OFFCURVE",
"1328.5 1034.5 OFFCURVE",
"1273.5 1145.5 CURVE SMOOTH",
"1218.5 1256.5 OFFCURVE",
"1139.5 1341.667 OFFCURVE",
"1036.5 1401 CURVE SMOOTH",
"933.5 1460.333 OFFCURVE",
"809.333 1490 OFFCURVE",
"664 1490 CURVE SMOOTH",
"281 1490 LINE SMOOTH",
"216 1490 OFFCURVE",
"180 1454 OFFCURVE",
"180 1389 CURVE SMOOTH",
"180 101 LINE SMOOTH",
"180 36 OFFCURVE",
"216 0 OFFCURVE",
"281 0 CURVE SMOOTH",
"645 0 LINE SMOOTH"
);
},
{
closed = 1;
nodes = (
"370 168 LINE",
"370 1322 LINE",
"651 1322 LINE SMOOTH",
"823.667 1322 OFFCURVE",
"953.667 1271.167 OFFCURVE",
"1041 1169.5 CURVE SMOOTH",
"1128.333 1067.833 OFFCURVE",
"1172 927.333 OFFCURVE",
"1172 748 CURVE SMOOTH",
"1172 567.333 OFFCURVE",
"1127.5 425.5 OFFCURVE",
"1038.5 322.5 CURVE SMOOTH",
"949.5 219.5 OFFCURVE",
"814.333 168 OFFCURVE",
"633 168 CURVE SMOOTH"
);
}
);
userData = {
assembly = "NPUSHB[ ]	/* 37 values pushed */\0120 3 3 1 95 0 1 1 103 77 0 2 2 0 95 4 1 0 0 104 0 78 1 0 19 17 13 11 4 2 0 10 1 10 5 12 22 \012CALL[ ]	/* CallFunction */";
};
width = 1478;
}
);
leftKerningGroup = B;
note = D;
rightKerningGroup = Oopen;
unicode = 0044;
},
{
glyphname = Dhook;
lastChange = "2024-07-06 19:21:01 +0000";
layers = (
{
layerId = "67E838D8-D572-4887-B173-0E3F5AAC2F16";
paths = (
{
closed = 1;
nodes = (
"60 1140 OFFCURVE",
"92 1114 OFFCURVE",
"149 1114 CURVE SMOOTH",
"206 1114 OFFCURVE",
"238 1140 OFFCURVE",
"238 1186 CURVE SMOOTH",
"238 1277.333 OFFCURVE",
"281.667 1323 OFFCURVE",
"369 1323 CURVE SMOOTH",
"460 1323 LINE",
"460 101 LINE SMOOTH",
"460 36 OFFCURVE",
"496 0 OFFCURVE",
"561 0 CURVE SMOOTH",
"925 0 LINE SMOOTH",
"1076.333 0 OFFCURVE",
"1205 30 OFFCURVE",
"1311 90 CURVE SMOOTH",
"1417 150 OFFCURVE",
"1497.667 235.833 OFFCURVE",
"1553 347.5 CURVE SMOOTH",
"1608.333 459.167 OFFCURVE",
"1636 592.667 OFFCURVE",
"1636 748 CURVE SMOOTH",
"1636 902 OFFCURVE",
"1608.5 1034.5 OFFCURVE",
"1553.5 1145.5 CURVE SMOOTH",
"1498.5 1256.5 OFFCURVE",
"1419.5 1341.667 OFFCURVE",
"1316.5 1401 CURVE SMOOTH",
"1213.5 1460.333 OFFCURVE",
"1089.333 1490 OFFCURVE",
"944 1490 CURVE SMOOTH",
"368 1490 LINE SMOOTH",
"162.667 1490 OFFCURVE",
"60 1389.333 OFFCURVE",
"60 1188 CURVE SMOOTH"
);
},
{
closed = 1;
nodes = (
"650 168 LINE",
"650 1322 LINE",
"931 1322 LINE SMOOTH",
"1103.667 1322 OFFCURVE",
"1233.667 1271.167 OFFCURVE",
"1321 1169.5 CURVE SMOOTH",
"1408.333 1067.833 OFFCURVE",
"1452 927.333 OFFCURVE",
"1452 748 CURVE SMOOTH",
"1452 567.333 OFFCURVE",
"1407.5 425.5 OFFCURVE",
"1318.5 322.5 CURVE SMOOTH",
"1229.5 219.5 OFFCURVE",
"1094.333 168 OFFCURVE",
"913 168 CURVE SMOOTH"
);
}
);
userData = {
assembly = "MPPEM[ ]	/* MeasurePixelPerEm */\012PUSHB[ ]	/* 1 value pushed */\01212 \012LT[ ]	/* LessThan */\012IF[ ]	/* If */\012NPUSHB[ ]	/* 30 values pushed */\0126 1 3 2 4 2 3 114 5 1 2 2 0 95 0 0 0 103 77 0 4 4 1 95 0 1 1 104 1 78 \012ELSE[ ]	/* Else */\012NPUSHB[ ]	/* 31 values pushed */\0126 1 3 2 4 2 3 4 128 5 1 2 2 0 95 0 0 0 103 77 0 4 4 1 95 0 1 1 104 1 78 \012EIF[ ]	/* EndIf */\012NPUSHB[ ]	/* 16 values pushed */\0120 0 27 25 21 19 0 18 0 18 33 38 50 7 12 25 \012CALL[ ]	/* CallFunction */";
};
width = 1758;
}
);
leftKerningGroup = B;
note = uni018A;
rightKerningGroup = Oopen;
unicode = 018A;
},
{
glyphname = Dtopbar;
lastChange = "2024-07-06 19:21:01 +0000";
layers = (
{
layerId = "67E838D8-D572-4887-B173-0E3F5AAC2F16";
paths = (
{
closed = 1;
nodes = (
"1077 0 LINE SMOOTH",
"1142 0 OFFCURVE",
"1178 36 OFFCURVE",
"1178 101 CURVE SMOOTH",
"1178 1359 LINE SMOOTH",
"1178 1424 OFFCURVE",
"1142 1460 OFFCURVE",
"1077 1460 CURVE SMOOTH",
"376 1460 LINE SMOOTH",
"311 1460 OFFCURVE",
"275 1429 OFFCURVE",
"275 1372 CURVE SMOOTH",
"275 1315 OFFCURVE",
"311 1283 OFFCURVE",
"376 1283 CURVE SMOOTH",
"964 1283 LINE",
"964 875 LINE",
"622 875 LINE SMOOTH",
"461.333 875 OFFCURVE",
"337.5 835.333 OFFCURVE",
"250.5 756 CURVE SMOOTH",
"163.5 676.667 OFFCURVE",
"120 572.333 OFFCURVE",
"120 443 CURVE SMOOTH",
"120 312.333 OFFCURVE",
"163.5 205.833 OFFCURVE",
"250.5 123.5 CURVE SMOOTH",
"337.5 41.167 OFFCURVE",
"461.333 0 OFFCURVE",
"622 0 CURVE SMOOTH"
);
},
{
closed = 1;
nodes = (
"964 173 LINE",
"622 173 LINE SMOOTH",
"554 173 OFFCURVE",
"499 185.667 OFFCURVE",
"457 211 CURVE SMOOTH",
"415 236.333 OFFCURVE",
"384.333 269.833 OFFCURVE",
"365 311.5 CURVE SMOOTH",
"345.667 353.167 OFFCURVE",
"336 397.667 OFFCURVE",
"336 445 CURVE SMOOTH",
"336 515.667 OFFCURVE",
"358.167 576 OFFCURVE",
"402.5 626 CURVE SMOOTH",
"446.833 676 OFFCURVE",
"520 701 OFFCURVE",
"622 701 CURVE SMOOTH",
"964 701 LINE"
);
}
);
userData = {
assembly = "MPPEM[ ]	/* MeasurePixelPerEm */\012PUSHB[ ]	/* 1 value pushed */\01234 \012LT[ ]	/* LessThan */\012IF[ ]	/* If */\012NPUSHB[ ]	/* 30 values pushed */\0120 1 0 4 5 1 4 103 0 2 2 3 95 0 3 3 103 77 6 1 5 5 0 95 0 0 0 104 0 78 \012ELSE[ ]	/* Else */\012NPUSHB[ ]	/* 28 values pushed */\0120 3 0 2 1 3 2 103 0 1 0 4 5 1 4 103 6 1 5 5 0 95 0 0 0 104 0 78 \012EIF[ ]	/* EndIf */\012NPUSHB[ ]	/* 14 values pushed */\01213 13 13 22 13 21 34 17 17 36 32 7 12 27 \012CALL[ ]	/* CallFunction */";
};
width = 1298;
}
);
note = uni018B;
unicode = 018B;
},
{
glyphname = E;
lastChange = "2024-07-06 19:21:01 +0000";
layers = (
{
layerId = "67E838D8-D572-4887-B173-0E3F5AAC2F16";
paths = (
{
closed = 1;
nodes = (
"180 101 LINE SMOOTH",
"180 36 OFFCURVE",
"216 0 OFFCURVE",
"281 0 CURVE SMOOTH",
"996 0 LINE SMOOTH",
"1061 0 OFFCURVE",
"1097 30 OFFCURVE",
"1097 84 CURVE SMOOTH",
"1097 138 OFFCURVE",
"1061 168 OFFCURVE",
"996 168 CURVE SMOOTH",
"370 168 LINE",
"370 668 LINE",
"938 668 LINE SMOOTH",
"1003 668 OFFCURVE",
"1039 698 OFFCURVE",
"1039 752 CURVE SMOOTH",
"1039 806 OFFCURVE",
"1003 836 OFFCURVE",
"938 836 CURVE SMOOTH",
"370 836 LINE",
"370 1322 LINE",
"987 1322 LINE SMOOTH",
"1052 1322 OFFCURVE",
"1088 1352 OFFCURVE",
"1088 1406 CURVE SMOOTH",
"1088 1460 OFFCURVE",
"1052 1490 OFFCURVE",
"987 1490 CURVE SMOOTH",
"281 1490 LINE SMOOTH",
"216 1490 OFFCURVE",
"180 1454 OFFCURVE",
"180 1389 CURVE SMOOTH"
);
}
);
userData = {
assembly = "NPUSHB[ ]	/* 44 values pushed */\0120 2 0 3 4 2 3 103 0 1 1 0 95 0 0 0 103 77 0 4 4 5 95 6 1 5 5 104 5 78 0 0 0 11 0 11 17 17 17 17 17 7 12 27 \012CALL[ ]	/* CallFunction */";
};
width = 1231;
}
);
leftKerningGroup = B;
note = E;
rightKerningGroup = AE;
unicode = 0045;
},
{
glyphname = Eopen;
lastChange = "2024-07-06 19:21:01 +0000";
layers = (
{
layerId = "67E838D8-D572-4887-B173-0E3F5AAC2F16";
paths = (
{
closed = 1;
nodes = (
"727.333 -20 OFFCURVE",
"813.833 -3.333 OFFCURVE",
"889.5 30 CURVE SMOOTH",
"965.167 63.333 OFFCURVE",
"1025 109.667 OFFCURVE",
"1069 169 CURVE SMOOTH",
"1091 199 OFFCURVE",
"1109 232 OFFCURVE",
"1120 267 CURVE SMOOTH",
"1143 334 OFFCURVE",
"1102 376 OFFCURVE",
"1037 376 CURVE SMOOTH",
"977 376 OFFCURVE",
"952 346 OFFCURVE",
"925 291 CURVE SMOOTH",
"909 259 OFFCURVE",
"884 231 OFFCURVE",
"850.5 208.5 CURVE SMOOTH",
"790.833 167.5 OFFCURVE",
"718.333 147 OFFCURVE",
"633 147 CURVE SMOOTH",
"539.667 147 OFFCURVE",
"462.5 171 OFFCURVE",
"401.5 219 CURVE SMOOTH",
"340.5 267 OFFCURVE",
"310 329.667 OFFCURVE",
"310 407 CURVE SMOOTH",
"310 487.667 OFFCURVE",
"340 553.5 OFFCURVE",
"400 604.5 CURVE SMOOTH",
"460 655.5 OFFCURVE",
"545.333 681 OFFCURVE",
"656 681 CURVE SMOOTH",
"676 681 LINE SMOOTH",
"741 681 OFFCURVE",
"777 710 OFFCURVE",
"777 764 CURVE SMOOTH",
"777 817 OFFCURVE",
"741 846 OFFCURVE",
"676 846 CURVE SMOOTH",
"656 846 LINE SMOOTH",
"569.333 846 OFFCURVE",
"498.667 869.167 OFFCURVE",
"444 915.5 CURVE SMOOTH",
"389.333 961.833 OFFCURVE",
"362 1023.333 OFFCURVE",
"362 1100 CURVE SMOOTH",
"362 1174 OFFCURVE",
"386.167 1233.333 OFFCURVE",
"434.5 1278 CURVE SMOOTH",
"482.833 1322.667 OFFCURVE",
"547.333 1345 OFFCURVE",
"628 1345 CURVE SMOOTH",
"678.667 1345 OFFCURVE",
"726.167 1335.833 OFFCURVE",
"770.5 1317.5 CURVE SMOOTH",
"814.833 1299.167 OFFCURVE",
"851.167 1273 OFFCURVE",
"879.5 1239 CURVE SMOOTH",
"894 1222 OFFCURVE",
"905 1202 OFFCURVE",
"913 1181 CURVE SMOOTH",
"928 1138 OFFCURVE",
"954 1115 OFFCURVE",
"1014 1115 CURVE SMOOTH",
"1017 1115 LINE SMOOTH",
"1074 1115 OFFCURVE",
"1111 1157 OFFCURVE",
"1089 1223 CURVE SMOOTH",
"1077 1258 OFFCURVE",
"1060 1291 OFFCURVE",
"1038 1321 CURVE SMOOTH",
"994 1380.333 OFFCURVE",
"935.833 1426.667 OFFCURVE",
"863.5 1460 CURVE SMOOTH",
"791.167 1493.333 OFFCURVE",
"711.333 1510 OFFCURVE",
"624 1510 CURVE SMOOTH",
"531.333 1510 OFFCURVE",
"451.5 1491.333 OFFCURVE",
"384.5 1454 CURVE SMOOTH",
"317.5 1416.667 OFFCURVE",
"266 1367.667 OFFCURVE",
"230 1307 CURVE SMOOTH",
"194 1246.333 OFFCURVE",
"176 1180.667 OFFCURVE",
"176 1110 CURVE SMOOTH",
"176 1026 OFFCURVE",
"198.167 954.667 OFFCURVE",
"242.5 896 CURVE SMOOTH",
"286.833 837.333 OFFCURVE",
"347 796.667 OFFCURVE",
"423 774 CURVE",
"423 762 LINE",
"328.333 746.667 OFFCURVE",
"254.5 706.833 OFFCURVE",
"201.5 642.5 CURVE SMOOTH",
"148.5 578.167 OFFCURVE",
"122 499 OFFCURVE",
"122 405 CURVE SMOOTH",
"122 323.667 OFFCURVE",
"144 251 OFFCURVE",
"188 187 CURVE SMOOTH",
"232 123 OFFCURVE",
"292.333 72.5 OFFCURVE",
"369 35.5 CURVE SMOOTH",
"445.667 -1.5 OFFCURVE",
"532.667 -20 OFFCURVE",
"630 -20 CURVE SMOOTH"
);
}
);
userData = {
assembly = "NPUSHB[ ]	/* 75 values pushed */\0127 1 5 4 1 76 0 2 3 4 3 2 4 128 0 7 5 6 5 7 6 128 0 4 0 5 7 4 5 105 0 3 3 1 97 0 1 1 109 77 0 6 6 0 97 8 1 0 0 110 0 78 1 0 43 42 40 38 34 32 31 29 25 23 20 19 16 14 0 46 1 46 9 12 22 \012CALL[ ]	/* CallFunction */";
};
width = 1265;
}
);
note = Epsilon1;
unicode = 0190;
},
{
glyphname = Ereversed;
lastChange = "2024-07-06 19:21:01 +0000";
layers = (
{
layerId = "67E838D8-D572-4887-B173-0E3F5AAC2F16";
paths = (
{
closed = 1;
nodes = (
"1051 1389 LINE SMOOTH",
"1051 1454 OFFCURVE",
"1015 1490 OFFCURVE",
"950 1490 CURVE SMOOTH",
"235 1490 LINE SMOOTH",
"170 1490 OFFCURVE",
"134 1460 OFFCURVE",
"134 1406 CURVE SMOOTH",
"134 1352 OFFCURVE",
"170 1322 OFFCURVE",
"235 1322 CURVE SMOOTH",
"861 1322 LINE",
"861 822 LINE",
"293 822 LINE SMOOTH",
"228 822 OFFCURVE",
"192 792 OFFCURVE",
"192 738 CURVE SMOOTH",
"192 684 OFFCURVE",
"228 654 OFFCURVE",
"293 654 CURVE SMOOTH",
"861 654 LINE",
"861 168 LINE",
"244 168 LINE SMOOTH",
"179 168 OFFCURVE",
"143 138 OFFCURVE",
"143 84 CURVE SMOOTH",
"143 30 OFFCURVE",
"179 0 OFFCURVE",
"244 0 CURVE SMOOTH",
"950 0 LINE SMOOTH",
"1015 0 OFFCURVE",
"1051 36 OFFCURVE",
"1051 101 CURVE SMOOTH"
);
}
);
userData = {
assembly = "NPUSHB[ ]	/* 44 values pushed */\0120 3 0 2 1 3 2 103 0 4 4 5 95 6 1 5 5 103 77 0 1 1 0 95 0 0 0 104 0 78 0 0 0 11 0 11 17 17 17 17 17 7 12 27 \012CALL[ ]	/* CallFunction */";
};
width = 1231;
}
);
note = Eturn;
rightKerningGroup = Ereversed;
unicode = 018E;
},
{
glyphname = Estroke;
lastChange = "2024-07-06 19:21:01 +0000";
layers = (
{
layerId = "67E838D8-D572-4887-B173-0E3F5AAC2F16";
paths = (
{
closed = 1;
nodes = (
"461 -190 OFFCURVE",
"496 -163 OFFCURVE",
"513 -105 CURVE SMOOTH",
"543 0 LINE",
"996 0 LINE SMOOTH",
"1061 0 OFFCURVE",
"1097 30 OFFCURVE",
"1097 84 CURVE SMOOTH",
"1097 138 OFFCURVE",
"1061 168 OFFCURVE",
"996 168 CURVE SMOOTH",
"591 168 LINE",
"735 668 LINE",
"938 668 LINE SMOOTH",
"1003 668 OFFCURVE",
"1039 698 OFFCURVE",
"1039 752 CURVE SMOOTH",
"1039 806 OFFCURVE",
"1003 836 OFFCURVE",
"938 836 CURVE SMOOTH",
"783 836 LINE",
"923 1322 LINE",
"1006 1322 LINE SMOOTH",
"1059 1322 OFFCURVE",
"1088 1352 OFFCURVE",
"1088 1406 CURVE SMOOTH",
"1088 1460 OFFCURVE",
"1052 1490 OFFCURVE",
"987 1490 CURVE SMOOTH",
"972 1490 LINE",
"999 1584 LINE SMOOTH",
"1016 1642 OFFCURVE",
"994 1678 OFFCURVE",
"944 1678 CURVE SMOOTH",
"889 1678 OFFCURVE",
"854 1650 OFFCURVE",
"838 1593 CURVE SMOOTH",
"808 1490 LINE",
"281 1490 LINE SMOOTH",
"216 1490 OFFCURVE",
"180 1454 OFFCURVE",
"180 1389 CURVE SMOOTH",
"180 101 LINE SMOOTH",
"180 36 OFFCURVE",
"216 0 OFFCURVE",
"281 0 CURVE SMOOTH",
"377 0 LINE",
"350 -95 LINE SMOOTH",
"333 -153 OFFCURVE",
"354 -190 OFFCURVE",
"405 -190 CURVE SMOOTH"
);
},
{
closed = 1;
nodes = (
"370 836 LINE",
"370 1322 LINE",
"759 1322 LINE",
"619 836 LINE"
);
},
{
closed = 1;
nodes = (
"370 168 LINE",
"370 668 LINE",
"570 668 LINE",
"425 168 LINE"
);
}
);
userData = {
assembly = "MPPEM[ ]	/* MeasurePixelPerEm */\012PUSHB[ ]	/* 1 value pushed */\01213 \012LT[ ]	/* LessThan */\012IF[ ]	/* If */\012NPUSHB[ ]	/* 49 values pushed */\0120 2 1 1 2 112 15 11 2 5 12 1 6 7 5 6 103 14 1 9 7 9 83 10 1 4 4 1 95 3 1 1 1 103 77 16 13 2 7 7 0 95 8 1 0 0 104 0 78 \012ELSE[ ]	/* Else */\012NPUSHB[ ]	/* 48 values pushed */\0120 2 1 2 133 15 11 2 5 12 1 6 7 5 6 103 14 1 9 7 9 83 10 1 4 4 1 95 3 1 1 1 103 77 16 13 2 7 7 0 95 8 1 0 0 104 0 78 \012EIF[ ]	/* EndIf */\012NPUSHB[ ]	/* 34 values pushed */\01224 24 20 20 0 0 24 27 24 27 26 25 20 23 20 23 22 21 0 19 0 19 17 17 17 17 17 17 17 17 17 17 12 31 \012CALL[ ]	/* CallFunction */";
};
width = 1231;
}
);
leftKerningGroup = B;
note = uni0246;
rightKerningGroup = AE;
unicode = 0246;
},
{
glyphname = Ezh;
lastChange = "2024-07-06 19:21:01 +0000";
layers = (
{
layerId = "67E838D8-D572-4887-B173-0E3F5AAC2F16";
paths = (
{
closed = 1;
nodes = (
"130 -98 OFFCURVE",
"154 -150 OFFCURVE",
"186.5 -197 CURVE SMOOTH",
"239.5 -273 OFFCURVE",
"309.667 -332.5 OFFCURVE",
"397 -375.5 CURVE SMOOTH",
"484.333 -418.5 OFFCURVE",
"581.667 -440 OFFCURVE",
"689 -440 CURVE SMOOTH",
"808.333 -440 OFFCURVE",
"912.667 -413.167 OFFCURVE",
"1002 -359.5 CURVE SMOOTH",
"1091.333 -305.833 OFFCURVE",
"1161 -232.167 OFFCURVE",
"1211 -138.5 CURVE SMOOTH",
"1261 -44.833 OFFCURVE",
"1286 62 OFFCURVE",
"1286 182 CURVE SMOOTH",
"1286 298.667 OFFCURVE",
"1262.167 402 OFFCURVE",
"1214.5 492 CURVE SMOOTH",
"1166.833 582 OFFCURVE",
"1100.833 653.667 OFFCURVE",
"1016.5 707 CURVE SMOOTH",
"932.167 760.333 OFFCURVE",
"835 789.333 OFFCURVE",
"725 794 CURVE",
"725 808 LINE",
"1198 1299 LINE SMOOTH",
"1234 1336 OFFCURVE",
"1248 1372 OFFCURVE",
"1248 1421 CURVE SMOOTH",
"1248 1466 OFFCURVE",
"1212 1490 OFFCURVE",
"1147 1490 CURVE SMOOTH",
"285 1490 LINE SMOOTH",
"220 1490 OFFCURVE",
"184 1460 OFFCURVE",
"184 1405 CURVE SMOOTH",
"184 1350 OFFCURVE",
"220 1319 OFFCURVE",
"285 1319 CURVE SMOOTH",
"987 1319 LINE",
"987 1307 LINE",
"546 855 LINE SMOOTH",
"510 818 OFFCURVE",
"495 781 OFFCURVE",
"495 730 CURVE SMOOTH",
"495 726 LINE SMOOTH",
"495 676 OFFCURVE",
"531 648 OFFCURVE",
"596 648 CURVE SMOOTH",
"611 648 LINE SMOOTH",
"706.333 648 OFFCURVE",
"790.5 628.833 OFFCURVE",
"863.5 590.5 CURVE SMOOTH",
"936.5 552.167 OFFCURVE",
"993.667 498 OFFCURVE",
"1035 428 CURVE SMOOTH",
"1076.333 358 OFFCURVE",
"1097 275.333 OFFCURVE",
"1097 180 CURVE SMOOTH",
"1097 95.333 OFFCURVE",
"1080.5 19 OFFCURVE",
"1047.5 -49 CURVE SMOOTH",
"1014.5 -117 OFFCURVE",
"967.833 -170.833 OFFCURVE",
"907.5 -210.5 CURVE SMOOTH",
"847.167 -250.167 OFFCURVE",
"775.333 -270 OFFCURVE",
"692 -270 CURVE SMOOTH",
"622.667 -270 OFFCURVE",
"558.5 -255.833 OFFCURVE",
"499.5 -227.5 CURVE SMOOTH",
"440.5 -199.167 OFFCURVE",
"392.333 -159.667 OFFCURVE",
"355 -109 CURVE SMOOTH",
"335 -82 OFFCURVE",
"320 -54 OFFCURVE",
"310 -23 CURVE SMOOTH",
"290 36 OFFCURVE",
"261 67 OFFCURVE",
"200 67 CURVE SMOOTH",
"195 67 LINE SMOOTH",
"134 67 OFFCURVE",
"97 26 OFFCURVE",
"115 -41 CURVE SMOOTH"
);
}
);
userData = {
assembly = "NPUSHB[ ]	/* 56 values pushed */\01221 1 3 4 22 15 2 2 3 2 76 0 2 3 0 3 2 0 128 0 0 1 3 0 1 126 0 3 3 4 95 0 4 4 103 77 0 1 1 5 97 0 5 5 114 5 78 42 17 34 38 35 16 6 12 28 \012CALL[ ]	/* CallFunction */";
};
width = 1402;
}
);
note = uni01B7;
rightKerningGroup = B;
unicode = 01B7;
},
{
glyphname = Ezhreversed;
lastChange = "2024-07-06 19:21:01 +0000";
layers = (
{
layerId = "67E838D8-D572-4887-B173-0E3F5AAC2F16";
paths = (
{
closed = 1;
nodes = (
"1202 67 LINE SMOOTH",
"1141 67 OFFCURVE",
"1112 36 OFFCURVE",
"1092 -23 CURVE SMOOTH",
"1082 -54 OFFCURVE",
"1067 -83 OFFCURVE",
"1047.5 -109 CURVE SMOOTH",
"1010.5 -159.667 OFFCURVE",
"962.5 -199.167 OFFCURVE",
"903.5 -227.5 CURVE SMOOTH",
"844.5 -255.833 OFFCURVE",
"779.667 -270 OFFCURVE",
"709 -270 CURVE SMOOTH",
"627 -270 OFFCURVE",
"555.667 -250.167 OFFCURVE",
"495 -210.5 CURVE SMOOTH",
"434.333 -170.833 OFFCURVE",
"387.5 -117 OFFCURVE",
"354.5 -49 CURVE SMOOTH",
"321.5 19 OFFCURVE",
"305 95.333 OFFCURVE",
"305 180 CURVE SMOOTH",
"305 275.333 OFFCURVE",
"325.833 358 OFFCURVE",
"367.5 428 CURVE SMOOTH",
"409.167 498 OFFCURVE",
"466.667 552.167 OFFCURVE",
"540 590.5 CURVE SMOOTH",
"613.333 628.833 OFFCURVE",
"697.667 648 OFFCURVE",
"793 648 CURVE SMOOTH",
"805 648 LINE SMOOTH",
"870 648 OFFCURVE",
"906 677 OFFCURVE",
"906 730 CURVE SMOOTH",
"906 781 OFFCURVE",
"891 818 OFFCURVE",
"855 855 CURVE SMOOTH",
"415 1307 LINE",
"415 1319 LINE",
"1119 1319 LINE SMOOTH",
"1184 1319 OFFCURVE",
"1220 1349 OFFCURVE",
"1220 1405 CURVE SMOOTH",
"1220 1460 OFFCURVE",
"1184 1490 OFFCURVE",
"1119 1490 CURVE SMOOTH",
"255 1490 LINE SMOOTH",
"190 1490 OFFCURVE",
"154 1465 OFFCURVE",
"154 1421 CURVE SMOOTH",
"154 1372 OFFCURVE",
"168 1336 OFFCURVE",
"204 1299 CURVE SMOOTH",
"677 808 LINE",
"677 794 LINE",
"567.667 789.333 OFFCURVE",
"470.833 760.5 OFFCURVE",
"386.5 707.5 CURVE SMOOTH",
"302.167 654.5 OFFCURVE",
"236 582.833 OFFCURVE",
"188 492.5 CURVE SMOOTH",
"140 402.167 OFFCURVE",
"116 298.667 OFFCURVE",
"116 182 CURVE SMOOTH",
"116 62 OFFCURVE",
"141 -44.833 OFFCURVE",
"191 -138.5 CURVE SMOOTH",
"241 -232.167 OFFCURVE",
"310.833 -305.833 OFFCURVE",
"400.5 -359.5 CURVE SMOOTH",
"490.167 -413.167 OFFCURVE",
"594.333 -440 OFFCURVE",
"713 -440 CURVE SMOOTH",
"820.333 -440 OFFCURVE",
"917.5 -418.667 OFFCURVE",
"1004.5 -376 CURVE SMOOTH",
"1091.5 -333.333 OFFCURVE",
"1161.833 -273.833 OFFCURVE",
"1215.5 -197.5 CURVE SMOOTH",
"1249 -150 OFFCURVE",
"1273 -98 OFFCURVE",
"1288 -41 CURVE SMOOTH",
"1305 27 OFFCURVE",
"1268 67 OFFCURVE",
"1207 67 CURVE SMOOTH"
);
}
);
userData = {
assembly = "NPUSHB[ ]	/* 63 values pushed */\01214 1 3 2 20 1 1 3 2 76 7 1 6 4 5 4 6 5 128 0 1 0 4 6 1 4 105 0 3 3 2 95 0 2 2 103 77 0 5 5 0 97 0 0 0 114 0 78 0 0 0 34 0 34 38 35 17 19 22 35 8 12 28 \012CALL[ ]	/* CallFunction */";
};
width = 1402;
}
);
note = uni01B8;
unicode = 01B8;
},
{
glyphname = F;
lastChange = "2024-07-06 19:21:01 +0000";
layers = (
{
layerId = "67E838D8-D572-4887-B173-0E3F5AAC2F16";
paths = (
{
closed = 1;
nodes = (
"180 101 LINE SMOOTH",
"180 36 OFFCURVE",
"214 0 OFFCURVE",
"275 0 CURVE SMOOTH",
"336 0 OFFCURVE",
"370 36 OFFCURVE",
"370 101 CURVE SMOOTH",
"370 644 LINE",
"912 644 LINE SMOOTH",
"977 644 OFFCURVE",
"1013 674 OFFCURVE",
"1013 728 CURVE SMOOTH",
"1013 782 OFFCURVE",
"977 812 OFFCURVE",
"912 812 CURVE SMOOTH",
"370 812 LINE",
"370 1322 LINE",
"980 1322 LINE SMOOTH",
"1045 1322 OFFCURVE",
"1081 1352 OFFCURVE",
"1081 1406 CURVE SMOOTH",
"1081 1460 OFFCURVE",
"1045 1490 OFFCURVE",
"980 1490 CURVE SMOOTH",
"281 1490 LINE SMOOTH",
"216 1490 OFFCURVE",
"180 1454 OFFCURVE",
"180 1389 CURVE SMOOTH"
);
}
);
userData = {
assembly = "NPUSHB[ ]	/* 38 values pushed */\0120 2 0 3 4 2 3 103 0 1 1 0 95 0 0 0 103 77 5 1 4 4 104 4 78 0 0 0 9 0 9 17 17 17 17 6 12 26 \012CALL[ ]	/* CallFunction */";
};
width = 1209;
}
);
leftKerningGroup = B;
note = F;
rightKerningGroup = F;
unicode = 0046;
},
{
glyphname = Fhook;
lastChange = "2024-07-06 19:21:01 +0000";
layers = (
{
layerId = "67E838D8-D572-4887-B173-0E3F5AAC2F16";
paths = (
{
closed = 1;
nodes = (
"42 -426 OFFCURVE",
"60 -427 OFFCURVE",
"79 -427 CURVE SMOOTH",
"174.333 -427 OFFCURVE",
"246.667 -405 OFFCURVE",
"296 -361 CURVE SMOOTH",
"345.333 -317 OFFCURVE",
"370 -253.667 OFFCURVE",
"370 -171 CURVE SMOOTH",
"370 644 LINE",
"912 644 LINE SMOOTH",
"977 644 OFFCURVE",
"1013 674 OFFCURVE",
"1013 728 CURVE SMOOTH",
"1013 782 OFFCURVE",
"977 812 OFFCURVE",
"912 812 CURVE SMOOTH",
"370 812 LINE",
"370 1322 LINE",
"980 1322 LINE SMOOTH",
"1045 1322 OFFCURVE",
"1081 1352 OFFCURVE",
"1081 1406 CURVE SMOOTH",
"1081 1460 OFFCURVE",
"1045 1490 OFFCURVE",
"980 1490 CURVE SMOOTH",
"281 1490 LINE SMOOTH",
"216 1490 OFFCURVE",
"180 1454 OFFCURVE",
"180 1389 CURVE SMOOTH",
"180 -163 LINE SMOOTH",
"180 -197.667 OFFCURVE",
"169.5 -223.167 OFFCURVE",
"148.5 -239.5 CURVE SMOOTH",
"127.5 -255.833 OFFCURVE",
"89.333 -264 OFFCURVE",
"34 -264 CURVE",
"7.5 -263 LINE SMOOTH",
"2 -263 OFFCURVE",
"-3 -262 OFFCURVE",
"-9 -261 CURVE SMOOTH",
"-19 -260 OFFCURVE",
"-25 -288 OFFCURVE",
"-25 -339 CURVE SMOOTH",
"-25 -391 OFFCURVE",
"-8 -423 OFFCURVE",
"27 -425 CURVE SMOOTH"
);
}
);
userData = {
assembly = "NPUSHB[ ]	/* 48 values pushed */\0121 1 0 4 0 1 5 0 2 76 0 3 0 4 0 3 4 103 0 2 2 1 95 0 1 1 103 77 0 0 0 5 97 0 5 5 114 5 78 35 17 17 17 19 50 6 12 28 \012CALL[ ]	/* CallFunction */";
};
width = 1209;
}
);
leftKerningGroup = Fhook;
note = uni0191;
rightKerningGroup = F;
unicode = 0191;
},
{
glyphname = G;
lastChange = "2024-07-06 19:21:01 +0000";
layers = (
{
layerId = "67E838D8-D572-4887-B173-0E3F5AAC2F16";
paths = (
{
closed = 1;
nodes = (
"907.667 -20 OFFCURVE",
"1012.833 4.833 OFFCURVE",
"1104.5 54.5 CURVE SMOOTH",
"1196.167 104.167 OFFCURVE",
"1268.333 174.333 OFFCURVE",
"1321 265 CURVE SMOOTH",
"1373.667 355.667 OFFCURVE",
"1400 462.667 OFFCURVE",
"1400 586 CURVE SMOOTH",
"1400 648 LINE SMOOTH",
"1400 713 OFFCURVE",
"1364 749 OFFCURVE",
"1299 749 CURVE SMOOTH",
"929 749 LINE SMOOTH",
"864 749 OFFCURVE",
"828 720 OFFCURVE",
"828 666 CURVE SMOOTH",
"828 612 OFFCURVE",
"864 583 OFFCURVE",
"929 583 CURVE SMOOTH",
"1214 583 LINE",
"1212.667 495.667 OFFCURVE",
"1193.833 420 OFFCURVE",
"1157.5 356 CURVE SMOOTH",
"1121.167 292 OFFCURVE",
"1071.333 242.667 OFFCURVE",
"1008 208 CURVE SMOOTH",
"944.667 173.333 OFFCURVE",
"871.667 156 OFFCURVE",
"789 156 CURVE SMOOTH",
"697.667 156 OFFCURVE",
"615.667 178.667 OFFCURVE",
"543 224 CURVE SMOOTH",
"470.333 269.333 OFFCURVE",
"412.833 335.667 OFFCURVE",
"370.5 423 CURVE SMOOTH",
"328.167 510.333 OFFCURVE",
"307 617.333 OFFCURVE",
"307 744 CURVE SMOOTH",
"307 872 OFFCURVE",
"328 979.833 OFFCURVE",
"370 1067.5 CURVE SMOOTH",
"412 1155.167 OFFCURVE",
"468.667 1221.5 OFFCURVE",
"540 1266.5 CURVE SMOOTH",
"611.333 1311.5 OFFCURVE",
"690.667 1334 OFFCURVE",
"778 1334 CURVE SMOOTH",
"883.333 1334 OFFCURVE",
"971.167 1306 OFFCURVE",
"1041.5 1250 CURVE SMOOTH",
"1091 1210 OFFCURVE",
"1131 1161 OFFCURVE",
"1161 1102 CURVE SMOOTH",
"1187 1049 OFFCURVE",
"1220 1023 OFFCURVE",
"1278 1023 CURVE SMOOTH",
"1291 1023 LINE SMOOTH",
"1351 1023 OFFCURVE",
"1383 1068 OFFCURVE",
"1357 1137 CURVE SMOOTH",
"1337 1188 OFFCURVE",
"1310 1235 OFFCURVE",
"1277 1277.5 CURVE SMOOTH",
"1220.333 1350.5 OFFCURVE",
"1149.167 1407.5 OFFCURVE",
"1063.5 1448.5 CURVE SMOOTH",
"977.833 1489.5 OFFCURVE",
"882.333 1510 OFFCURVE",
"777 1510 CURVE SMOOTH",
"649.667 1510 OFFCURVE",
"536.667 1479 OFFCURVE",
"438 1417 CURVE SMOOTH",
"339.333 1355 OFFCURVE",
"262 1266.833 OFFCURVE",
"206 1152.5 CURVE SMOOTH",
"150 1038.167 OFFCURVE",
"122 902 OFFCURVE",
"122 744 CURVE SMOOTH",
"122 587.333 OFFCURVE",
"150 451.833 OFFCURVE",
"206 337.5 CURVE SMOOTH",
"262 223.167 OFFCURVE",
"340 135 OFFCURVE",
"440 73 CURVE SMOOTH",
"540 11 OFFCURVE",
"656.333 -20 OFFCURVE",
"789 -20 CURVE SMOOTH"
);
}
);
userData = {
assembly = "NPUSHB[ ]	/* 59 values pushed */\0120 2 3 6 3 2 6 128 0 6 0 5 4 6 5 103 0 3 3 1 97 0 1 1 109 77 0 4 4 0 97 7 1 0 0 110 0 78 1 0 31 30 29 28 25 23 17 15 13 12 9 7 0 35 1 35 8 12 22 \012CALL[ ]	/* CallFunction */";
};
width = 1528;
}
);
leftKerningGroup = C;
note = G;
rightKerningGroup = G;
unicode = 0047;
},
{
glyphname = Ghook;
lastChange = "2024-07-06 19:21:01 +0000";
layers = (
{
layerId = "67E838D8-D572-4887-B173-0E3F5AAC2F16";
paths = (
{
closed = 1;
nodes = (
"907.667 -20 OFFCURVE",
"1012.833 4.833 OFFCURVE",
"1104.5 54.5 CURVE SMOOTH",
"1196.167 104.167 OFFCURVE",
"1268.333 174.333 OFFCURVE",
"1321 265 CURVE SMOOTH",
"1373.667 355.667 OFFCURVE",
"1400 462.667 OFFCURVE",
"1400 586 CURVE SMOOTH",
"1400 648 LINE SMOOTH",
"1400 713 OFFCURVE",
"1364 749 OFFCURVE",
"1299 749 CURVE SMOOTH",
"929 749 LINE SMOOTH",
"864 749 OFFCURVE",
"828 720 OFFCURVE",
"828 666 CURVE SMOOTH",
"828 612 OFFCURVE",
"864 583 OFFCURVE",
"929 583 CURVE SMOOTH",
"1214 583 LINE",
"1212.667 495.667 OFFCURVE",
"1193.833 420 OFFCURVE",
"1157.5 356 CURVE SMOOTH",
"1121.167 292 OFFCURVE",
"1071.333 242.667 OFFCURVE",
"1008 208 CURVE SMOOTH",
"944.667 173.333 OFFCURVE",
"871.667 156 OFFCURVE",
"789 156 CURVE SMOOTH",
"697.667 156 OFFCURVE",
"615.667 178.667 OFFCURVE",
"543 224 CURVE SMOOTH",
"470.333 269.333 OFFCURVE",
"412.833 335.667 OFFCURVE",
"370.5 423 CURVE SMOOTH",
"328.167 510.333 OFFCURVE",
"307 617.333 OFFCURVE",
"307 744 CURVE SMOOTH",
"307 872 OFFCURVE",
"328 979.833 OFFCURVE",
"370 1067.5 CURVE SMOOTH",
"412 1155.167 OFFCURVE",
"468.667 1221.5 OFFCURVE",
"540 1266.5 CURVE SMOOTH",
"611.333 1311.5 OFFCURVE",
"690.667 1334 OFFCURVE",
"778 1334 CURVE SMOOTH",
"883.333 1334 OFFCURVE",
"971.167 1306 OFFCURVE",
"1041.5 1250 CURVE SMOOTH",
"1091 1210 OFFCURVE",
"1131 1161 OFFCURVE",
"1161 1102 CURVE SMOOTH",
"1187 1049 OFFCURVE",
"1220 1023 OFFCURVE",
"1278 1023 CURVE SMOOTH",
"1291 1023 LINE SMOOTH",
"1354 1023 OFFCURVE",
"1389 1059 OFFCURVE",
"1389 1124 CURVE SMOOTH",
"1389 1429 LINE SMOOTH",
"1389 1496.333 OFFCURVE",
"1443 1530 OFFCURVE",
"1551 1530 CURVE SMOOTH",
"1559.667 1530 OFFCURVE",
"1569 1529.667 OFFCURVE",
"1579 1529 CURVE SMOOTH",
"1599 1527 OFFCURVE",
"1610 1553 OFFCURVE",
"1610 1601 CURVE SMOOTH",
"1610 1650 OFFCURVE",
"1578 1683 OFFCURVE",
"1515 1684 CURVE SMOOTH",
"1512 1684 OFFCURVE",
"1508 1684 OFFCURVE",
"1505 1684 CURVE SMOOTH",
"1410.333 1684 OFFCURVE",
"1338.333 1662.167 OFFCURVE",
"1289 1618.5 CURVE SMOOTH",
"1239.667 1574.833 OFFCURVE",
"1215 1511.667 OFFCURVE",
"1215 1429 CURVE SMOOTH",
"1215 1345 LINE",
"1159.667 1397 OFFCURVE",
"1094.667 1437.5 OFFCURVE",
"1020 1466.5 CURVE SMOOTH",
"945.333 1495.5 OFFCURVE",
"864.333 1510 OFFCURVE",
"777 1510 CURVE SMOOTH",
"649.667 1510 OFFCURVE",
"536.667 1479 OFFCURVE",
"438 1417 CURVE SMOOTH",
"339.333 1355 OFFCURVE",
"262 1266.833 OFFCURVE",
"206 1152.5 CURVE SMOOTH",
"150 1038.167 OFFCURVE",
"122 902 OFFCURVE",
"122 744 CURVE SMOOTH",
"122 587.333 OFFCURVE",
"150 451.833 OFFCURVE",
"206 337.5 CURVE SMOOTH",
"262 223.167 OFFCURVE",
"340 135 OFFCURVE",
"440 73 CURVE SMOOTH",
"540 11 OFFCURVE",
"656.333 -20 OFFCURVE",
"789 -20 CURVE SMOOTH"
);
}
);
userData = {
assembly = "NPUSHB[ ]	/* 85 values pushed */\01217 1 3 2 18 1 1 3 11 1 5 1 3 76 0 4 5 8 5 4 8 128 0 2 0 3 1 2 3 105 0 8 0 7 6 8 7 103 0 5 5 1 97 0 1 1 109 77 0 6 6 0 97 9 1 0 0 110 0 78 1 0 43 42 41 40 37 35 29 27 25 24 22 20 16 14 9 7 0 47 1 47 10 12 22 \012CALL[ ]	/* CallFunction */";
};
width = 1528;
}
);
leftKerningGroup = C;
note = uni0193;
rightKerningGroup = G;
unicode = 0193;
},
{
glyphname = Glottalstop;
lastChange = "2024-07-06 19:21:01 +0000";
layers = (
{
layerId = "67E838D8-D572-4887-B173-0E3F5AAC2F16";
paths = (
{
closed = 1;
nodes = (
"465 458 OFFCURVE",
"430 422 OFFCURVE",
"430 357 CURVE SMOOTH",
"430 101 LINE SMOOTH",
"430 36 OFFCURVE",
"466 0 OFFCURVE",
"531 0 CURVE SMOOTH",
"547 0 LINE SMOOTH",
"612 0 OFFCURVE",
"648 36 OFFCURVE",
"648 101 CURVE SMOOTH",
"648 290 LINE",
"732 307.333 OFFCURVE",
"801.833 341.833 OFFCURVE",
"857.5 393.5 CURVE SMOOTH",
"913.167 445.167 OFFCURVE",
"954.833 507.833 OFFCURVE",
"982.5 581.5 CURVE SMOOTH",
"1010.167 655.167 OFFCURVE",
"1024 734.333 OFFCURVE",
"1024 819 CURVE SMOOTH",
"1024 967 LINE SMOOTH",
"1024 1063.667 OFFCURVE",
"1005.833 1153.167 OFFCURVE",
"969.5 1235.5 CURVE SMOOTH",
"933.167 1317.833 OFFCURVE",
"878.5 1384.167 OFFCURVE",
"805.5 1434.5 CURVE SMOOTH",
"732.5 1484.833 OFFCURVE",
"640.333 1510 OFFCURVE",
"529 1510 CURVE SMOOTH",
"442.333 1510 OFFCURVE",
"366.333 1492 OFFCURVE",
"301 1456 CURVE SMOOTH",
"235.667 1420 OFFCURVE",
"184.5 1371 OFFCURVE",
"147.5 1309 CURVE SMOOTH",
"128 1277 OFFCURVE",
"114 1243 OFFCURVE",
"104 1207 CURVE SMOOTH",
"86 1139 OFFCURVE",
"128 1099 OFFCURVE",
"197 1099 CURVE SMOOTH",
"199 1099 LINE SMOOTH",
"260 1099 OFFCURVE",
"286 1130 OFFCURVE",
"309 1188 CURVE SMOOTH",
"320 1217 OFFCURVE",
"337 1243 OFFCURVE",
"358.5 1265.5 CURVE SMOOTH",
"400.167 1308.5 OFFCURVE",
"457.333 1330 OFFCURVE",
"530 1330 CURVE SMOOTH",
"604 1330 OFFCURVE",
"661.167 1312 OFFCURVE",
"701.5 1276 CURVE SMOOTH",
"741.833 1240 OFFCURVE",
"769.833 1194.167 OFFCURVE",
"785.5 1138.5 CURVE SMOOTH",
"801.167 1082.833 OFFCURVE",
"809 1025.667 OFFCURVE",
"809 967 CURVE SMOOTH",
"809 819 LINE SMOOTH",
"809 758.333 OFFCURVE",
"801.167 700.333 OFFCURVE",
"785.5 645 CURVE SMOOTH",
"769.833 589.667 OFFCURVE",
"741.833 544.667 OFFCURVE",
"701.5 510 CURVE SMOOTH",
"661.167 475.333 OFFCURVE",
"604 458 OFFCURVE",
"530 458 CURVE SMOOTH"
);
}
);
userData = {
assembly = "NPUSHB[ ]	/* 53 values pushed */\01227 1 4 0 1 76 0 2 1 0 1 2 0 128 0 1 1 3 97 0 3 3 109 77 5 1 0 0 4 95 0 4 4 104 4 78 2 0 29 28 19 17 14 13 11 9 0 30 2 30 6 12 22 \012CALL[ ]	/* CallFunction */";
};
width = 1112;
}
);
note = uni0241;
unicode = 0241;
},
{
glyphname = Yogh;
lastChange = "2024-07-06 19:21:01 +0000";
layers = (
{
layerId = "67E838D8-D572-4887-B173-0E3F5AAC2F16";
paths = (
{
closed = 1;
nodes = (
"422 387 OFFCURVE",
"504 415 OFFCURVE",
"581 446.5 CURVE SMOOTH",
"690.333 491.5 OFFCURVE",
"785.333 543.667 OFFCURVE",
"866 603 CURVE",
"897.333 577.667 OFFCURVE",
"919.5 543.333 OFFCURVE",
"932.5 500 CURVE SMOOTH",
"945.5 456.667 OFFCURVE",
"952 403.667 OFFCURVE",
"952 341 CURVE SMOOTH",
"952 218.333 OFFCURVE",
"923.167 118 OFFCURVE",
"865.5 40 CURVE SMOOTH",
"807.833 -38 OFFCURVE",
"724.667 -100.5 OFFCURVE",
"616 -147.5 CURVE SMOOTH",
"529 -185 OFFCURVE",
"428 -217 OFFCURVE",
"313 -244 CURVE SMOOTH",
"253 -259 OFFCURVE",
"223 -293 OFFCURVE",
"223 -350 CURVE SMOOTH",
"223 -403 OFFCURVE",
"265 -428 OFFCURVE",
"334 -412 CURVE SMOOTH",
"429 -390 OFFCURVE",
"518 -365 OFFCURVE",
"601 -336.5 CURVE SMOOTH",
"716.333 -297.5 OFFCURVE",
"816.5 -248.833 OFFCURVE",
"901.5 -190.5 CURVE SMOOTH",
"986.5 -132.167 OFFCURVE",
"1052.5 -60.833 OFFCURVE",
"1099.5 23.5 CURVE SMOOTH",
"1146.5 107.833 OFFCURVE",
"1170 209 OFFCURVE",
"1170 327 CURVE SMOOTH",
"1170 423.667 OFFCURVE",
"1154.5 503.667 OFFCURVE",
"1123.5 567 CURVE SMOOTH",
"1092.5 630.333 OFFCURVE",
"1049 680 OFFCURVE",
"993 716 CURVE",
"1041.667 769.333 OFFCURVE",
"1079.333 826.667 OFFCURVE",
"1106 888 CURVE SMOOTH",
"1132.667 949.333 OFFCURVE",
"1146 1014.333 OFFCURVE",
"1146 1083 CURVE SMOOTH",
"1146 1174.333 OFFCURVE",
"1124.333 1251.833 OFFCURVE",
"1081 1315.5 CURVE SMOOTH",
"1037.667 1379.167 OFFCURVE",
"978.333 1427.5 OFFCURVE",
"903 1460.5 CURVE SMOOTH",
"827.667 1493.5 OFFCURVE",
"741.667 1510 OFFCURVE",
"645 1510 CURVE SMOOTH",
"545.667 1510 OFFCURVE",
"457.167 1493.333 OFFCURVE",
"379.5 1460 CURVE SMOOTH",
"301.833 1426.667 OFFCURVE",
"241 1379.833 OFFCURVE",
"197 1319.5 CURVE SMOOTH",
"173 1287 OFFCURVE",
"156 1251 OFFCURVE",
"145 1212 CURVE SMOOTH",
"126 1145 OFFCURVE",
"170 1105 OFFCURVE",
"238 1105 CURVE SMOOTH",
"255 1105 LINE SMOOTH",
"315 1105 OFFCURVE",
"339 1136 OFFCURVE",
"364 1193 CURVE SMOOTH",
"378 1223 OFFCURVE",
"399 1249 OFFCURVE",
"427.5 1271.5 CURVE SMOOTH",
"481.833 1314.5 OFFCURVE",
"554.333 1336 OFFCURVE",
"645 1336 CURVE SMOOTH",
"737 1336 OFFCURVE",
"807.833 1312.167 OFFCURVE",
"857.5 1264.5 CURVE SMOOTH",
"907.167 1216.833 OFFCURVE",
"932 1149 OFFCURVE",
"932 1061 CURVE SMOOTH",
"932 969 OFFCURVE",
"904.667 889 OFFCURVE",
"850 821 CURVE SMOOTH",
"795.333 753 OFFCURVE",
"715.333 692.833 OFFCURVE",
"610 640.5 CURVE SMOOTH",
"525 598 OFFCURVE",
"424 558 OFFCURVE",
"307 520 CURVE SMOOTH",
"250 501 OFFCURVE",
"223 467 OFFCURVE",
"223 415 CURVE SMOOTH",
"223 367 OFFCURVE",
"266 346 OFFCURVE",
"335 364 CURVE SMOOTH"
);
}
);
userData = {
assembly = "NPUSHB[ ]	/* 31 values pushed */\01239 32 31 23 1 0 6 1 73 0 1 0 1 134 0 0 0 2 97 0 2 2 109 0 78 35 18 39 3 12 25 \012CALL[ ]	/* CallFunction */";
};
width = 1298;
}
);
note = uni021C;
unicode = 021C;
},
{
glyphname = H;
lastChange = "2024-07-06 19:21:01 +0000";
layers = (
{
layerId = "67E838D8-D572-4887-B173-0E3F5AAC2F16";
paths = (
{
closed = 1;
nodes = (
"180 101 LINE SMOOTH",
"180 36 OFFCURVE",
"214 0 OFFCURVE",
"275 0 CURVE SMOOTH",
"336 0 OFFCURVE",
"370 36 OFFCURVE",
"370 101 CURVE SMOOTH",
"370 678 LINE",
"1152 678 LINE",
"1152 101 LINE SMOOTH",
"1152 36 OFFCURVE",
"1186 0 OFFCURVE",
"1247 0 CURVE SMOOTH",
"1308 0 OFFCURVE",
"1342 36 OFFCURVE",
"1342 101 CURVE SMOOTH",
"1342 1389 LINE SMOOTH",
"1342 1454 OFFCURVE",
"1308 1490 OFFCURVE",
"1247 1490 CURVE SMOOTH",
"1186 1490 OFFCURVE",
"1152 1454 OFFCURVE",
"1152 1389 CURVE SMOOTH",
"1152 846 LINE",
"370 846 LINE",
"370 1389 LINE SMOOTH",
"370 1454 OFFCURVE",
"336 1490 OFFCURVE",
"275 1490 CURVE SMOOTH",
"214 1490 OFFCURVE",
"180 1454 OFFCURVE",
"180 1389 CURVE SMOOTH"
);
}
);
userData = {
assembly = "NPUSHB[ ]	/* 36 values pushed */\0120 1 0 4 3 1 4 103 2 1 0 0 103 77 6 5 2 3 3 104 3 78 0 0 0 11 0 11 17 17 17 17 17 7 12 27 \012CALL[ ]	/* CallFunction */";
};
width = 1522;
}
);
leftKerningGroup = B;
note = H;
rightKerningGroup = Ereversed;
unicode = 0048;
},
{
glyphname = Hbar;
lastChange = "2024-07-06 19:21:01 +0000";
layers = (
{
layerId = "67E838D8-D572-4887-B173-0E3F5AAC2F16";
paths = (
{
closed = 1;
nodes = (
"1492 1149 OFFCURVE",
"1456 1176 OFFCURVE",
"1391 1176 CURVE SMOOTH",
"1380 1176 LINE",
"1380 1389 LINE SMOOTH",
"1380 1454 OFFCURVE",
"1346 1490 OFFCURVE",
"1285 1490 CURVE SMOOTH",
"1224 1490 OFFCURVE",
"1190 1454 OFFCURVE",
"1190 1389 CURVE SMOOTH",
"1190 1176 LINE",
"408 1176 LINE",
"408 1389 LINE SMOOTH",
"408 1454 OFFCURVE",
"374 1490 OFFCURVE",
"313 1490 CURVE SMOOTH",
"252 1490 OFFCURVE",
"218 1454 OFFCURVE",
"218 1389 CURVE SMOOTH",
"218 1176 LINE",
"158 1176 LINE SMOOTH",
"119 1176 OFFCURVE",
"98 1149 OFFCURVE",
"98 1100 CURVE SMOOTH",
"98 1051 OFFCURVE",
"134 1024 OFFCURVE",
"199 1024 CURVE SMOOTH",
"218 1024 LINE",
"218 101 LINE SMOOTH",
"218 36 OFFCURVE",
"252 0 OFFCURVE",
"313 0 CURVE SMOOTH",
"374 0 OFFCURVE",
"408 36 OFFCURVE",
"408 101 CURVE SMOOTH",
"408 678 LINE",
"1190 678 LINE",
"1190 101 LINE SMOOTH",
"1190 36 OFFCURVE",
"1224 0 OFFCURVE",
"1285 0 CURVE SMOOTH",
"1346 0 OFFCURVE",
"1380 36 OFFCURVE",
"1380 101 CURVE SMOOTH",
"1380 1024 LINE",
"1436 1024 LINE SMOOTH",
"1472 1024 OFFCURVE",
"1492 1051 OFFCURVE",
"1492 1100 CURVE SMOOTH"
);
},
{
closed = 1;
nodes = (
"1190 1024 LINE",
"1190 846 LINE",
"408 846 LINE",
"408 1024 LINE"
);
}
);
userData = {
assembly = "NPUSHB[ ]	/* 56 values pushed */\01212 9 7 3 5 10 4 2 0 11 5 0 103 0 11 0 2 1 11 2 103 8 1 6 6 103 77 3 1 1 1 104 1 78 0 0 23 22 21 20 0 19 0 19 17 17 17 17 17 17 17 17 17 13 12 31 \012CALL[ ]	/* CallFunction */";
};
width = 1590;
}
);
leftKerningGroup = B;
note = Hbar;
rightKerningGroup = Ereversed;
unicode = 0126;
},
{
glyphname = Hwair;
lastChange = "2024-07-06 19:21:01 +0000";
layers = (
{
layerId = "67E838D8-D572-4887-B173-0E3F5AAC2F16";
paths = (
{
closed = 1;
nodes = (
"1742.333 -20 OFFCURVE",
"1826.5 -1.667 OFFCURVE",
"1899.5 35 CURVE SMOOTH",
"1972.5 71.667 OFFCURVE",
"2029.5 126.667 OFFCURVE",
"2070.5 200 CURVE SMOOTH",
"2111.5 273.333 OFFCURVE",
"2132 364.667 OFFCURVE",
"2132 474 CURVE SMOOTH",
"2132 1015 LINE SMOOTH",
"2132 1080 OFFCURVE",
"2098 1116 OFFCURVE",
"2037 1116 CURVE SMOOTH",
"1976 1116 OFFCURVE",
"1942 1080 OFFCURVE",
"1942 1015 CURVE SMOOTH",
"1942 474 LINE SMOOTH",
"1942 363.333 OFFCURVE",
"1916.667 282.167 OFFCURVE",
"1866 230.5 CURVE SMOOTH",
"1815.333 178.833 OFFCURVE",
"1742.333 153 OFFCURVE",
"1647 153 CURVE SMOOTH",
"1551.667 153 OFFCURVE",
"1477.333 178.833 OFFCURVE",
"1424 230.5 CURVE SMOOTH",
"1370.667 282.167 OFFCURVE",
"1344 363.333 OFFCURVE",
"1344 474 CURVE SMOOTH",
"1344 1389 LINE SMOOTH",
"1344 1454 OFFCURVE",
"1310 1490 OFFCURVE",
"1248 1490 CURVE SMOOTH",
"1186 1490 OFFCURVE",
"1152 1454 OFFCURVE",
"1152 1389 CURVE SMOOTH",
"1152 830 LINE",
"370 830 LINE",
"370 1389 LINE SMOOTH",
"370 1454 OFFCURVE",
"336 1490 OFFCURVE",
"275 1490 CURVE SMOOTH",
"214 1490 OFFCURVE",
"180 1454 OFFCURVE",
"180 1389 CURVE SMOOTH",
"180 101 LINE SMOOTH",
"180 36 OFFCURVE",
"214 0 OFFCURVE",
"275 0 CURVE SMOOTH",
"336 0 OFFCURVE",
"370 36 OFFCURVE",
"370 101 CURVE SMOOTH",
"370 662 LINE",
"1152 662 LINE",
"1152 474 LINE SMOOTH",
"1152 312 OFFCURVE",
"1197.667 189.167 OFFCURVE",
"1289 105.5 CURVE SMOOTH",
"1380.333 21.833 OFFCURVE",
"1499.667 -20 OFFCURVE",
"1647 -20 CURVE SMOOTH"
);
}
);
userData = {
assembly = "MPPEM[ ]	/* MeasurePixelPerEm */\012PUSHB[ ]	/* 1 value pushed */\01225 \012LT[ ]	/* LessThan */\012IF[ ]	/* If */\012NPUSHB[ ]	/* 32 values pushed */\0120 4 0 1 6 4 1 103 5 1 3 3 103 77 0 7 7 106 77 0 6 6 0 97 2 8 2 0 0 110 0 78 \012ELSE[ ]	/* Else */\012NPUSHB[ ]	/* 36 values pushed */\0120 4 0 1 6 4 1 103 5 1 3 3 103 77 0 7 7 106 77 0 2 2 104 77 0 6 6 0 97 8 1 0 0 110 0 78 \012EIF[ ]	/* EndIf */\012NPUSHB[ ]	/* 23 values pushed */\0121 0 22 21 18 16 13 12 11 10 9 8 7 6 5 4 0 26 1 26 9 12 22 \012CALL[ ]	/* CallFunction */";
};
width = 2290;
}
);
leftKerningGroup = B;
note = uni01F6;
rightKerningGroup = Hwair;
unicode = 01F6;
},
{
glyphname = I;
lastChange = "2024-07-06 19:21:01 +0000";
layers = (
{
layerId = "67E838D8-D572-4887-B173-0E3F5AAC2F16";
paths = (
{
closed = 1;
nodes = (
"370 1389 LINE SMOOTH",
"370 1454 OFFCURVE",
"336 1490 OFFCURVE",
"275 1490 CURVE SMOOTH",
"214 1490 OFFCURVE",
"180 1454 OFFCURVE",
"180 1389 CURVE SMOOTH",
"180 101 LINE SMOOTH",
"180 36 OFFCURVE",
"214 0 OFFCURVE",
"275 0 CURVE SMOOTH",
"336 0 OFFCURVE",
"370 36 OFFCURVE",
"370 101 CURVE SMOOTH"
);
}
);
userData = {
assembly = "NPUSHB[ ]	/* 22 values pushed */\0122 1 1 1 103 77 0 0 0 104 0 78 0 0 0 3 0 3 17 3 12 23 \012CALL[ ]	/* CallFunction */";
};
width = 550;
}
);
leftKerningGroup = B;
note = I;
rightKerningGroup = Ereversed;
unicode = 0049;
},
{
glyphname = J;
lastChange = "2024-07-06 19:21:01 +0000";
layers = (
{
layerId = "67E838D8-D572-4887-B173-0E3F5AAC2F16";
paths = (
{
closed = 1;
nodes = (
"676.333 -20 OFFCURVE",
"783.167 18.667 OFFCURVE",
"865.5 96 CURVE SMOOTH",
"947.833 173.333 OFFCURVE",
"989 283.333 OFFCURVE",
"989 426 CURVE SMOOTH",
"989 1389 LINE SMOOTH",
"989 1454 OFFCURVE",
"955 1490 OFFCURVE",
"894 1490 CURVE SMOOTH",
"833 1490 OFFCURVE",
"799 1454 OFFCURVE",
"799 1389 CURVE SMOOTH",
"799 426 LINE SMOOTH",
"799 335.333 OFFCURVE",
"775.667 266.167 OFFCURVE",
"729 218.5 CURVE SMOOTH",
"682.333 170.833 OFFCURVE",
"621 147 OFFCURVE",
"545 147 CURVE SMOOTH",
"468.333 147 OFFCURVE",
"406.667 170.833 OFFCURVE",
"360 218.5 CURVE SMOOTH",
"313.333 266.167 OFFCURVE",
"290 335.333 OFFCURVE",
"290 426 CURVE SMOOTH",
"290 478 OFFCURVE",
"256 506 OFFCURVE",
"195 506 CURVE SMOOTH",
"134 506 OFFCURVE",
"100 478 OFFCURVE",
"100 426 CURVE SMOOTH",
"100 283.333 OFFCURVE",
"141.333 173.333 OFFCURVE",
"224 96 CURVE SMOOTH",
"306.667 18.667 OFFCURVE",
"413.667 -20 OFFCURVE",
"545 -20 CURVE SMOOTH"
);
}
);
userData = {
assembly = "NPUSHB[ ]	/* 40 values pushed */\0120 1 3 2 3 1 2 128 0 3 3 103 77 0 2 2 0 97 4 1 0 0 110 0 78 1 0 14 13 10 8 5 4 0 17 1 17 5 12 22 \012CALL[ ]	/* CallFunction */";
};
width = 1169;
}
);
leftKerningGroup = J;
note = J;
rightKerningGroup = J;
unicode = 004A;
},
{
glyphname = K;
lastChange = "2024-07-06 19:21:01 +0000";
layers = (
{
layerId = "67E838D8-D572-4887-B173-0E3F5AAC2F16";
paths = (
{
closed = 1;
nodes = (
"180 101 LINE SMOOTH",
"180 36 OFFCURVE",
"214 0 OFFCURVE",
"275 0 CURVE SMOOTH",
"336 0 OFFCURVE",
"370 36 OFFCURVE",
"370 101 CURVE SMOOTH",
"370 489 LINE",
"585 716 LINE",
"1049 63 LINE SMOOTH",
"1080 19 OFFCURVE",
"1117 0 OFFCURVE",
"1171 0 CURVE SMOOTH",
"1207 0 LINE SMOOTH",
"1269 0 OFFCURVE",
"1280 54 OFFCURVE",
"1231 123 CURVE SMOOTH",
"716 845 LINE",
"1202 1366 LINE SMOOTH",
"1263 1431 OFFCURVE",
"1237 1490 OFFCURVE",
"1148 1490 CURVE SMOOTH",
"1143 1490 LINE SMOOTH",
"1091 1490 OFFCURVE",
"1054 1474 OFFCURVE",
"1019 1436 CURVE SMOOTH",
"624 1009 LINE SMOOTH",
"578.667 959.667 OFFCURVE",
"534.833 910.333 OFFCURVE",
"492.5 861 CURVE SMOOTH",
"450.167 811.667 OFFCURVE",
"408.333 760 OFFCURVE",
"367 706 CURVE",
"370 980 LINE",
"370 1389 LINE SMOOTH",
"370 1454 OFFCURVE",
"336 1490 OFFCURVE",
"275 1490 CURVE SMOOTH",
"214 1490 OFFCURVE",
"180 1454 OFFCURVE",
"180 1389 CURVE SMOOTH"
);
}
);
userData = {
assembly = "NPUSHB[ ]	/* 35 values pushed */\01214 13 10 4 4 2 0 1 76 1 1 0 0 103 77 4 3 2 2 2 104 2 78 0 0 0 15 0 15 18 22 17 5 12 25 \012CALL[ ]	/* CallFunction */";
};
width = 1376;
}
);
leftKerningGroup = B;
note = K;
rightKerningGroup = K;
unicode = 004B;
},
{
glyphname = Khook;
lastChange = "2024-07-06 19:21:01 +0000";
layers = (
{
layerId = "67E838D8-D572-4887-B173-0E3F5AAC2F16";
paths = (
{
closed = 1;
nodes = (
"180 101 LINE SMOOTH",
"180 36 OFFCURVE",
"214 0 OFFCURVE",
"275 0 CURVE SMOOTH",
"336 0 OFFCURVE",
"370 36 OFFCURVE",
"370 101 CURVE SMOOTH",
"370 475 LINE",
"556 684 LINE",
"1022 61 LINE SMOOTH",
"1054 18 OFFCURVE",
"1092 0 OFFCURVE",
"1145 0 CURVE SMOOTH",
"1183 0 LINE SMOOTH",
"1246 0 OFFCURVE",
"1256 56 OFFCURVE",
"1204 123 CURVE SMOOTH",
"674 817 LINE",
"1093 1266 LINE SMOOTH",
"1129 1304.667 OFFCURVE",
"1163.667 1327.167 OFFCURVE",
"1197 1333.5 CURVE SMOOTH",
"1214 1337 OFFCURVE",
"1232 1336 OFFCURVE",
"1249 1332 CURVE SMOOTH",
"1284 1324 OFFCURVE",
"1309 1333 OFFCURVE",
"1334 1381 CURVE SMOOTH",
"1358 1427 OFFCURVE",
"1343 1476 OFFCURVE",
"1280 1495 CURVE SMOOTH",
"1244 1506 OFFCURVE",
"1207 1510 OFFCURVE",
"1168.5 1506.5 CURVE SMOOTH",
"1096.167 1500.167 OFFCURVE",
"1030.333 1464.333 OFFCURVE",
"971 1399 CURVE SMOOTH",
"388 757 LINE",
"370 757 LINE",
"370 1389 LINE SMOOTH",
"370 1454 OFFCURVE",
"336 1490 OFFCURVE",
"275 1490 CURVE SMOOTH",
"214 1490 OFFCURVE",
"180 1454 OFFCURVE",
"180 1389 CURVE SMOOTH"
);
}
);
userData = {
assembly = "NPUSHB[ ]	/* 35 values pushed */\01217 16 13 9 8 3 6 1 0 1 76 0 0 0 103 77 3 2 2 1 1 104 1 78 0 0 0 18 0 18 28 17 4 12 24 \012CALL[ ]	/* CallFunction */";
};
width = 1389;
}
);
leftKerningGroup = B;
note = uni0198;
rightKerningGroup = K;
unicode = 0198;
},
{
glyphname = L;
lastChange = "2024-07-06 19:21:01 +0000";
layers = (
{
layerId = "67E838D8-D572-4887-B173-0E3F5AAC2F16";
paths = (
{
closed = 1;
nodes = (
"180 101 LINE SMOOTH",
"180 36 OFFCURVE",
"216 0 OFFCURVE",
"281 0 CURVE SMOOTH",
"959 0 LINE SMOOTH",
"1024 0 OFFCURVE",
"1060 30 OFFCURVE",
"1060 84 CURVE SMOOTH",
"1060 138 OFFCURVE",
"1024 168 OFFCURVE",
"959 168 CURVE SMOOTH",
"370 168 LINE",
"370 1389 LINE SMOOTH",
"370 1454 OFFCURVE",
"336 1490 OFFCURVE",
"275 1490 CURVE SMOOTH",
"214 1490 OFFCURVE",
"180 1454 OFFCURVE",
"180 1389 CURVE SMOOTH"
);
}
);
userData = {
assembly = "NPUSHB[ ]	/* 28 values pushed */\0120 0 0 103 77 0 1 1 2 96 3 1 2 2 104 2 78 0 0 0 5 0 5 17 17 4 12 24 \012CALL[ ]	/* CallFunction */";
};
width = 1158;
}
);
leftKerningGroup = B;
note = L;
rightKerningGroup = L;
unicode = 004C;
},
{
glyphname = M;
lastChange = "2024-07-06 19:21:01 +0000";
layers = (
{
layerId = "67E838D8-D572-4887-B173-0E3F5AAC2F16";
paths = (
{
closed = 1;
nodes = (
"180 101 LINE SMOOTH",
"180 36 OFFCURVE",
"212 0 OFFCURVE",
"271 0 CURVE SMOOTH",
"329 0 OFFCURVE",
"361 36 OFFCURVE",
"361 101 CURVE SMOOTH",
"361 851 LINE SMOOTH",
"361 908.333 OFFCURVE",
"360.167 977.167 OFFCURVE",
"358.5 1057.5 CURVE SMOOTH",
"356.833 1137.833 OFFCURVE",
"355.333 1213.333 OFFCURVE",
"354 1284 CURVE",
"438.5 1033.5 LINE SMOOTH",
"465.5 953.833 OFFCURVE",
"487.333 893 OFFCURVE",
"504 851 CURVE SMOOTH",
"811 79 LINE SMOOTH",
"832 25 OFFCURVE",
"869 0 OFFCURVE",
"925 0 CURVE SMOOTH",
"981 0 OFFCURVE",
"1017 24 OFFCURVE",
"1038 79 CURVE SMOOTH",
"1340 851 LINE SMOOTH",
"1357.333 895 OFFCURVE",
"1379.833 957.333 OFFCURVE",
"1407.5 1038 CURVE SMOOTH",
"1435.167 1118.667 OFFCURVE",
"1462.667 1201.667 OFFCURVE",
"1490 1287 CURVE",
"1488 1209.667 OFFCURVE",
"1486.333 1131.333 OFFCURVE",
"1485 1052 CURVE SMOOTH",
"1483.667 972.667 OFFCURVE",
"1483 905.667 OFFCURVE",
"1483 851 CURVE SMOOTH",
"1483 101 LINE SMOOTH",
"1483 36 OFFCURVE",
"1516 0 OFFCURVE",
"1577 0 CURVE SMOOTH",
"1637 0 OFFCURVE",
"1670 36 OFFCURVE",
"1670 101 CURVE SMOOTH",
"1670 1389 LINE SMOOTH",
"1670 1454 OFFCURVE",
"1634 1490 OFFCURVE",
"1569 1490 CURVE SMOOTH",
"1484 1490 LINE SMOOTH",
"1426 1490 OFFCURVE",
"1389 1465 OFFCURVE",
"1368 1410 CURVE SMOOTH",
"1037 550 LINE SMOOTH",
"1022.333 512.667 OFFCURVE",
"1004.667 461.5 OFFCURVE",
"984 396.5 CURVE SMOOTH",
"963.333 331.5 OFFCURVE",
"944.333 269.667 OFFCURVE",
"927 211 CURVE",
"909 271.667 OFFCURVE",
"889.667 334.333 OFFCURVE",
"869 399 CURVE SMOOTH",
"848.333 463.667 OFFCURVE",
"831 514 OFFCURVE",
"817 550 CURVE SMOOTH",
"481 1411 LINE SMOOTH",
"460 1466 OFFCURVE",
"423 1490 OFFCURVE",
"365 1490 CURVE SMOOTH",
"281 1490 LINE SMOOTH",
"216 1490 OFFCURVE",
"180 1454 OFFCURVE",
"180 1389 CURVE SMOOTH"
);
}
);
userData = {
assembly = "NPUSHB[ ]	/* 36 values pushed */\01226 17 6 3 2 0 1 76 1 1 0 0 103 77 5 4 3 3 2 2 104 2 78 0 0 0 30 0 30 24 17 24 17 6 12 26 \012CALL[ ]	/* CallFunction */";
};
width = 1850;
}
);
leftKerningGroup = B;
note = M;
rightKerningGroup = Ereversed;
unicode = 004D;
},
{
glyphname = Mturned;
lastChange = "2024-07-06 19:21:01 +0000";
layers = (
{
layerId = "67E838D8-D572-4887-B173-0E3F5AAC2F16";
paths = (
{
closed = 1;
nodes = (
"897.333 102.333 OFFCURVE",
"939.167 52.5 OFFCURVE",
"993.5 23.5 CURVE SMOOTH",
"1047.833 -5.5 OFFCURVE",
"1111 -20 OFFCURVE",
"1183 -20 CURVE SMOOTH",
"1253.667 -20 OFFCURVE",
"1314.5 -7.833 OFFCURVE",
"1365.5 16.5 CURVE SMOOTH",
"1416.5 40.833 OFFCURVE",
"1458.667 75 OFFCURVE",
"1492 119 CURVE",
"1495 60 LINE SMOOTH",
"1497 21 OFFCURVE",
"1532 0 OFFCURVE",
"1596 0 CURVE SMOOTH",
"1659 0 OFFCURVE",
"1693 36 OFFCURVE",
"1693 101 CURVE SMOOTH",
"1693 1389 LINE SMOOTH",
"1693 1454 OFFCURVE",
"1657 1490 OFFCURVE",
"1592 1490 CURVE SMOOTH",
"1588 1490 LINE SMOOTH",
"1523 1490 OFFCURVE",
"1487 1454 OFFCURVE",
"1487 1389 CURVE SMOOTH",
"1487 358 LINE",
"1471.667 300.667 OFFCURVE",
"1443.5 252 OFFCURVE",
"1402.5 212 CURVE SMOOTH",
"1361.5 172 OFFCURVE",
"1300.667 152 OFFCURVE",
"1220 152 CURVE SMOOTH",
"1188.667 152 OFFCURVE",
"1158.667 160 OFFCURVE",
"1130 176 CURVE SMOOTH",
"1101.333 192 OFFCURVE",
"1077.833 221 OFFCURVE",
"1059.5 263 CURVE SMOOTH",
"1041.167 305 OFFCURVE",
"1032 364.333 OFFCURVE",
"1032 441 CURVE SMOOTH",
"1032 1389 LINE SMOOTH",
"1032 1454 OFFCURVE",
"996 1490 OFFCURVE",
"931 1490 CURVE SMOOTH",
"927 1490 LINE SMOOTH",
"862 1490 OFFCURVE",
"826 1454 OFFCURVE",
"826 1389 CURVE SMOOTH",
"826 441 LINE SMOOTH",
"826 412.333 OFFCURVE",
"827 384.667 OFFCURVE",
"829 358 CURVE",
"819.667 322.667 OFFCURVE",
"804.667 289.333 OFFCURVE",
"784 258 CURVE SMOOTH",
"763.333 226.667 OFFCURVE",
"734.667 201.167 OFFCURVE",
"698 181.5 CURVE SMOOTH",
"661.333 161.833 OFFCURVE",
"614.333 152 OFFCURVE",
"557 152 CURVE SMOOTH",
"526.333 152 OFFCURVE",
"497 160 OFFCURVE",
"469 176 CURVE SMOOTH",
"441 192 OFFCURVE",
"418.167 221 OFFCURVE",
"400.5 263 CURVE SMOOTH",
"382.833 305 OFFCURVE",
"374 364.333 OFFCURVE",
"374 441 CURVE SMOOTH",
"374 1389 LINE SMOOTH",
"374 1454 OFFCURVE",
"338 1490 OFFCURVE",
"273 1490 CURVE SMOOTH",
"267 1490 LINE SMOOTH",
"202 1490 OFFCURVE",
"166 1454 OFFCURVE",
"166 1389 CURVE SMOOTH",
"166 441 LINE SMOOTH",
"166 326.333 OFFCURVE",
"180.5 235.333 OFFCURVE",
"209.5 168 CURVE SMOOTH",
"238.5 100.667 OFFCURVE",
"279.667 52.5 OFFCURVE",
"333 23.5 CURVE SMOOTH",
"386.333 -5.5 OFFCURVE",
"449 -20 OFFCURVE",
"521 -20 CURVE SMOOTH",
"605.667 -20 OFFCURVE",
"676.667 -2.667 OFFCURVE",
"734 32 CURVE SMOOTH",
"791.333 66.667 OFFCURVE",
"836 113.667 OFFCURVE",
"868 173 CURVE"
);
}
);
userData = {
assembly = "MPPEM[ ]	/* MeasurePixelPerEm */\012PUSHB[ ]	/* 1 value pushed */\01225 \012LT[ ]	/* LessThan */\012IF[ ]	/* If */\012NPUSHB[ ]	/* 10 values pushed */\01230 1 2 1 35 1 0 2 2 76 \012ELSE[ ]	/* Else */\012NPUSHB[ ]	/* 10 values pushed */\01230 1 2 1 35 1 6 2 2 76 \012EIF[ ]	/* EndIf */\012MPPEM[ ]	/* MeasurePixelPerEm */\012PUSHB[ ]	/* 1 value pushed */\01225 \012LT[ ]	/* LessThan */\012IF[ ]	/* If */\012NPUSHB[ ]	/* 21 values pushed */\0125 3 2 1 1 103 77 4 1 2 2 0 97 7 6 2 0 0 110 0 78 \012ELSE[ ]	/* Else */\012NPUSHB[ ]	/* 25 values pushed */\0125 3 2 1 1 103 77 0 6 6 104 77 4 1 2 2 0 97 7 1 0 0 110 0 78 \012EIF[ ]	/* EndIf */\012NPUSHB[ ]	/* 11 values pushed */\01235 17 19 36 22 36 20 34 8 12 30 \012CALL[ ]	/* CallFunction */";
};
width = 1859;
}
);
note = mcapturn;
unicode = 019C;
},
{
glyphname = N;
lastChange = "2024-07-06 19:21:01 +0000";
layers = (
{
layerId = "67E838D8-D572-4887-B173-0E3F5AAC2F16";
paths = (
{
closed = 1;
nodes = (
"180 101 LINE SMOOTH",
"180 36 OFFCURVE",
"214 0 OFFCURVE",
"276 0 CURVE SMOOTH",
"338 0 OFFCURVE",
"371 36 OFFCURVE",
"371 101 CURVE SMOOTH",
"371 850 LINE SMOOTH",
"371 886 OFFCURVE",
"369.5 939.833 OFFCURVE",
"366.5 1011.5 CURVE SMOOTH",
"363.5 1083.167 OFFCURVE",
"360 1166.667 OFFCURVE",
"356 1262 CURVE",
"455 1086 LINE SMOOTH",
"482.333 1037.333 OFFCURVE",
"507.167 994.333 OFFCURVE",
"529.5 957 CURVE SMOOTH",
"551.833 919.667 OFFCURVE",
"574.333 883.333 OFFCURVE",
"597 848 CURVE SMOOTH",
"1095 67 LINE SMOOTH",
"1124 21 OFFCURVE",
"1161 0 OFFCURVE",
"1216 0 CURVE SMOOTH",
"1262 0 LINE SMOOTH",
"1327 0 OFFCURVE",
"1363 36 OFFCURVE",
"1363 101 CURVE SMOOTH",
"1363 1389 LINE SMOOTH",
"1363 1454 OFFCURVE",
"1329 1490 OFFCURVE",
"1268 1490 CURVE SMOOTH",
"1207 1490 OFFCURVE",
"1173 1454 OFFCURVE",
"1173 1389 CURVE SMOOTH",
"1173 576 LINE SMOOTH",
"1173 536 OFFCURVE",
"1173.667 485.5 OFFCURVE",
"1175 424.5 CURVE SMOOTH",
"1176.333 363.5 OFFCURVE",
"1180 297 OFFCURVE",
"1186 225 CURVE",
"1152 292.333 OFFCURVE",
"1119.167 353.167 OFFCURVE",
"1087.5 407.5 CURVE SMOOTH",
"1055.833 461.833 OFFCURVE",
"1030 505 OFFCURVE",
"1010 537 CURVE SMOOTH",
"446 1423 LINE SMOOTH",
"417 1469 OFFCURVE",
"380 1490 OFFCURVE",
"325 1490 CURVE SMOOTH",
"281 1490 LINE SMOOTH",
"216 1490 OFFCURVE",
"180 1454 OFFCURVE",
"180 1389 CURVE SMOOTH"
);
}
);
userData = {
assembly = "NPUSHB[ ]	/* 33 values pushed */\01218 6 2 2 0 1 76 1 1 0 0 103 77 4 3 2 2 2 104 2 78 0 0 0 22 0 22 17 24 17 5 12 25 \012CALL[ ]	/* CallFunction */";
};
width = 1543;
}
);
leftKerningGroup = B;
note = N;
rightKerningGroup = Ereversed;
unicode = 004E;
},
{
glyphname = Eng;
lastChange = "2024-07-06 19:21:01 +0000";
layers = (
{
layerId = "67E838D8-D572-4887-B173-0E3F5AAC2F16";
paths = (
{
closed = 1;
nodes = (
"1046 -426 OFFCURVE",
"1064 -427 OFFCURVE",
"1083 -427 CURVE SMOOTH",
"1178.333 -427 OFFCURVE",
"1250.667 -405 OFFCURVE",
"1300 -361 CURVE SMOOTH",
"1349.333 -317 OFFCURVE",
"1374 -253.667 OFFCURVE",
"1374 -171 CURVE SMOOTH",
"1374 128 LINE",
"1363 128 LINE",
"1363 1389 LINE SMOOTH",
"1363 1454 OFFCURVE",
"1329 1490 OFFCURVE",
"1268 1490 CURVE SMOOTH",
"1207 1490 OFFCURVE",
"1173 1454 OFFCURVE",
"1173 1389 CURVE SMOOTH",
"1173 576 LINE SMOOTH",
"1173 536 OFFCURVE",
"1173.667 485.5 OFFCURVE",
"1175 424.5 CURVE SMOOTH",
"1176.333 363.5 OFFCURVE",
"1180 297 OFFCURVE",
"1186 225 CURVE",
"1152 292.333 OFFCURVE",
"1119.167 353.167 OFFCURVE",
"1087.5 407.5 CURVE SMOOTH",
"1055.833 461.833 OFFCURVE",
"1030 505 OFFCURVE",
"1010 537 CURVE SMOOTH",
"446 1423 LINE SMOOTH",
"417 1469 OFFCURVE",
"380 1490 OFFCURVE",
"325 1490 CURVE SMOOTH",
"281 1490 LINE SMOOTH",
"216 1490 OFFCURVE",
"180 1454 OFFCURVE",
"180 1389 CURVE SMOOTH",
"180 101 LINE SMOOTH",
"180 36 OFFCURVE",
"214 0 OFFCURVE",
"276 0 CURVE SMOOTH",
"338 0 OFFCURVE",
"371 36 OFFCURVE",
"371 101 CURVE SMOOTH",
"371 850 LINE SMOOTH",
"371 886 OFFCURVE",
"369.5 939.833 OFFCURVE",
"366.5 1011.5 CURVE SMOOTH",
"363.5 1083.167 OFFCURVE",
"360 1166.667 OFFCURVE",
"356 1262 CURVE",
"455 1086 LINE SMOOTH",
"482.333 1037.333 OFFCURVE",
"507.167 994.333 OFFCURVE",
"529.5 957 CURVE SMOOTH",
"551.833 919.667 OFFCURVE",
"574.333 883.333 OFFCURVE",
"597 848 CURVE SMOOTH",
"1095 67 LINE SMOOTH",
"1124 21 OFFCURVE",
"1152 0 OFFCURVE",
"1184 0 CURVE",
"1184 -163 LINE SMOOTH",
"1184 -197.667 OFFCURVE",
"1173.5 -223.167 OFFCURVE",
"1152.5 -239.5 CURVE SMOOTH",
"1131.5 -255.833 OFFCURVE",
"1093.333 -264 OFFCURVE",
"1038 -264 CURVE",
"1011.5 -263 LINE SMOOTH",
"1006 -263 OFFCURVE",
"1001 -262 OFFCURVE",
"995 -261 CURVE SMOOTH",
"985 -260 OFFCURVE",
"979 -288 OFFCURVE",
"979 -339 CURVE SMOOTH",
"979 -391 OFFCURVE",
"996 -423 OFFCURVE",
"1031 -425 CURVE SMOOTH"
);
}
);
userData = {
assembly = "NPUSHB[ ]	/* 47 values pushed */\01225 14 2 1 3 1 1 0 1 0 1 5 0 3 76 4 1 3 3 103 77 2 1 1 1 104 77 0 0 0 5 97 0 5 5 114 5 78 37 24 17 25 19 50 6 12 28 \012CALL[ ]	/* CallFunction */";
};
width = 1543;
}
);
leftKerningGroup = B;
note = Eng;
rightKerningGroup = Ereversed;
unicode = 014A;
},
{
glyphname = Nhookleft;
lastChange = "2024-07-06 19:21:01 +0000";
layers = (
{
layerId = "67E838D8-D572-4887-B173-0E3F5AAC2F16";
paths = (
{
closed = 1;
nodes = (
"42 -426 OFFCURVE",
"60 -427 OFFCURVE",
"79 -427 CURVE SMOOTH",
"174.333 -427 OFFCURVE",
"246.667 -405 OFFCURVE",
"296 -361 CURVE SMOOTH",
"345.333 -317 OFFCURVE",
"370 -253.667 OFFCURVE",
"370 -171 CURVE SMOOTH",
"370 0 LINE",
"371 0 OFFCURVE",
"371 15 OFFCURVE",
"371 58 CURVE SMOOTH",
"371 850 LINE SMOOTH",
"371 886 OFFCURVE",
"369.5 939.833 OFFCURVE",
"366.5 1011.5 CURVE SMOOTH",
"363.5 1083.167 OFFCURVE",
"360 1166.667 OFFCURVE",
"356 1262 CURVE",
"455 1086 LINE SMOOTH",
"482.333 1037.333 OFFCURVE",
"507.167 994.333 OFFCURVE",
"529.5 957 CURVE SMOOTH",
"551.833 919.667 OFFCURVE",
"574.333 883.333 OFFCURVE",
"597 848 CURVE SMOOTH",
"1095 67 LINE SMOOTH",
"1124 21 OFFCURVE",
"1161 0 OFFCURVE",
"1216 0 CURVE SMOOTH",
"1262 0 LINE SMOOTH",
"1327 0 OFFCURVE",
"1363 36 OFFCURVE",
"1363 101 CURVE SMOOTH",
"1363 1389 LINE SMOOTH",
"1363 1454 OFFCURVE",
"1329 1490 OFFCURVE",
"1268 1490 CURVE SMOOTH",
"1207 1490 OFFCURVE",
"1173 1454 OFFCURVE",
"1173 1389 CURVE SMOOTH",
"1173 576 LINE SMOOTH",
"1173 536 OFFCURVE",
"1173.667 485.5 OFFCURVE",
"1175 424.5 CURVE SMOOTH",
"1176.333 363.5 OFFCURVE",
"1180 297 OFFCURVE",
"1186 225 CURVE",
"1152 292.333 OFFCURVE",
"1119.167 353.167 OFFCURVE",
"1087.5 407.5 CURVE SMOOTH",
"1055.833 461.833 OFFCURVE",
"1030 505 OFFCURVE",
"1010 537 CURVE SMOOTH",
"446 1423 LINE SMOOTH",
"417 1469 OFFCURVE",
"380 1490 OFFCURVE",
"325 1490 CURVE SMOOTH",
"281 1490 LINE SMOOTH",
"216 1490 OFFCURVE",
"180 1454 OFFCURVE",
"180 1389 CURVE SMOOTH",
"180 -163 LINE SMOOTH",
"180 -197.667 OFFCURVE",
"169.5 -223.167 OFFCURVE",
"148.5 -239.5 CURVE SMOOTH",
"127.5 -255.833 OFFCURVE",
"89.333 -264 OFFCURVE",
"34 -264 CURVE",
"7.5 -263 LINE SMOOTH",
"2 -263 OFFCURVE",
"-3 -262 OFFCURVE",
"-9 -261 CURVE SMOOTH",
"-19 -260 OFFCURVE",
"-25 -288 OFFCURVE",
"-25 -339 CURVE SMOOTH",
"-25 -391 OFFCURVE",
"-8 -423 OFFCURVE",
"27 -425 CURVE SMOOTH"
);
}
);
userData = {
assembly = "NPUSHB[ ]	/* 45 values pushed */\01225 13 2 3 1 1 1 0 3 0 1 4 0 3 76 2 1 1 1 103 77 0 3 3 104 77 0 0 0 4 97 0 4 4 114 4 78 45 17 24 19 50 5 12 27 \012CALL[ ]	/* CallFunction */";
};
width = 1543;
}
);
leftKerningGroup = Fhook;
note = Nhook;
rightKerningGroup = Ereversed;
unicode = 019D;
},
{
glyphname = Nlongrightleg;
lastChange = "2024-07-06 19:21:01 +0000";
layers = (
{
layerId = "67E838D8-D572-4887-B173-0E3F5AAC2F16";
paths = (
{
closed = 1;
nodes = (
"1078 -416 LINE SMOOTH",
"1143 -416 OFFCURVE",
"1179 -380 OFFCURVE",
"1179 -315 CURVE SMOOTH",
"1179 1021 LINE SMOOTH",
"1179 1129.667 OFFCURVE",
"1154.167 1220.167 OFFCURVE",
"1104.5 1292.5 CURVE SMOOTH",
"1054.833 1364.833 OFFCURVE",
"989.833 1419.167 OFFCURVE",
"909.5 1455.5 CURVE SMOOTH",
"829.167 1491.833 OFFCURVE",
"743 1510 OFFCURVE",
"651 1510 CURVE SMOOTH",
"588.333 1510 OFFCURVE",
"529.5 1502.5 OFFCURVE",
"474.5 1487.5 CURVE SMOOTH",
"419.5 1472.5 OFFCURVE",
"370 1453.333 OFFCURVE",
"326 1430 CURVE",
"326 1460 LINE SMOOTH",
"326 1479 OFFCURVE",
"290 1490 OFFCURVE",
"225 1490 CURVE SMOOTH",
"221 1490 LINE SMOOTH",
"156 1490 OFFCURVE",
"120 1454 OFFCURVE",
"120 1389 CURVE SMOOTH",
"120 101 LINE SMOOTH",
"120 36 OFFCURVE",
"156 0 OFFCURVE",
"221 0 CURVE SMOOTH",
"225 0 LINE SMOOTH",
"290 0 OFFCURVE",
"326 36 OFFCURVE",
"326 101 CURVE SMOOTH",
"326 1262 LINE",
"369.333 1286 OFFCURVE",
"416.833 1304.667 OFFCURVE",
"468.5 1318 CURVE SMOOTH",
"520.167 1331.333 OFFCURVE",
"574.667 1338 OFFCURVE",
"632 1338 CURVE SMOOTH",
"739.333 1338 OFFCURVE",
"822.333 1312.833 OFFCURVE",
"881 1262.5 CURVE SMOOTH",
"939.667 1212.167 OFFCURVE",
"969 1131.667 OFFCURVE",
"969 1021 CURVE SMOOTH",
"969 -315 LINE SMOOTH",
"969 -380 OFFCURVE",
"1005 -416 OFFCURVE",
"1070 -416 CURVE SMOOTH"
);
}
);
userData = {
assembly = "NPUSHB[ ]	/* 10 values pushed */\01213 1 1 3 8 1 2 1 2 76 \012MPPEM[ ]	/* MeasurePixelPerEm */\012PUSHB[ ]	/* 1 value pushed */\01225 \012LT[ ]	/* LessThan */\012IF[ ]	/* If */\012NPUSHB[ ]	/* 22 values pushed */\0120 1 1 3 97 4 1 3 3 103 77 0 2 2 104 77 0 0 0 108 0 78 \012ELSE[ ]	/* Else */\012NPUSHB[ ]	/* 26 values pushed */\0120 3 3 103 77 0 1 1 4 97 0 4 4 109 77 0 2 2 104 77 0 0 0 108 0 78 \012EIF[ ]	/* EndIf */\012PUSHB[ ]	/* 8 values pushed */\01235 17 19 35 16 5 12 27 \012CALL[ ]	/* CallFunction */";
};
width = 1295;
}
);
note = uni0220;
unicode = 0220;
},
{
glyphname = O;
lastChange = "2024-07-06 19:21:01 +0000";
layers = (
{
layerId = "67E838D8-D572-4887-B173-0E3F5AAC2F16";
paths = (
{
closed = 1;
nodes = (
"911.333 -20 OFFCURVE",
"1024.667 10.833 OFFCURVE",
"1124 72.5 CURVE SMOOTH",
"1223.333 134.167 OFFCURVE",
"1301.5 222.167 OFFCURVE",
"1358.5 336.5 CURVE SMOOTH",
"1415.5 450.833 OFFCURVE",
"1444 586.667 OFFCURVE",
"1444 744 CURVE SMOOTH",
"1444 902 OFFCURVE",
"1415.5 1038.167 OFFCURVE",
"1358.5 1152.5 CURVE SMOOTH",
"1301.5 1266.833 OFFCURVE",
"1223.333 1355 OFFCURVE",
"1124 1417 CURVE SMOOTH",
"1024.667 1479 OFFCURVE",
"911.333 1510 OFFCURVE",
"784 1510 CURVE SMOOTH",
"656.667 1510 OFFCURVE",
"543.167 1479 OFFCURVE",
"443.5 1417 CURVE SMOOTH",
"343.833 1355 OFFCURVE",
"265.333 1266.833 OFFCURVE",
"208 1152.5 CURVE SMOOTH",
"150.667 1038.167 OFFCURVE",
"122 902 OFFCURVE",
"122 744 CURVE SMOOTH",
"122 586.667 OFFCURVE",
"150.667 450.833 OFFCURVE",
"208 336.5 CURVE SMOOTH",
"265.333 222.167 OFFCURVE",
"343.833 134.167 OFFCURVE",
"443.5 72.5 CURVE SMOOTH",
"543.167 10.833 OFFCURVE",
"656.667 -20 OFFCURVE",
"784 -20 CURVE SMOOTH"
);
},
{
closed = 1;
nodes = (
"694.667 156 OFFCURVE",
"614 178.667 OFFCURVE",
"542 224 CURVE SMOOTH",
"470 269.333 OFFCURVE",
"412.833 335.667 OFFCURVE",
"370.5 423 CURVE SMOOTH",
"328.167 510.333 OFFCURVE",
"307 617.333 OFFCURVE",
"307 744 CURVE SMOOTH",
"307 871.333 OFFCURVE",
"328.167 978.833 OFFCURVE",
"370.5 1066.5 CURVE SMOOTH",
"412.833 1154.167 OFFCURVE",
"470 1220.667 OFFCURVE",
"542 1266 CURVE SMOOTH",
"614 1311.333 OFFCURVE",
"694.667 1334 OFFCURVE",
"784 1334 CURVE SMOOTH",
"872.667 1334 OFFCURVE",
"952.833 1311.5 OFFCURVE",
"1024.5 1266.5 CURVE SMOOTH",
"1096.167 1221.5 OFFCURVE",
"1153.167 1155.167 OFFCURVE",
"1195.5 1067.5 CURVE SMOOTH",
"1237.833 979.833 OFFCURVE",
"1259 872 OFFCURVE",
"1259 744 CURVE SMOOTH",
"1259 617.333 OFFCURVE",
"1237.833 510.167 OFFCURVE",
"1195.5 422.5 CURVE SMOOTH",
"1153.167 334.833 OFFCURVE",
"1096.167 268.5 OFFCURVE",
"1024.5 223.5 CURVE SMOOTH",
"952.833 178.5 OFFCURVE",
"872.667 156 OFFCURVE",
"784 156 CURVE SMOOTH"
);
}
);
userData = {
assembly = "NPUSHB[ ]	/* 42 values pushed */\0120 3 3 1 97 0 1 1 109 77 5 1 2 2 0 97 4 1 0 0 110 0 78 17 16 1 0 25 23 16 31 17 31 9 7 0 15 1 15 6 12 22 \012CALL[ ]	/* CallFunction */";
};
width = 1566;
}
);
leftKerningGroup = C;
note = O;
rightKerningGroup = Oopen;
unicode = 004F;
},
{
glyphname = OU;
lastChange = "2024-07-06 19:21:01 +0000";
layers = (
{
layerId = "67E838D8-D572-4887-B173-0E3F5AAC2F16";
paths = (
{
closed = 1;
nodes = (
"568.667 901 OFFCURVE",
"513.833 906.167 OFFCURVE",
"463.5 916.5 CURVE SMOOTH",
"413.167 926.833 OFFCURVE",
"372.833 948.167 OFFCURVE",
"342.5 980.5 CURVE SMOOTH",
"312.167 1012.833 OFFCURVE",
"297 1061.667 OFFCURVE",
"297 1127 CURVE SMOOTH",
"297 1189 OFFCURVE",
"312 1237.167 OFFCURVE",
"342 1271.5 CURVE SMOOTH",
"358 1290 OFFCURVE",
"379 1306 OFFCURVE",
"405 1319 CURVE SMOOTH",
"454 1344 OFFCURVE",
"481 1373 OFFCURVE",
"481 1428 CURVE SMOOTH",
"481 1480 OFFCURVE",
"441 1511 OFFCURVE",
"373 1495 CURVE SMOOTH",
"340 1487 OFFCURVE",
"309 1476 OFFCURVE",
"279.5 1462 CURVE SMOOTH",
"219.167 1433.333 OFFCURVE",
"171.167 1391.333 OFFCURVE",
"135.5 1336 CURVE SMOOTH",
"99.833 1280.667 OFFCURVE",
"82 1211 OFFCURVE",
"82 1127 CURVE SMOOTH",
"82 1043 OFFCURVE",
"100.333 974.5 OFFCURVE",
"137 921.5 CURVE SMOOTH",
"173.667 868.5 OFFCURVE",
"222.333 828 OFFCURVE",
"283 800 CURVE",
"221 762.667 OFFCURVE",
"172 713.667 OFFCURVE",
"136 653 CURVE SMOOTH",
"100 592.333 OFFCURVE",
"82 520 OFFCURVE",
"82 436 CURVE SMOOTH",
"82 334 OFFCURVE",
"106.5 249.333 OFFCURVE",
"155.5 182 CURVE SMOOTH",
"204.5 114.667 OFFCURVE",
"270.667 64.167 OFFCURVE",
"354 30.5 CURVE SMOOTH",
"437.333 -3.167 OFFCURVE",
"531 -20 OFFCURVE",
"635 -20 CURVE SMOOTH",
"659 -20 LINE SMOOTH",
"763.667 -20 OFFCURVE",
"857.667 -3.167 OFFCURVE",
"941 30.5 CURVE SMOOTH",
"1024.333 64.167 OFFCURVE",
"1090.333 114.833 OFFCURVE",
"1139 182.5 CURVE SMOOTH",
"1187.667 250.167 OFFCURVE",
"1212 335.333 OFFCURVE",
"1212 438 CURVE SMOOTH",
"1212 521.333 OFFCURVE",
"1194 593.333 OFFCURVE",
"1158 654 CURVE SMOOTH",
"1122 714.667 OFFCURVE",
"1073 763.333 OFFCURVE",
"1011 800 CURVE",
"1072.333 828.667 OFFCURVE",
"1121.333 869.333 OFFCURVE",
"1158 922 CURVE SMOOTH",
"1194.667 974.667 OFFCURVE",
"1213 1043 OFFCURVE",
"1213 1127 CURVE SMOOTH",
"1213 1211 OFFCURVE",
"1195.333 1280.667 OFFCURVE",
"1160 1336 CURVE SMOOTH",
"1124.667 1391.333 OFFCURVE",
"1076.833 1433.333 OFFCURVE",
"1016.5 1462 CURVE SMOOTH",
"985 1477 OFFCURVE",
"952 1488 OFFCURVE",
"917 1496 CURVE SMOOTH",
"852 1511 OFFCURVE",
"813 1480 OFFCURVE",
"813 1428 CURVE SMOOTH",
"813 1373 OFFCURVE",
"842 1344 OFFCURVE",
"894 1316 CURVE SMOOTH",
"917 1304 OFFCURVE",
"936 1290 OFFCURVE",
"951.5 1273 CURVE SMOOTH",
"982.5 1239 OFFCURVE",
"998 1190.333 OFFCURVE",
"998 1127 CURVE SMOOTH",
"998 1061.667 OFFCURVE",
"983 1012.833 OFFCURVE",
"953 980.5 CURVE SMOOTH",
"923 948.167 OFFCURVE",
"883 926.833 OFFCURVE",
"833 916.5 CURVE SMOOTH",
"783 906.167 OFFCURVE",
"727.667 901 OFFCURVE",
"667 901 CURVE SMOOTH",
"628 901 LINE SMOOTH"
);
},
{
closed = 1;
nodes = (
"761 722 OFFCURVE",
"843 698.667 OFFCURVE",
"905 652 CURVE SMOOTH",
"967 605.333 OFFCURVE",
"998 534 OFFCURVE",
"998 438 CURVE SMOOTH",
"998 340 OFFCURVE",
"967 268.833 OFFCURVE",
"905 224.5 CURVE SMOOTH",
"843 180.167 OFFCURVE",
"761 158 OFFCURVE",
"659 158 CURVE SMOOTH",
"635 158 LINE SMOOTH",
"533 158 OFFCURVE",
"451.167 180.167 OFFCURVE",
"389.5 224.5 CURVE SMOOTH",
"327.833 268.833 OFFCURVE",
"297 339.333 OFFCURVE",
"297 436 CURVE SMOOTH",
"297 533.333 OFFCURVE",
"327.833 605.333 OFFCURVE",
"389.5 652 CURVE SMOOTH",
"451.167 698.667 OFFCURVE",
"533 722 OFFCURVE",
"635 722 CURVE SMOOTH",
"659 722 LINE SMOOTH"
);
}
);
userData = {
assembly = "NPUSHB[ ]	/* 62 values pushed */\01239 8 2 0 1 31 16 2 4 0 2 76 6 1 0 7 1 4 5 0 4 105 3 1 1 1 109 77 0 5 5 2 97 0 2 2 110 2 78 48 46 2 0 55 52 46 59 48 59 38 37 25 22 10 9 0 45 2 45 8 12 22 \012CALL[ ]	/* CallFunction */";
};
width = 1295;
}
);
note = uni0222;
unicode = 0222;
},
{
glyphname = Ohorn;
lastChange = "2024-07-06 19:21:01 +0000";
layers = (
{
layerId = "67E838D8-D572-4887-B173-0E3F5AAC2F16";
paths = (
{
closed = 1;
nodes = (
"911.333 -20 OFFCURVE",
"1024.667 10.833 OFFCURVE",
"1124 72.5 CURVE SMOOTH",
"1223.333 134.167 OFFCURVE",
"1301.5 222.167 OFFCURVE",
"1358.5 336.5 CURVE SMOOTH",
"1415.5 450.833 OFFCURVE",
"1444 586.667 OFFCURVE",
"1444 744 CURVE SMOOTH",
"1444 876.667 OFFCURVE",
"1423.5 994.333 OFFCURVE",
"1382.5 1097 CURVE SMOOTH",
"1341.5 1199.667 OFFCURVE",
"1285 1284 OFFCURVE",
"1213 1350 CURVE",
"1232.333 1347.333 OFFCURVE",
"1250.667 1346 OFFCURVE",
"1268 1346 CURVE SMOOTH",
"1381.333 1346 OFFCURVE",
"1438 1402.667 OFFCURVE",
"1438 1516 CURVE SMOOTH",
"1438 1597 LINE SMOOTH",
"1438 1662 OFFCURVE",
"1408 1698 OFFCURVE",
"1353 1698 CURVE SMOOTH",
"1298 1698 OFFCURVE",
"1268 1662 OFFCURVE",
"1268 1597 CURVE SMOOTH",
"1268 1508 LINE SMOOTH",
"1268 1496 OFFCURVE",
"1262 1490 OFFCURVE",
"1250 1490 CURVE SMOOTH",
"1167.333 1490 OFFCURVE",
"1103.167 1491 OFFCURVE",
"1057.5 1493 CURVE SMOOTH",
"1011.833 1495 OFFCURVE",
"976.167 1497.167 OFFCURVE",
"950.5 1499.5 CURVE SMOOTH",
"879 1506.5 LINE SMOOTH",
"857 1508.833 OFFCURVE",
"827.667 1510 OFFCURVE",
"791 1510 CURVE SMOOTH",
"784 1510 LINE SMOOTH",
"783.333 1510 OFFCURVE",
"782.667 1510 OFFCURVE",
"782 1510 CURVE SMOOTH",
"780 1510 LINE SMOOTH",
"653.333 1509.333 OFFCURVE",
"540.5 1478 OFFCURVE",
"441.5 1416 CURVE SMOOTH",
"342.5 1354 OFFCURVE",
"264.5 1265.833 OFFCURVE",
"207.5 1151.5 CURVE SMOOTH",
"150.5 1037.167 OFFCURVE",
"122 901.333 OFFCURVE",
"122 744 CURVE SMOOTH",
"122 586.667 OFFCURVE",
"150.667 450.833 OFFCURVE",
"208 336.5 CURVE SMOOTH",
"265.333 222.167 OFFCURVE",
"343.833 134.167 OFFCURVE",
"443.5 72.5 CURVE SMOOTH",
"543.167 10.833 OFFCURVE",
"656.667 -20 OFFCURVE",
"784 -20 CURVE SMOOTH"
);
},
{
closed = 1;
nodes = (
"694.667 156 OFFCURVE",
"614 178.667 OFFCURVE",
"542 224 CURVE SMOOTH",
"470 269.333 OFFCURVE",
"412.833 335.667 OFFCURVE",
"370.5 423 CURVE SMOOTH",
"328.167 510.333 OFFCURVE",
"307 617.333 OFFCURVE",
"307 744 CURVE SMOOTH",
"307 871.333 OFFCURVE",
"328.167 978.833 OFFCURVE",
"370.5 1066.5 CURVE SMOOTH",
"412.833 1154.167 OFFCURVE",
"470 1220.667 OFFCURVE",
"542 1266 CURVE SMOOTH",
"614 1311.333 OFFCURVE",
"694.667 1334 OFFCURVE",
"784 1334 CURVE SMOOTH",
"872.667 1334 OFFCURVE",
"952.833 1311.5 OFFCURVE",
"1024.5 1266.5 CURVE SMOOTH",
"1096.167 1221.5 OFFCURVE",
"1153.167 1155.167 OFFCURVE",
"1195.5 1067.5 CURVE SMOOTH",
"1237.833 979.833 OFFCURVE",
"1259 872 OFFCURVE",
"1259 744 CURVE SMOOTH",
"1259 617.333 OFFCURVE",
"1237.833 510.167 OFFCURVE",
"1195.5 422.5 CURVE SMOOTH",
"1153.167 334.833 OFFCURVE",
"1096.167 268.5 OFFCURVE",
"1024.5 223.5 CURVE SMOOTH",
"952.833 178.5 OFFCURVE",
"872.667 156 OFFCURVE",
"784 156 CURVE SMOOTH"
);
}
);
userData = {
assembly = "MPPEM[ ]	/* MeasurePixelPerEm */\012PUSHB[ ]	/* 1 value pushed */\01232 \012LT[ ]	/* LessThan */\012IF[ ]	/* If */\012PUSHB[ ]	/* 7 values pushed */\01229 22 2 4 1 1 76 \012ELSE[ ]	/* Else */\012NPUSHB[ ]	/* 10 values pushed */\01222 1 2 1 29 1 4 2 2 76 \012EIF[ ]	/* EndIf */\012MPPEM[ ]	/* MeasurePixelPerEm */\012PUSHB[ ]	/* 1 value pushed */\01232 \012LT[ ]	/* LessThan */\012IF[ ]	/* If */\012NPUSHB[ ]	/* 31 values pushed */\0120 3 1 4 3 87 6 1 4 4 1 97 2 1 1 1 109 77 8 1 5 5 0 97 7 1 0 0 110 0 78 \012ELSE[ ]	/* Else */\012MPPEM[ ]	/* MeasurePixelPerEm */\012PUSHB[ ]	/* 1 value pushed */\01241 \012LT[ ]	/* LessThan */\012IF[ ]	/* If */\012NPUSHB[ ]	/* 35 values pushed */\0120 3 1 4 3 87 0 2 2 103 77 6 1 4 4 1 97 0 1 1 109 77 8 1 5 5 0 97 7 1 0 0 110 0 78 \012ELSE[ ]	/* Else */\012NPUSHB[ ]	/* 36 values pushed */\0120 3 0 4 6 3 4 105 0 2 2 103 77 0 6 6 1 97 0 1 1 109 77 8 1 5 5 0 97 7 1 0 0 110 0 78 \012EIF[ ]	/* EndIf */\012EIF[ ]	/* EndIf */\012NPUSHB[ ]	/* 25 values pushed */\01237 36 1 0 45 43 36 51 37 51 28 26 24 23 20 18 16 7 0 35 1 35 9 12 22 \012CALL[ ]	/* CallFunction */";
};
width = 1560;
}
);
leftKerningGroup = C;
note = Ohorn;
rightKerningGroup = Ohorn;
unicode = 01A0;
},
{
glyphname = Oi;
lastChange = "2024-07-06 19:21:01 +0000";
layers = (
{
layerId = "67E838D8-D572-4887-B173-0E3F5AAC2F16";
paths = (
{
closed = 1;
nodes = (
"1604 1389 LINE SMOOTH",
"1604 1454 OFFCURVE",
"1570 1490 OFFCURVE",
"1508 1490 CURVE SMOOTH",
"1461 1490 OFFCURVE",
"1427 1483 OFFCURVE",
"1384 1465 CURVE SMOOTH",
"1174 1379 LINE",
"1124 1419 OFFCURVE",
"1063.333 1450.833 OFFCURVE",
"992 1474.5 CURVE SMOOTH",
"920.667 1498.167 OFFCURVE",
"844.667 1510 OFFCURVE",
"764 1510 CURVE SMOOTH",
"630 1510 OFFCURVE",
"515.167 1482.167 OFFCURVE",
"419.5 1426.5 CURVE SMOOTH",
"323.833 1370.833 OFFCURVE",
"250.333 1290.833 OFFCURVE",
"199 1186.5 CURVE SMOOTH",
"147.667 1082.167 OFFCURVE",
"122 957 OFFCURVE",
"122 811 CURVE SMOOTH",
"122 679 LINE SMOOTH",
"122 535.667 OFFCURVE",
"146.833 411.667 OFFCURVE",
"196.5 307 CURVE SMOOTH",
"246.167 202.333 OFFCURVE",
"317.667 121.667 OFFCURVE",
"411 65 CURVE SMOOTH",
"504.333 8.333 OFFCURVE",
"616.333 -20 OFFCURVE",
"747 -20 CURVE SMOOTH",
"857.667 -20 OFFCURVE",
"958.5 -0.833 OFFCURVE",
"1049.5 37.5 CURVE SMOOTH",
"1115 65 OFFCURVE",
"1168 100 OFFCURVE",
"1210 143 CURVE SMOOTH",
"1244 180 OFFCURVE",
"1253 217 OFFCURVE",
"1253 266 CURVE SMOOTH",
"1253 1227 LINE",
"1396 1280 LINE",
"1396 -317 LINE SMOOTH",
"1396 -382 OFFCURVE",
"1432 -418 OFFCURVE",
"1497 -418 CURVE SMOOTH",
"1503 -418 LINE SMOOTH",
"1568 -418 OFFCURVE",
"1604 -382 OFFCURVE",
"1604 -317 CURVE SMOOTH"
);
},
{
closed = 1;
nodes = (
"337 811 LINE SMOOTH",
"337 982.333 OFFCURVE",
"372.833 1112.667 OFFCURVE",
"444.5 1202 CURVE SMOOTH",
"516.167 1291.333 OFFCURVE",
"622.333 1336 OFFCURVE",
"763 1336 CURVE SMOOTH",
"821 1336 OFFCURVE",
"875.667 1327 OFFCURVE",
"927 1309 CURVE SMOOTH",
"978.333 1291 OFFCURVE",
"1018.333 1265.333 OFFCURVE",
"1047 1232 CURVE",
"1047 254 LINE",
"1016.333 221.333 OFFCURVE",
"975.833 196.167 OFFCURVE",
"925.5 178.5 CURVE SMOOTH",
"875.167 160.833 OFFCURVE",
"819.667 152 OFFCURVE",
"759 152 CURVE SMOOTH",
"618.333 152 OFFCURVE",
"512.833 198.333 OFFCURVE",
"442.5 291 CURVE SMOOTH",
"372.167 383.667 OFFCURVE",
"337 513 OFFCURVE",
"337 679 CURVE SMOOTH"
);
}
);
userData = {
assembly = "MPPEM[ ]	/* MeasurePixelPerEm */\012PUSHB[ ]	/* 1 value pushed */\01225 \012LT[ ]	/* LessThan */\012IF[ ]	/* If */\012NPUSHB[ ]	/* 14 values pushed */\01220 1 5 2 30 29 5 4 3 5 4 5 2 76 \012ELSE[ ]	/* Else */\012NPUSHB[ ]	/* 14 values pushed */\01220 1 5 3 30 29 5 4 3 5 4 5 2 76 \012EIF[ ]	/* EndIf */\012MPPEM[ ]	/* MeasurePixelPerEm */\012PUSHB[ ]	/* 1 value pushed */\01225 \012LT[ ]	/* LessThan */\012IF[ ]	/* If */\012NPUSHB[ ]	/* 28 values pushed */\0120 5 5 2 97 6 3 2 2 2 109 77 0 4 4 1 97 0 1 1 110 77 0 0 0 108 0 78 \012ELSE[ ]	/* Else */\012NPUSHB[ ]	/* 32 values pushed */\0126 1 3 3 103 77 0 5 5 2 97 0 2 2 109 77 0 4 4 1 97 0 1 1 110 77 0 0 0 108 0 78 \012EIF[ ]	/* EndIf */\012NPUSHB[ ]	/* 16 values pushed */\0120 0 34 32 27 25 0 21 0 21 39 37 17 7 12 25 \012CALL[ ]	/* CallFunction */";
};
width = 1784;
}
);
note = OI;
unicode = 01A2;
},
{
glyphname = Oopen;
lastChange = "2024-07-06 19:21:01 +0000";
layers = (
{
layerId = "67E838D8-D572-4887-B173-0E3F5AAC2F16";
paths = (
{
closed = 1;
nodes = (
"611.667 1510 OFFCURVE",
"518.667 1490.333 OFFCURVE",
"434 1451 CURVE SMOOTH",
"349.333 1411.667 OFFCURVE",
"278.833 1355.5 OFFCURVE",
"222.5 1282.5 CURVE SMOOTH",
"188 1238 OFFCURVE",
"161 1189 OFFCURVE",
"141 1134 CURVE SMOOTH",
"117 1065 OFFCURVE",
"151 1021 OFFCURVE",
"214 1021 CURVE SMOOTH",
"273 1021 OFFCURVE",
"304 1049 OFFCURVE",
"328 1105 CURVE SMOOTH",
"343 1138 OFFCURVE",
"361 1167 OFFCURVE",
"383.5 1192.5 CURVE SMOOTH",
"423.833 1238.833 OFFCURVE",
"472.667 1274 OFFCURVE",
"530 1298 CURVE SMOOTH",
"587.333 1322 OFFCURVE",
"648.333 1334 OFFCURVE",
"713 1334 CURVE SMOOTH",
"802.333 1334 OFFCURVE",
"882.833 1311.5 OFFCURVE",
"954.5 1266.5 CURVE SMOOTH",
"1026.167 1221.5 OFFCURVE",
"1083.167 1155.333 OFFCURVE",
"1125.5 1068 CURVE SMOOTH",
"1167.833 980.667 OFFCURVE",
"1189 873.333 OFFCURVE",
"1189 746 CURVE SMOOTH",
"1189 618.667 OFFCURVE",
"1168 511.167 OFFCURVE",
"1126 423.5 CURVE SMOOTH",
"1084 335.833 OFFCURVE",
"1027 269.333 OFFCURVE",
"955 224 CURVE SMOOTH",
"883 178.667 OFFCURVE",
"802.333 156 OFFCURVE",
"713 156 CURVE SMOOTH",
"648.333 156 OFFCURVE",
"587.333 167.833 OFFCURVE",
"530 191.5 CURVE SMOOTH",
"472.667 215.167 OFFCURVE",
"423.833 250.333 OFFCURVE",
"383.5 297 CURVE SMOOTH",
"361 323 OFFCURVE",
"343 352 OFFCURVE",
"328 385 CURVE SMOOTH",
"304 441 OFFCURVE",
"273 469 OFFCURVE",
"214 469 CURVE SMOOTH",
"207 469 LINE SMOOTH",
"149 469 OFFCURVE",
"117 425 OFFCURVE",
"142 356 CURVE SMOOTH",
"162 301 OFFCURVE",
"190 251 OFFCURVE",
"224 206.5 CURVE SMOOTH",
"280.667 133.5 OFFCURVE",
"351.167 77.5 OFFCURVE",
"435.5 38.5 CURVE SMOOTH",
"519.833 -0.5 OFFCURVE",
"612.333 -20 OFFCURVE",
"713 -20 CURVE SMOOTH",
"840.333 -20 OFFCURVE",
"953.833 11 OFFCURVE",
"1053.5 73 CURVE SMOOTH",
"1153.167 135 OFFCURVE",
"1231.5 223.333 OFFCURVE",
"1288.5 338 CURVE SMOOTH",
"1345.5 452.667 OFFCURVE",
"1374 588.667 OFFCURVE",
"1374 746 CURVE SMOOTH",
"1374 903.333 OFFCURVE",
"1345.5 1039.167 OFFCURVE",
"1288.5 1153.5 CURVE SMOOTH",
"1231.5 1267.833 OFFCURVE",
"1153.167 1355.833 OFFCURVE",
"1053.5 1417.5 CURVE SMOOTH",
"953.833 1479.167 OFFCURVE",
"840.333 1510 OFFCURVE",
"713 1510 CURVE SMOOTH"
);
}
);
userData = {
assembly = "NPUSHB[ ]	/* 56 values pushed */\0120 5 4 2 4 5 2 128 0 2 3 4 2 3 126 0 4 4 0 97 6 1 0 0 109 77 0 3 3 1 97 0 1 1 110 1 78 1 0 30 29 26 24 18 16 13 12 9 7 0 33 1 33 7 12 22 \012CALL[ ]	/* CallFunction */";
};
width = 1496;
}
);
leftKerningGroup = C;
note = uni0186;
rightKerningGroup = Oopen;
unicode = 0186;
},
{
glyphname = OE;
lastChange = "2024-07-06 19:21:01 +0000";
layers = (
{
layerId = "67E838D8-D572-4887-B173-0E3F5AAC2F16";
paths = (
{
closed = 1;
nodes = (
"1823 0 LINE SMOOTH",
"1888 0 OFFCURVE",
"1924 30 OFFCURVE",
"1924 84 CURVE SMOOTH",
"1924 138 OFFCURVE",
"1888 168 OFFCURVE",
"1823 168 CURVE SMOOTH",
"1197 168 LINE",
"1197 668 LINE",
"1765 668 LINE SMOOTH",
"1830 668 OFFCURVE",
"1866 698 OFFCURVE",
"1866 752 CURVE SMOOTH",
"1866 806 OFFCURVE",
"1830 836 OFFCURVE",
"1765 836 CURVE SMOOTH",
"1197 836 LINE",
"1197 1322 LINE",
"1814 1322 LINE SMOOTH",
"1879 1322 OFFCURVE",
"1915 1352 OFFCURVE",
"1915 1406 CURVE SMOOTH",
"1915 1460 OFFCURVE",
"1879 1490 OFFCURVE",
"1814 1490 CURVE SMOOTH",
"791 1490 LINE SMOOTH",
"660.333 1490 OFFCURVE",
"544.667 1459 OFFCURVE",
"444 1397 CURVE SMOOTH",
"343.333 1335 OFFCURVE",
"264.5 1248.167 OFFCURVE",
"207.5 1136.5 CURVE SMOOTH",
"150.5 1024.833 OFFCURVE",
"122 894 OFFCURVE",
"122 744 CURVE SMOOTH",
"122 596 OFFCURVE",
"150.5 466.167 OFFCURVE",
"207.5 354.5 CURVE SMOOTH",
"264.5 242.833 OFFCURVE",
"343.333 155.833 OFFCURVE",
"444 93.5 CURVE SMOOTH",
"544.667 31.167 OFFCURVE",
"660.333 0 OFFCURVE",
"791 0 CURVE SMOOTH"
);
},
{
closed = 1;
nodes = (
"1007 168 LINE",
"791 168 LINE SMOOTH",
"695 168 OFFCURVE",
"610.667 191.833 OFFCURVE",
"538 239.5 CURVE SMOOTH",
"465.333 287.167 OFFCURVE",
"408.667 354.167 OFFCURVE",
"368 440.5 CURVE SMOOTH",
"327.333 526.833 OFFCURVE",
"307 628 OFFCURVE",
"307 744 CURVE SMOOTH",
"307 862 OFFCURVE",
"327.333 964.167 OFFCURVE",
"368 1050.5 CURVE SMOOTH",
"408.667 1136.833 OFFCURVE",
"465.333 1203.667 OFFCURVE",
"538 1251 CURVE SMOOTH",
"610.667 1298.333 OFFCURVE",
"695 1322 OFFCURVE",
"791 1322 CURVE SMOOTH",
"1007 1322 LINE"
);
}
);
userData = {
assembly = "NPUSHB[ ]	/* 60 values pushed */\0120 3 0 4 5 3 4 103 6 1 2 2 1 95 0 1 1 103 77 9 7 2 5 5 0 95 8 1 0 0 104 0 78 19 19 1 0 19 29 19 28 22 20 17 16 15 14 13 12 11 10 9 7 0 18 1 18 10 12 22 \012CALL[ ]	/* CallFunction */";
};
width = 2058;
}
);
leftKerningGroup = C;
note = OE;
rightKerningGroup = AE;
unicode = 0152;
},
{
glyphname = P;
lastChange = "2024-07-06 19:21:01 +0000";
layers = (
{
layerId = "67E838D8-D572-4887-B173-0E3F5AAC2F16";
paths = (
{
closed = 1;
nodes = (
"180 101 LINE SMOOTH",
"180 36 OFFCURVE",
"214 0 OFFCURVE",
"275 0 CURVE SMOOTH",
"336 0 OFFCURVE",
"370 36 OFFCURVE",
"370 101 CURVE SMOOTH",
"370 539 LINE",
"691 539 LINE SMOOTH",
"807 539 OFFCURVE",
"902.333 560.333 OFFCURVE",
"977 603 CURVE SMOOTH",
"1051.667 645.667 OFFCURVE",
"1107.167 703 OFFCURVE",
"1143.5 775 CURVE SMOOTH",
"1179.833 847 OFFCURVE",
"1198 927.333 OFFCURVE",
"1198 1016 CURVE SMOOTH",
"1198 1104.667 OFFCURVE",
"1179.833 1184.667 OFFCURVE",
"1143.5 1256 CURVE SMOOTH",
"1107.167 1327.333 OFFCURVE",
"1051.5 1384.167 OFFCURVE",
"976.5 1426.5 CURVE SMOOTH",
"901.5 1468.833 OFFCURVE",
"806 1490 OFFCURVE",
"690 1490 CURVE SMOOTH",
"281 1490 LINE SMOOTH",
"216 1490 OFFCURVE",
"180 1454 OFFCURVE",
"180 1389 CURVE SMOOTH"
);
},
{
closed = 1;
nodes = (
"370 706 LINE",
"370 1323 LINE",
"680 1323 LINE SMOOTH",
"799.333 1323 OFFCURVE",
"884 1293.833 OFFCURVE",
"934 1235.5 CURVE SMOOTH",
"984 1177.167 OFFCURVE",
"1009 1104 OFFCURVE",
"1009 1016 CURVE SMOOTH",
"1009 927.333 OFFCURVE",
"984 853.5 OFFCURVE",
"934 794.5 CURVE SMOOTH",
"884 735.5 OFFCURVE",
"800 706 OFFCURVE",
"682 706 CURVE SMOOTH"
);
}
);
userData = {
assembly = "NPUSHB[ ]	/* 40 values pushed */\0120 3 0 1 2 3 1 103 0 4 4 0 95 0 0 0 103 77 5 1 2 2 104 2 78 0 0 21 19 15 13 0 12 0 12 38 33 6 12 24 \012CALL[ ]	/* CallFunction */";
};
width = 1308;
}
);
leftKerningGroup = B;
note = P;
rightKerningGroup = P;
unicode = 0050;
},
{
glyphname = Phook;
lastChange = "2024-07-06 19:21:01 +0000";
layers = (
{
layerId = "67E838D8-D572-4887-B173-0E3F5AAC2F16";
paths = (
{
closed = 1;
nodes = (
"60 1140 OFFCURVE",
"92 1114 OFFCURVE",
"149 1114 CURVE SMOOTH",
"206 1114 OFFCURVE",
"238 1140 OFFCURVE",
"238 1186 CURVE SMOOTH",
"238 1277.333 OFFCURVE",
"281.667 1323 OFFCURVE",
"369 1323 CURVE SMOOTH",
"460 1323 LINE",
"460 101 LINE SMOOTH",
"460 36 OFFCURVE",
"494 0 OFFCURVE",
"555 0 CURVE SMOOTH",
"616 0 OFFCURVE",
"650 36 OFFCURVE",
"650 101 CURVE SMOOTH",
"650 539 LINE",
"971 539 LINE SMOOTH",
"1087 539 OFFCURVE",
"1182.333 560.333 OFFCURVE",
"1257 603 CURVE SMOOTH",
"1331.667 645.667 OFFCURVE",
"1387.167 703 OFFCURVE",
"1423.5 775 CURVE SMOOTH",
"1459.833 847 OFFCURVE",
"1478 927.333 OFFCURVE",
"1478 1016 CURVE SMOOTH",
"1478 1104.667 OFFCURVE",
"1459.833 1184.667 OFFCURVE",
"1423.5 1256 CURVE SMOOTH",
"1387.167 1327.333 OFFCURVE",
"1331.5 1384.167 OFFCURVE",
"1256.5 1426.5 CURVE SMOOTH",
"1181.5 1468.833 OFFCURVE",
"1086 1490 OFFCURVE",
"970 1490 CURVE SMOOTH",
"368 1490 LINE SMOOTH",
"162.667 1490 OFFCURVE",
"60 1389.333 OFFCURVE",
"60 1188 CURVE SMOOTH"
);
},
{
closed = 1;
nodes = (
"650 706 LINE",
"650 1323 LINE",
"960 1323 LINE SMOOTH",
"1079.333 1323 OFFCURVE",
"1164 1293.833 OFFCURVE",
"1214 1235.5 CURVE SMOOTH",
"1264 1177.167 OFFCURVE",
"1289 1104 OFFCURVE",
"1289 1016 CURVE SMOOTH",
"1289 927.333 OFFCURVE",
"1264 853.5 OFFCURVE",
"1214 794.5 CURVE SMOOTH",
"1164 735.5 OFFCURVE",
"1080 706 OFFCURVE",
"962 706 CURVE SMOOTH"
);
}
);
userData = {
assembly = "MPPEM[ ]	/* MeasurePixelPerEm */\012PUSHB[ ]	/* 1 value pushed */\01212 \012LT[ ]	/* LessThan */\012IF[ ]	/* If */\012NPUSHB[ ]	/* 33 values pushed */\0127 1 4 3 5 3 4 114 0 5 0 1 2 5 1 103 6 1 3 3 0 95 0 0 0 103 77 0 2 2 104 2 78 \012ELSE[ ]	/* Else */\012NPUSHB[ ]	/* 34 values pushed */\0127 1 4 3 5 3 4 5 128 0 5 0 1 2 5 1 103 6 1 3 3 0 95 0 0 0 103 77 0 2 2 104 2 78 \012EIF[ ]	/* EndIf */\012NPUSHB[ ]	/* 17 values pushed */\0120 0 29 27 23 21 0 20 0 20 33 17 38 50 8 12 26 \012CALL[ ]	/* CallFunction */";
};
width = 1588;
}
);
leftKerningGroup = B;
note = uni01A4;
rightKerningGroup = P;
unicode = 01A4;
},
{
glyphname = Thorn;
lastChange = "2024-07-06 19:21:01 +0000";
layers = (
{
layerId = "67E838D8-D572-4887-B173-0E3F5AAC2F16";
paths = (
{
closed = 1;
nodes = (
"202 1490 OFFCURVE",
"168 1454 OFFCURVE",
"168 1389 CURVE SMOOTH",
"168 101 LINE SMOOTH",
"168 36 OFFCURVE",
"202 0 OFFCURVE",
"264 0 CURVE SMOOTH",
"326 0 OFFCURVE",
"360 36 OFFCURVE",
"360 101 CURVE SMOOTH",
"360 325 LINE",
"643 325 LINE SMOOTH",
"749.667 325 OFFCURVE",
"839.667 344.333 OFFCURVE",
"913 383 CURVE SMOOTH",
"986.333 421.667 OFFCURVE",
"1042.167 473.5 OFFCURVE",
"1080.5 538.5 CURVE SMOOTH",
"1118.833 603.5 OFFCURVE",
"1138 675.667 OFFCURVE",
"1138 755 CURVE SMOOTH",
"1138 833.667 OFFCURVE",
"1118.833 905.333 OFFCURVE",
"1080.5 970 CURVE SMOOTH",
"1042.167 1034.667 OFFCURVE",
"986.333 1086.5 OFFCURVE",
"913 1125.5 CURVE SMOOTH",
"839.667 1164.5 OFFCURVE",
"749.667 1184 OFFCURVE",
"643 1184 CURVE SMOOTH",
"360 1185 LINE",
"360 1389 LINE SMOOTH",
"360 1454 OFFCURVE",
"326 1490 OFFCURVE",
"264 1490 CURVE SMOOTH"
);
},
{
closed = 1;
nodes = (
"360 491 LINE",
"360 1018 LINE",
"643 1018 LINE SMOOTH",
"745 1018 OFFCURVE",
"823 994 OFFCURVE",
"877 946 CURVE SMOOTH",
"931 898 OFFCURVE",
"958 833 OFFCURVE",
"958 751 CURVE SMOOTH",
"958 669 OFFCURVE",
"931 605.167 OFFCURVE",
"877 559.5 CURVE SMOOTH",
"823 513.833 OFFCURVE",
"745 491 OFFCURVE",
"643 491 CURVE SMOOTH"
);
}
);
userData = {
assembly = "NPUSHB[ ]	/* 36 values pushed */\0120 1 0 5 4 1 5 103 0 4 0 2 3 4 2 103 0 0 0 103 77 0 3 3 104 3 78 36 33 17 38 33 16 6 12 28 \012CALL[ ]	/* CallFunction */";
};
width = 1302;
}
);
leftKerningGroup = B;
note = Thorn;
unicode = 00DE;
},
{
glyphname = Q;
lastChange = "2024-07-06 19:21:01 +0000";
layers = (
{
layerId = "67E838D8-D572-4887-B173-0E3F5AAC2F16";
paths = (
{
closed = 1;
nodes = (
"879.333 -20 OFFCURVE",
"967.667 -2.333 OFFCURVE",
"1049 33 CURVE",
"1132 -78 LINE SMOOTH",
"1164 -122 OFFCURVE",
"1201 -140 OFFCURVE",
"1255 -140 CURVE SMOOTH",
"1277 -140 LINE SMOOTH",
"1331 -140 OFFCURVE",
"1334 -85 OFFCURVE",
"1283 -17 CURVE SMOOTH",
"1184 115 LINE",
"1264.667 180.333 OFFCURVE",
"1328.167 266.333 OFFCURVE",
"1374.5 373 CURVE SMOOTH",
"1420.833 479.667 OFFCURVE",
"1444 603.333 OFFCURVE",
"1444 744 CURVE SMOOTH",
"1444 902 OFFCURVE",
"1415.5 1038.167 OFFCURVE",
"1358.5 1152.5 CURVE SMOOTH",
"1301.5 1266.833 OFFCURVE",
"1223.333 1355 OFFCURVE",
"1124 1417 CURVE SMOOTH",
"1024.667 1479 OFFCURVE",
"911.333 1510 OFFCURVE",
"784 1510 CURVE SMOOTH",
"656.667 1510 OFFCURVE",
"543.167 1479 OFFCURVE",
"443.5 1417 CURVE SMOOTH",
"343.833 1355 OFFCURVE",
"265.333 1266.833 OFFCURVE",
"208 1152.5 CURVE SMOOTH",
"150.667 1038.167 OFFCURVE",
"122 902 OFFCURVE",
"122 744 CURVE SMOOTH",
"122 586.667 OFFCURVE",
"150.667 450.833 OFFCURVE",
"208 336.5 CURVE SMOOTH",
"265.333 222.167 OFFCURVE",
"343.833 134.167 OFFCURVE",
"443.5 72.5 CURVE SMOOTH",
"543.167 10.833 OFFCURVE",
"656.667 -20 OFFCURVE",
"784 -20 CURVE SMOOTH"
);
},
{
closed = 1;
nodes = (
"776 466 OFFCURVE",
"764 411 OFFCURVE",
"815 343 CURVE SMOOTH",
"938 181 LINE",
"889.333 164.333 OFFCURVE",
"838 156 OFFCURVE",
"784 156 CURVE SMOOTH",
"694.667 156 OFFCURVE",
"614 178.667 OFFCURVE",
"542 224 CURVE SMOOTH",
"470 269.333 OFFCURVE",
"412.833 335.667 OFFCURVE",
"370.5 423 CURVE SMOOTH",
"328.167 510.333 OFFCURVE",
"307 617.333 OFFCURVE",
"307 744 CURVE SMOOTH",
"307 871.333 OFFCURVE",
"328.167 978.833 OFFCURVE",
"370.5 1066.5 CURVE SMOOTH",
"412.833 1154.167 OFFCURVE",
"470 1220.667 OFFCURVE",
"542 1266 CURVE SMOOTH",
"614 1311.333 OFFCURVE",
"694.667 1334 OFFCURVE",
"784 1334 CURVE SMOOTH",
"872.667 1334 OFFCURVE",
"952.833 1311.5 OFFCURVE",
"1024.5 1266.5 CURVE SMOOTH",
"1096.167 1221.5 OFFCURVE",
"1153.167 1155.167 OFFCURVE",
"1195.5 1067.5 CURVE SMOOTH",
"1237.833 979.833 OFFCURVE",
"1259 872 OFFCURVE",
"1259 744 CURVE SMOOTH",
"1259 632.667 OFFCURVE",
"1242.5 536.5 OFFCURVE",
"1209.5 455.5 CURVE SMOOTH",
"1176.5 374.5 OFFCURVE",
"1132 309.667 OFFCURVE",
"1076 261 CURVE",
"966 405 LINE SMOOTH",
"934 447 OFFCURVE",
"896 466 OFFCURVE",
"843 466 CURVE SMOOTH"
);
}
);
userData = {
assembly = "NPUSHB[ ]	/* 66 values pushed */\01239 22 2 5 3 18 15 2 0 5 2 76 0 3 4 5 4 3 5 128 0 2 0 2 134 0 4 4 1 97 0 1 1 109 77 0 5 5 0 98 6 1 0 0 110 0 78 1 0 38 36 30 28 21 20 17 16 9 7 0 19 1 19 7 12 22 \012CALL[ ]	/* CallFunction */";
};
width = 1566;
}
);
leftKerningGroup = C;
note = Q;
rightKerningGroup = Oopen;
unicode = 0051;
},
{
glyphname = Q_rthook;
lastChange = "2024-07-06 19:21:01 +0000";
layers = (
{
layerId = "67E838D8-D572-4887-B173-0E3F5AAC2F16";
paths = (
{
closed = 1;
nodes = (
"1386 1389 LINE SMOOTH",
"1386 1454 OFFCURVE",
"1354 1490 OFFCURVE",
"1296 1490 CURVE SMOOTH",
"1238 1490 OFFCURVE",
"1206 1454 OFFCURVE",
"1206 1389 CURVE SMOOTH",
"1206 1261 LINE",
"1194 1261 LINE",
"1157.333 1338.333 OFFCURVE",
"1100.167 1399.167 OFFCURVE",
"1022.5 1443.5 CURVE SMOOTH",
"944.833 1487.833 OFFCURVE",
"855 1510 OFFCURVE",
"753 1510 CURVE SMOOTH",
"628.333 1510 OFFCURVE",
"518.667 1477.333 OFFCURVE",
"424 1412 CURVE SMOOTH",
"329.333 1346.667 OFFCURVE",
"255.333 1256.833 OFFCURVE",
"202 1142.5 CURVE SMOOTH",
"148.667 1028.167 OFFCURVE",
"122 897.333 OFFCURVE",
"122 750 CURVE SMOOTH",
"122 598.667 OFFCURVE",
"148.833 464.833 OFFCURVE",
"202.5 348.5 CURVE SMOOTH",
"256.167 232.167 OFFCURVE",
"330.333 141 OFFCURVE",
"425 75 CURVE SMOOTH",
"519.667 9 OFFCURVE",
"629 -24 OFFCURVE",
"753 -24 CURVE SMOOTH",
"853.667 -24 OFFCURVE",
"942.833 -1.333 OFFCURVE",
"1020.5 44 CURVE SMOOTH",
"1098.167 89.333 OFFCURVE",
"1156 153 OFFCURVE",
"1194 235 CURVE",
"1206 235 LINE",
"1206 -171 LINE SMOOTH",
"1206 -253.667 OFFCURVE",
"1230.667 -317 OFFCURVE",
"1280 -361 CURVE SMOOTH",
"1329.333 -405 OFFCURVE",
"1401.333 -427 OFFCURVE",
"1496 -427 CURVE SMOOTH",
"1516 -427 OFFCURVE",
"1533 -426 OFFCURVE",
"1549 -425 CURVE SMOOTH",
"1584 -423 OFFCURVE",
"1601 -392 OFFCURVE",
"1601 -343 CURVE SMOOTH",
"1601 -295 OFFCURVE",
"1589 -269 OFFCURVE",
"1570 -271 CURVE SMOOTH",
"1560 -271.667 OFFCURVE",
"1550.667 -272 OFFCURVE",
"1542 -272 CURVE SMOOTH",
"1486.667 -272 OFFCURVE",
"1446.833 -263.833 OFFCURVE",
"1422.5 -247.5 CURVE SMOOTH",
"1398.167 -231.167 OFFCURVE",
"1386 -205.667 OFFCURVE",
"1386 -171 CURVE SMOOTH"
);
},
{
closed = 1;
nodes = (
"670.667 156 OFFCURVE",
"593.333 180 OFFCURVE",
"526 228 CURVE SMOOTH",
"458.667 276 OFFCURVE",
"406 344.333 OFFCURVE",
"368 433 CURVE SMOOTH",
"330 521.667 OFFCURVE",
"311 626.667 OFFCURVE",
"311 748 CURVE SMOOTH",
"311 862.667 OFFCURVE",
"329.5 964.333 OFFCURVE",
"366.5 1053 CURVE SMOOTH",
"403.5 1141.667 OFFCURVE",
"455.667 1211.333 OFFCURVE",
"523 1262 CURVE SMOOTH",
"590.333 1312.667 OFFCURVE",
"669.333 1338 OFFCURVE",
"760 1338 CURVE SMOOTH",
"862 1338 OFFCURVE",
"946 1311.5 OFFCURVE",
"1012 1258.5 CURVE SMOOTH",
"1078 1205.5 OFFCURVE",
"1127.167 1134.333 OFFCURVE",
"1159.5 1045 CURVE SMOOTH",
"1191.833 955.667 OFFCURVE",
"1208 856.667 OFFCURVE",
"1208 748 CURVE SMOOTH",
"1208 637.333 OFFCURVE",
"1192.833 537.167 OFFCURVE",
"1162.5 447.5 CURVE SMOOTH",
"1132.167 357.833 OFFCURVE",
"1084 286.833 OFFCURVE",
"1018 234.5 CURVE SMOOTH",
"952 182.167 OFFCURVE",
"865.333 156 OFFCURVE",
"758 156 CURVE SMOOTH"
);
}
);
userData = {
assembly = "NPUSHB[ ]	/* 11 values pushed */\01229 14 2 5 6 8 1 1 0 2 76 \012MPPEM[ ]	/* MeasurePixelPerEm */\012PUSHB[ ]	/* 1 value pushed */\01225 \012LT[ ]	/* LessThan */\012IF[ ]	/* If */\012NPUSHB[ ]	/* 34 values pushed */\0120 6 6 3 97 7 4 2 3 3 109 77 8 1 5 5 2 97 0 2 2 113 77 0 0 0 1 97 0 1 1 114 1 78 \012ELSE[ ]	/* Else */\012NPUSHB[ ]	/* 38 values pushed */\0127 1 4 4 103 77 0 6 6 3 97 0 3 3 109 77 8 1 5 5 2 97 0 2 2 113 77 0 0 0 1 97 0 1 1 114 1 78 \012EIF[ ]	/* EndIf */\012NPUSHB[ ]	/* 21 values pushed */\01233 32 0 0 41 39 32 47 33 47 0 31 0 31 38 38 35 51 9 12 26 \012CALL[ ]	/* CallFunction */";
};
width = 1566;
}
);
leftKerningGroup = C;
note = Q_rthook;
rightKerningGroup = Q_rthook;
},
{
glyphname = R;
lastChange = "2024-07-06 19:21:01 +0000";
layers = (
{
layerId = "67E838D8-D572-4887-B173-0E3F5AAC2F16";
paths = (
{
closed = 1;
nodes = (
"180 101 LINE SMOOTH",
"180 36 OFFCURVE",
"214 0 OFFCURVE",
"275 0 CURVE SMOOTH",
"336 0 OFFCURVE",
"370 36 OFFCURVE",
"370 101 CURVE SMOOTH",
"370 578 LINE",
"691 578 LINE SMOOTH",
"703 578 OFFCURVE",
"714.667 578.333 OFFCURVE",
"726 579 CURVE",
"998 72 LINE SMOOTH",
"1024 23 OFFCURVE",
"1061 0 OFFCURVE",
"1117 0 CURVE SMOOTH",
"1146 0 LINE SMOOTH",
"1210 0 OFFCURVE",
"1228 50 OFFCURVE",
"1190 120 CURVE SMOOTH",
"922 613 LINE",
"1016 645.667 OFFCURVE",
"1085.5 698.667 OFFCURVE",
"1130.5 772 CURVE SMOOTH",
"1175.5 845.333 OFFCURVE",
"1198 931.333 OFFCURVE",
"1198 1030 CURVE SMOOTH",
"1198 1118.667 OFFCURVE",
"1179.833 1197.667 OFFCURVE",
"1143.5 1267 CURVE SMOOTH",
"1107.167 1336.333 OFFCURVE",
"1051.5 1390.833 OFFCURVE",
"976.5 1430.5 CURVE SMOOTH",
"901.5 1470.167 OFFCURVE",
"806 1490 OFFCURVE",
"690 1490 CURVE SMOOTH",
"281 1490 LINE SMOOTH",
"216 1490 OFFCURVE",
"180 1454 OFFCURVE",
"180 1389 CURVE SMOOTH"
);
},
{
closed = 1;
nodes = (
"370 747 LINE",
"370 1323 LINE",
"680 1323 LINE SMOOTH",
"798.667 1323 OFFCURVE",
"883.167 1296.333 OFFCURVE",
"933.5 1243 CURVE SMOOTH",
"983.833 1189.667 OFFCURVE",
"1009 1118.667 OFFCURVE",
"1009 1030 CURVE SMOOTH",
"1009 942.667 OFFCURVE",
"983.833 873.667 OFFCURVE",
"933.5 823 CURVE SMOOTH",
"883.167 772.333 OFFCURVE",
"799.333 747 OFFCURVE",
"682 747 CURVE SMOOTH"
);
}
);
userData = {
assembly = "NPUSHB[ ]	/* 48 values pushed */\0129 1 2 4 1 76 0 4 0 2 1 4 2 103 0 5 5 0 95 0 0 0 103 77 6 3 2 1 1 104 1 78 0 0 25 23 19 17 0 16 0 16 49 23 33 7 12 25 \012CALL[ ]	/* CallFunction */";
};
width = 1318;
}
);
leftKerningGroup = B;
note = R;
rightKerningGroup = G.1;
unicode = 0052;
},
{
glyphname = Rstroke;
lastChange = "2024-07-06 19:21:01 +0000";
layers = (
{
layerId = "67E838D8-D572-4887-B173-0E3F5AAC2F16";
paths = (
{
closed = 1;
nodes = (
"198 101 LINE SMOOTH",
"198 36 OFFCURVE",
"232 0 OFFCURVE",
"293 0 CURVE SMOOTH",
"354 0 OFFCURVE",
"388 36 OFFCURVE",
"388 101 CURVE SMOOTH",
"388 578 LINE",
"709 578 LINE SMOOTH",
"721 578 OFFCURVE",
"732.667 578.333 OFFCURVE",
"744 579 CURVE",
"1016 72 LINE SMOOTH",
"1042 23 OFFCURVE",
"1079 0 OFFCURVE",
"1135 0 CURVE SMOOTH",
"1164 0 LINE SMOOTH",
"1228 0 OFFCURVE",
"1246 50 OFFCURVE",
"1208 120 CURVE SMOOTH",
"940 613 LINE",
"1034 645.667 OFFCURVE",
"1103.5 698.667 OFFCURVE",
"1148.5 772 CURVE SMOOTH",
"1193.5 845.333 OFFCURVE",
"1216 931.333 OFFCURVE",
"1216 1030 CURVE SMOOTH",
"1216 1118.667 OFFCURVE",
"1197.833 1197.667 OFFCURVE",
"1161.5 1267 CURVE SMOOTH",
"1125.167 1336.333 OFFCURVE",
"1069.5 1390.833 OFFCURVE",
"994.5 1430.5 CURVE SMOOTH",
"919.5 1470.167 OFFCURVE",
"824 1490 OFFCURVE",
"708 1490 CURVE SMOOTH",
"299 1490 LINE SMOOTH",
"234 1490 OFFCURVE",
"198 1454 OFFCURVE",
"198 1389 CURVE SMOOTH",
"198 744 LINE",
"111 744 LINE SMOOTH",
"55 744 OFFCURVE",
"24 715 OFFCURVE",
"24 663 CURVE SMOOTH",
"24 611 OFFCURVE",
"60 582 OFFCURVE",
"125 582 CURVE SMOOTH",
"198 582 LINE"
);
},
{
closed = 1;
nodes = (
"388 747 LINE",
"388 1323 LINE",
"698 1323 LINE SMOOTH",
"816.667 1323 OFFCURVE",
"901.167 1296.333 OFFCURVE",
"951.5 1243 CURVE SMOOTH",
"1001.833 1189.667 OFFCURVE",
"1027 1118.667 OFFCURVE",
"1027 1030 CURVE SMOOTH",
"1027 942.667 OFFCURVE",
"1001.833 873.667 OFFCURVE",
"951.5 823 CURVE SMOOTH",
"901.167 772.333 OFFCURVE",
"817.333 747 OFFCURVE",
"700 747 CURVE SMOOTH"
);
}
);
userData = {
assembly = "NPUSHB[ ]	/* 52 values pushed */\01213 1 0 1 1 76 6 1 1 4 1 0 3 1 0 103 0 7 7 2 95 0 2 2 103 77 8 5 2 3 3 104 3 78 0 0 29 27 23 21 0 20 0 20 49 23 33 17 17 9 12 27 \012CALL[ ]	/* CallFunction */";
};
width = 1326;
}
);
leftKerningGroup = B;
note = uni024C;
rightKerningGroup = G.1;
unicode = 024C;
},
{
glyphname = S;
lastChange = "2024-07-06 19:21:01 +0000";
layers = (
{
layerId = "67E838D8-D572-4887-B173-0E3F5AAC2F16";
paths = (
{
closed = 1;
nodes = (
"771.667 -26 OFFCURVE",
"869.333 -7 OFFCURVE",
"950 31 CURVE SMOOTH",
"1030.667 69 OFFCURVE",
"1092.167 120.667 OFFCURVE",
"1134.5 186 CURVE SMOOTH",
"1176.833 251.333 OFFCURVE",
"1198 324.667 OFFCURVE",
"1198 406 CURVE SMOOTH",
"1198 475.333 OFFCURVE",
"1183.833 533.833 OFFCURVE",
"1155.5 581.5 CURVE SMOOTH",
"1127.167 629.167 OFFCURVE",
"1091 668.5 OFFCURVE",
"1047 699.5 CURVE SMOOTH",
"1003 730.5 OFFCURVE",
"956.833 755.333 OFFCURVE",
"908.5 774 CURVE SMOOTH",
"860.167 792.667 OFFCURVE",
"816 807.333 OFFCURVE",
"776 818 CURVE SMOOTH",
"627 859 LINE SMOOTH",
"591 869 OFFCURVE",
"550.833 882.833 OFFCURVE",
"506.5 900.5 CURVE SMOOTH",
"462.167 918.167 OFFCURVE",
"423.833 942.833 OFFCURVE",
"391.5 974.5 CURVE SMOOTH",
"359.167 1006.167 OFFCURVE",
"343 1048 OFFCURVE",
"343 1100 CURVE SMOOTH",
"343 1170 OFFCURVE",
"372.333 1227.833 OFFCURVE",
"431 1273.5 CURVE SMOOTH",
"489.667 1319.167 OFFCURVE",
"567.333 1342 OFFCURVE",
"664 1342 CURVE SMOOTH",
"752.667 1342 OFFCURVE",
"827.333 1322.167 OFFCURVE",
"888 1282.5 CURVE SMOOTH",
"923 1260 OFFCURVE",
"949 1232 OFFCURVE",
"967 1198 CURVE SMOOTH",
"995 1144 OFFCURVE",
"1021 1114 OFFCURVE",
"1080 1114 CURVE SMOOTH",
"1085 1114 LINE SMOOTH",
"1143 1114 OFFCURVE",
"1181 1156 OFFCURVE",
"1158 1223 CURVE SMOOTH",
"1147 1256 OFFCURVE",
"1130 1287 OFFCURVE",
"1108.5 1316.5 CURVE SMOOTH",
"1064.833 1376.167 OFFCURVE",
"1005.333 1423.333 OFFCURVE",
"930 1458 CURVE SMOOTH",
"854.667 1492.667 OFFCURVE",
"768 1510 OFFCURVE",
"670 1510 CURVE SMOOTH",
"574 1510 OFFCURVE",
"487.333 1492.667 OFFCURVE",
"410 1458 CURVE SMOOTH",
"332.667 1423.333 OFFCURVE",
"271.333 1374.5 OFFCURVE",
"226 1311.5 CURVE SMOOTH",
"180.667 1248.5 OFFCURVE",
"158 1175 OFFCURVE",
"158 1091 CURVE SMOOTH",
"158 992.333 OFFCURVE",
"191.333 911.333 OFFCURVE",
"258 848 CURVE SMOOTH",
"324.667 784.667 OFFCURVE",
"418 736 OFFCURVE",
"538 702 CURVE SMOOTH",
"718 651 LINE SMOOTH",
"771.333 636.333 OFFCURVE",
"820.333 619.333 OFFCURVE",
"865 600 CURVE SMOOTH",
"909.667 580.667 OFFCURVE",
"945.5 556 OFFCURVE",
"972.5 526 CURVE SMOOTH",
"999.5 496 OFFCURVE",
"1013 457 OFFCURVE",
"1013 409 CURVE SMOOTH",
"1013 356.333 OFFCURVE",
"997.333 310 OFFCURVE",
"966 270 CURVE SMOOTH",
"934.667 230 OFFCURVE",
"892.167 199 OFFCURVE",
"838.5 177 CURVE SMOOTH",
"784.833 155 OFFCURVE",
"724.333 144 OFFCURVE",
"657 144 CURVE SMOOTH",
"599 144 OFFCURVE",
"544.5 152.833 OFFCURVE",
"493.5 170.5 CURVE SMOOTH",
"442.5 188.167 OFFCURVE",
"400.667 215.167 OFFCURVE",
"368 251.5 CURVE SMOOTH",
"351 270 OFFCURVE",
"338 292 OFFCURVE",
"328 316 CURVE SMOOTH",
"309 365 OFFCURVE",
"282 390 OFFCURVE",
"222 390 CURVE SMOOTH",
"214 390 LINE SMOOTH",
"153 390 OFFCURVE",
"115 348 OFFCURVE",
"137 280 CURVE SMOOTH",
"161 205 OFFCURVE",
"206 141 OFFCURVE",
"272 88.5 CURVE SMOOTH",
"367.333 12.167 OFFCURVE",
"495.667 -26 OFFCURVE",
"657 -26 CURVE SMOOTH"
);
}
);
userData = {
assembly = "NPUSHB[ ]	/* 56 values pushed */\0120 4 5 1 5 4 1 128 0 1 2 5 1 2 126 0 5 5 3 97 0 3 3 109 77 0 2 2 0 97 6 1 0 0 113 0 78 1 0 33 31 29 28 25 23 9 7 4 3 0 48 1 48 7 12 22 \012CALL[ ]	/* CallFunction */";
};
width = 1314;
}
);
leftKerningGroup = S;
note = S;
rightKerningGroup = S;
unicode = 0053;
},
{
glyphname = Germandbls;
lastChange = "2024-07-06 19:21:01 +0000";
layers = (
{
layerId = "67E838D8-D572-4887-B173-0E3F5AAC2F16";
paths = (
{
closed = 1;
nodes = (
"180 101 LINE SMOOTH",
"180 36 OFFCURVE",
"214 0 OFFCURVE",
"275 0 CURVE SMOOTH",
"336 0 OFFCURVE",
"370 36 OFFCURVE",
"370 101 CURVE SMOOTH",
"370 989 LINE SMOOTH",
"370 1050.333 OFFCURVE",
"378 1107.833 OFFCURVE",
"394 1161.5 CURVE SMOOTH",
"410 1215.167 OFFCURVE",
"438.333 1258.833 OFFCURVE",
"479 1292.5 CURVE SMOOTH",
"519.667 1326.167 OFFCURVE",
"577 1343 OFFCURVE",
"651 1343 CURVE SMOOTH",
"711.667 1343 OFFCURVE",
"763 1333 OFFCURVE",
"805 1313 CURVE SMOOTH",
"847 1293 OFFCURVE",
"883.667 1272 OFFCURVE",
"915 1250 CURVE",
"662 909 LINE SMOOTH",
"632 868 OFFCURVE",
"621 833 OFFCURVE",
"621 783 CURVE SMOOTH",
"621 774 LINE SMOOTH",
"621 723 OFFCURVE",
"657 694 OFFCURVE",
"722 694 CURVE SMOOTH",
"766 694 LINE SMOOTH",
"782.667 694 OFFCURVE",
"808.167 692.167 OFFCURVE",
"842.5 688.5 CURVE SMOOTH",
"876.833 684.833 OFFCURVE",
"912.5 674.833 OFFCURVE",
"949.5 658.5 CURVE SMOOTH",
"986.5 642.167 OFFCURVE",
"1018.167 615.5 OFFCURVE",
"1044.5 578.5 CURVE SMOOTH",
"1070.833 541.5 OFFCURVE",
"1084 489.667 OFFCURVE",
"1084 423 CURVE SMOOTH",
"1084 337.667 OFFCURVE",
"1058.333 270.333 OFFCURVE",
"1007 221 CURVE SMOOTH",
"955.667 171.667 OFFCURVE",
"883.333 147 OFFCURVE",
"790 147 CURVE SMOOTH",
"743.333 147 OFFCURVE",
"701.5 152.167 OFFCURVE",
"664.5 162.5 CURVE SMOOTH",
"647 167 OFFCURVE",
"630 173 OFFCURVE",
"615 178 CURVE SMOOTH",
"583 189 OFFCURVE",
"555 167 OFFCURVE",
"536 114 CURVE SMOOTH",
"517 60 OFFCURVE",
"540 16 OFFCURVE",
"605 1 CURVE SMOOTH",
"619 -3 OFFCURVE",
"634 -6 OFFCURVE",
"648 -8 CURVE SMOOTH",
"695.333 -16 OFFCURVE",
"742.333 -20 OFFCURVE",
"789 -20 CURVE SMOOTH",
"887 -20 OFFCURVE",
"973.833 -3 OFFCURVE",
"1049.5 31 CURVE SMOOTH",
"1125.167 65 OFFCURVE",
"1184.5 114.667 OFFCURVE",
"1227.5 180 CURVE SMOOTH",
"1270.5 245.333 OFFCURVE",
"1292 325 OFFCURVE",
"1292 419 CURVE SMOOTH",
"1292 547 OFFCURVE",
"1251.5 648.667 OFFCURVE",
"1170.5 724 CURVE SMOOTH",
"1089.5 799.333 OFFCURVE",
"976 841.667 OFFCURVE",
"830 851 CURVE",
"1102 1205 LINE SMOOTH",
"1141 1256 OFFCURVE",
"1137 1307 OFFCURVE",
"1085 1347 CURVE SMOOTH",
"1036 1384 OFFCURVE",
"985 1416 OFFCURVE",
"930 1444.5 CURVE SMOOTH",
"846 1488.167 OFFCURVE",
"750.333 1510 OFFCURVE",
"643 1510 CURVE SMOOTH",
"491 1510 OFFCURVE",
"375.833 1466.167 OFFCURVE",
"297.5 1378.5 CURVE SMOOTH",
"219.167 1290.833 OFFCURVE",
"180 1161 OFFCURVE",
"180 989 CURVE SMOOTH"
);
}
);
userData = {
assembly = "MPPEM[ ]	/* MeasurePixelPerEm */\012PUSHB[ ]	/* 1 value pushed */\01225 \012LT[ ]	/* LessThan */\012IF[ ]	/* If */\012NPUSHB[ ]	/* 16 values pushed */\01233 32 7 3 1 5 19 1 3 4 18 1 2 3 3 76 \012ELSE[ ]	/* Else */\012NPUSHB[ ]	/* 16 values pushed */\01233 32 7 3 1 5 19 1 3 4 18 1 6 3 3 76 \012EIF[ ]	/* EndIf */\012MPPEM[ ]	/* MeasurePixelPerEm */\012PUSHB[ ]	/* 1 value pushed */\01225 \012LT[ ]	/* LessThan */\012IF[ ]	/* If */\012NPUSHB[ ]	/* 38 values pushed */\0120 1 5 4 5 1 4 128 0 4 3 5 4 3 126 0 5 5 0 97 0 0 0 109 77 0 3 3 2 98 7 6 2 2 2 110 2 78 \012ELSE[ ]	/* Else */\012NPUSHB[ ]	/* 42 values pushed */\0120 1 5 4 5 1 4 128 0 4 3 5 4 3 126 0 5 5 0 97 0 0 0 109 77 7 1 6 6 104 77 0 3 3 2 98 0 2 2 110 2 78 \012EIF[ ]	/* EndIf */\012NPUSHB[ ]	/* 15 values pushed */\0120 0 0 41 0 41 36 38 37 37 19 35 8 12 28 \012CALL[ ]	/* CallFunction */";
};
width = 1408;
}
);
leftKerningGroup = B;
note = uni1E9E;
rightKerningGroup = S;
unicode = 1E9E;
},
{
glyphname = Schwa;
lastChange = "2024-07-06 19:21:01 +0000";
layers = (
{
layerId = "67E838D8-D572-4887-B173-0E3F5AAC2F16";
paths = (
{
closed = 1;
nodes = (
"886.667 -20 OFFCURVE",
"1001.833 11 OFFCURVE",
"1099.5 73 CURVE SMOOTH",
"1197.167 135 OFFCURVE",
"1272.667 223.167 OFFCURVE",
"1326 337.5 CURVE SMOOTH",
"1379.333 451.833 OFFCURVE",
"1406 587.333 OFFCURVE",
"1406 744 CURVE SMOOTH",
"1406 902 OFFCURVE",
"1378 1038.167 OFFCURVE",
"1322 1152.5 CURVE SMOOTH",
"1266 1266.833 OFFCURVE",
"1188.667 1355 OFFCURVE",
"1090 1417 CURVE SMOOTH",
"991.333 1479 OFFCURVE",
"878 1510 OFFCURVE",
"750 1510 CURVE SMOOTH",
"645.333 1510 OFFCURVE",
"550 1489.5 OFFCURVE",
"464 1448.5 CURVE SMOOTH",
"378 1407.5 OFFCURVE",
"306.667 1350.5 OFFCURVE",
"250 1277.5 CURVE SMOOTH",
"217 1235 OFFCURVE",
"190 1188 OFFCURVE",
"170 1137 CURVE SMOOTH",
"144 1068 OFFCURVE",
"181 1023 OFFCURVE",
"249 1023 CURVE SMOOTH",
"307 1023 OFFCURVE",
"340 1049 OFFCURVE",
"366 1102 CURVE SMOOTH",
"396 1163 OFFCURVE",
"437 1212 OFFCURVE",
"487 1251.5 CURVE SMOOTH",
"557.667 1306.5 OFFCURVE",
"645.333 1334 OFFCURVE",
"750 1334 CURVE SMOOTH",
"837.333 1334 OFFCURVE",
"916.5 1311.5 OFFCURVE",
"987.5 1266.5 CURVE SMOOTH",
"1058.5 1221.5 OFFCURVE",
"1115 1155.5 OFFCURVE",
"1157 1068.5 CURVE SMOOTH",
"1199 981.5 OFFCURVE",
"1220.333 875 OFFCURVE",
"1221 749 CURVE",
"229 749 LINE SMOOTH",
"164 749 OFFCURVE",
"128 713 OFFCURVE",
"128 648 CURVE SMOOTH",
"128 586 LINE SMOOTH",
"128 462.667 OFFCURVE",
"155.5 355.667 OFFCURVE",
"210.5 265 CURVE SMOOTH",
"265.5 174.333 OFFCURVE",
"340.333 104.167 OFFCURVE",
"435 54.5 CURVE SMOOTH",
"529.667 4.833 OFFCURVE",
"636 -20 OFFCURVE",
"754 -20 CURVE SMOOTH"
);
},
{
closed = 1;
nodes = (
"1184.667 444.333 OFFCURVE",
"1132.167 338.5 OFFCURVE",
"1050.5 265.5 CURVE SMOOTH",
"968.833 192.5 OFFCURVE",
"870 156 OFFCURVE",
"754 156 CURVE SMOOTH",
"671.333 156 OFFCURVE",
"597.167 173.333 OFFCURVE",
"531.5 208 CURVE SMOOTH",
"465.833 242.667 OFFCURVE",
"413.667 292 OFFCURVE",
"375 356 CURVE SMOOTH",
"336.333 420 OFFCURVE",
"316 495.667 OFFCURVE",
"314 583 CURVE",
"1208 583 LINE"
);
}
);
userData = {
assembly = "NPUSHB[ ]	/* 59 values pushed */\0120 3 2 1 2 3 1 128 0 1 0 5 6 1 5 103 0 2 2 4 97 0 4 4 109 77 0 6 6 0 97 7 1 0 0 110 0 78 1 0 32 30 27 26 19 17 14 13 11 9 6 5 0 25 1 25 8 12 22 \012CALL[ ]	/* CallFunction */";
};
width = 1528;
}
);
note = uni018F;
unicode = 018F;
},
{
glyphname = T;
lastChange = "2024-07-06 19:21:01 +0000";
layers = (
{
layerId = "67E838D8-D572-4887-B173-0E3F5AAC2F16";
paths = (
{
closed = 1;
nodes = (
"98 1351 OFFCURVE",
"134 1322 OFFCURVE",
"199 1322 CURVE SMOOTH",
"567 1322 LINE",
"567 101 LINE SMOOTH",
"567 36 OFFCURVE",
"601 0 OFFCURVE",
"662 0 CURVE SMOOTH",
"723 0 OFFCURVE",
"757 36 OFFCURVE",
"757 101 CURVE SMOOTH",
"757 1322 LINE",
"1123 1322 LINE SMOOTH",
"1188 1322 OFFCURVE",
"1224 1352 OFFCURVE",
"1224 1406 CURVE SMOOTH",
"1224 1460 OFFCURVE",
"1188 1490 OFFCURVE",
"1123 1490 CURVE SMOOTH",
"199 1490 LINE SMOOTH",
"134 1490 OFFCURVE",
"98 1460 OFFCURVE",
"98 1406 CURVE SMOOTH"
);
}
);
userData = {
assembly = "NPUSHB[ ]	/* 30 values pushed */\0124 3 2 1 1 0 95 0 0 0 103 77 0 2 2 104 2 78 0 0 0 7 0 7 17 17 17 5 12 25 \012CALL[ ]	/* CallFunction */";
};
width = 1322;
}
);
leftKerningGroup = "Kabashkir-cy";
note = T;
rightKerningGroup = "Enghe-cy";
unicode = 0054;
},
{
glyphname = Tdiagonalstroke;
lastChange = "2024-07-06 19:21:01 +0000";
layers = (
{
layerId = "67E838D8-D572-4887-B173-0E3F5AAC2F16";
paths = (
{
closed = 1;
nodes = (
"326 -209 OFFCURVE",
"359 -184 OFFCURVE",
"380 -130 CURVE SMOOTH",
"567 339 LINE",
"567 101 LINE SMOOTH",
"567 36 OFFCURVE",
"601 0 OFFCURVE",
"662 0 CURVE SMOOTH",
"723 0 OFFCURVE",
"757 36 OFFCURVE",
"757 101 CURVE SMOOTH",
"757 815 LINE",
"959 1322 LINE",
"1123 1322 LINE SMOOTH",
"1188 1322 OFFCURVE",
"1224 1352 OFFCURVE",
"1224 1406 CURVE SMOOTH",
"1224 1460 OFFCURVE",
"1188 1490 OFFCURVE",
"1123 1490 CURVE SMOOTH",
"1027 1490 LINE",
"1069 1595 LINE SMOOTH",
"1094 1658 OFFCURVE",
"1082 1699 OFFCURVE",
"1040 1699 CURVE SMOOTH",
"993 1699 OFFCURVE",
"960 1674 OFFCURVE",
"939 1620 CURVE SMOOTH",
"887 1490 LINE",
"199 1490 LINE SMOOTH",
"134 1490 OFFCURVE",
"98 1460 OFFCURVE",
"98 1406 CURVE SMOOTH",
"98 1352 OFFCURVE",
"134 1322 OFFCURVE",
"199 1322 CURVE SMOOTH",
"567 1322 LINE",
"567 690 LINE",
"255 -92 LINE SMOOTH",
"227 -163 OFFCURVE",
"236 -209 OFFCURVE",
"278 -209 CURVE SMOOTH"
);
},
{
closed = 1;
nodes = (
"757 1322 LINE",
"819 1322 LINE",
"757 1166 LINE"
);
}
);
userData = {
assembly = "NPUSHB[ ]	/* 9 values pushed */\01217 15 12 1 4 5 0 1 76 \012MPPEM[ ]	/* MeasurePixelPerEm */\012PUSHB[ ]	/* 1 value pushed */\01212 \012LT[ ]	/* LessThan */\012IF[ ]	/* If */\012NPUSHB[ ]	/* 31 values pushed */\0120 2 1 1 2 112 8 1 6 5 6 134 7 4 2 0 0 1 95 3 1 1 1 103 77 0 5 5 104 5 78 \012ELSE[ ]	/* Else */\012NPUSHB[ ]	/* 30 values pushed */\0120 2 1 2 133 8 1 6 5 6 134 7 4 2 0 0 1 95 3 1 1 1 103 77 0 5 5 104 5 78 \012EIF[ ]	/* EndIf */\012NPUSHB[ ]	/* 17 values pushed */\0120 0 19 18 0 16 0 16 18 17 17 17 17 18 9 12 28 \012CALL[ ]	/* CallFunction */";
};
width = 1322;
}
);
leftKerningGroup = "Kabashkir-cy";
note = uni023E;
rightKerningGroup = "Enghe-cy";
unicode = 023E;
},
{
glyphname = Thook;
lastChange = "2024-07-06 19:21:01 +0000";
layers = (
{
layerId = "67E838D8-D572-4887-B173-0E3F5AAC2F16";
paths = (
{
closed = 1;
nodes = (
"64 1140 OFFCURVE",
"96 1114 OFFCURVE",
"153 1114 CURVE SMOOTH",
"210 1114 OFFCURVE",
"242 1140 OFFCURVE",
"242 1186 CURVE SMOOTH",
"242 1277.333 OFFCURVE",
"285.667 1323 OFFCURVE",
"373 1323 CURVE SMOOTH",
"572 1323 LINE",
"572 101 LINE SMOOTH",
"572 36 OFFCURVE",
"606 0 OFFCURVE",
"667 0 CURVE SMOOTH",
"728 0 OFFCURVE",
"762 36 OFFCURVE",
"762 101 CURVE SMOOTH",
"762 1323 LINE",
"1128 1323 LINE SMOOTH",
"1193 1323 OFFCURVE",
"1229 1353 OFFCURVE",
"1229 1407 CURVE SMOOTH",
"1229 1461 OFFCURVE",
"1193 1490 OFFCURVE",
"1128 1490 CURVE SMOOTH",
"372 1490 LINE SMOOTH",
"166.667 1490 OFFCURVE",
"64 1389.333 OFFCURVE",
"64 1188 CURVE SMOOTH"
);
}
);
userData = {
assembly = "MPPEM[ ]	/* MeasurePixelPerEm */\012PUSHB[ ]	/* 1 value pushed */\01212 \012LT[ ]	/* LessThan */\012IF[ ]	/* If */\012NPUSHB[ ]	/* 25 values pushed */\0125 1 4 1 2 1 4 114 3 1 1 1 0 95 0 0 0 103 77 0 2 2 104 2 78 \012ELSE[ ]	/* Else */\012NPUSHB[ ]	/* 26 values pushed */\0125 1 4 1 2 1 4 2 128 3 1 1 1 0 95 0 0 0 103 77 0 2 2 104 2 78 \012EIF[ ]	/* EndIf */\012NPUSHB[ ]	/* 13 values pushed */\0120 0 0 13 0 13 33 17 17 34 6 12 26 \012CALL[ ]	/* CallFunction */";
};
width = 1327;
}
);
leftKerningGroup = "Kabashkir-cy";
note = uni01AC;
rightKerningGroup = "Enghe-cy";
unicode = 01AC;
},
{
glyphname = Tonefive;
lastChange = "2024-07-06 19:21:01 +0000";
layers = (
{
layerId = "67E838D8-D572-4887-B173-0E3F5AAC2F16";
paths = (
{
closed = 1;
nodes = (
"754 -20 OFFCURVE",
"839.333 1.5 OFFCURVE",
"914 44.5 CURVE SMOOTH",
"988.667 87.5 OFFCURVE",
"1047.5 146.333 OFFCURVE",
"1090.5 221 CURVE SMOOTH",
"1133.5 295.667 OFFCURVE",
"1155 380.667 OFFCURVE",
"1155 476 CURVE SMOOTH",
"1155 572 OFFCURVE",
"1134.5 657.667 OFFCURVE",
"1093.5 733 CURVE SMOOTH",
"1052.5 808.333 OFFCURVE",
"996.333 867.5 OFFCURVE",
"925 910.5 CURVE SMOOTH",
"853.667 953.5 OFFCURVE",
"772.333 975 OFFCURVE",
"681 975 CURVE SMOOTH",
"629.667 975 OFFCURVE",
"580.667 966.833 OFFCURVE",
"534 950.5 CURVE SMOOTH",
"487.333 934.167 OFFCURVE",
"448.667 913.333 OFFCURVE",
"418 888 CURVE",
"410 888 LINE",
"461 1323 LINE",
"984 1323 LINE SMOOTH",
"1049 1323 OFFCURVE",
"1085 1353 OFFCURVE",
"1085 1407 CURVE SMOOTH",
"1085 1461 OFFCURVE",
"1049 1490 OFFCURVE",
"984 1490 CURVE SMOOTH",
"199 1490 LINE SMOOTH",
"134 1490 OFFCURVE",
"98 1461 OFFCURVE",
"98 1407 CURVE SMOOTH",
"98 1353 OFFCURVE",
"134 1323 OFFCURVE",
"199 1323 CURVE SMOOTH",
"281 1323 LINE",
"225 852 LINE SMOOTH",
"217 786 OFFCURVE",
"248 748 OFFCURVE",
"313 740 CURVE SMOOTH",
"321 739 LINE SMOOTH",
"371 733 OFFCURVE",
"406 745 OFFCURVE",
"452 766 CURVE SMOOTH",
"468 773 OFFCURVE",
"486 780 OFFCURVE",
"506 786 CURVE SMOOTH",
"553.333 800.667 OFFCURVE",
"600 808 OFFCURVE",
"646 808 CURVE SMOOTH",
"708.667 808 OFFCURVE",
"764.167 793.5 OFFCURVE",
"812.5 764.5 CURVE SMOOTH",
"860.833 735.5 OFFCURVE",
"899 695.667 OFFCURVE",
"927 645 CURVE SMOOTH",
"955 594.333 OFFCURVE",
"969 537 OFFCURVE",
"969 473 CURVE SMOOTH",
"969 410.333 OFFCURVE",
"955.667 354.333 OFFCURVE",
"929 305 CURVE SMOOTH",
"902.333 255.667 OFFCURVE",
"865.5 217 OFFCURVE",
"818.5 189 CURVE SMOOTH",
"771.5 161 OFFCURVE",
"718 147 OFFCURVE",
"658 147 CURVE SMOOTH",
"583.333 147 OFFCURVE",
"518.833 168.5 OFFCURVE",
"464.5 211.5 CURVE SMOOTH",
"435 235 OFFCURVE",
"413 261 OFFCURVE",
"398 291 CURVE SMOOTH",
"371 346 OFFCURVE",
"344 376 OFFCURVE",
"285 376 CURVE SMOOTH",
"282 376 LINE SMOOTH",
"224 376 OFFCURVE",
"188 334 OFFCURVE",
"210 267 CURVE SMOOTH",
"221 234 OFFCURVE",
"237 202 OFFCURVE",
"257 172.5 CURVE SMOOTH",
"298.333 112.833 OFFCURVE",
"353.667 65.833 OFFCURVE",
"423 31.5 CURVE SMOOTH",
"492.333 -2.833 OFFCURVE",
"570.667 -20 OFFCURVE",
"658 -20 CURVE SMOOTH"
);
}
);
userData = {
assembly = "NPUSHB[ ]	/* 73 values pushed */\01227 1 3 7 20 19 2 1 3 2 76 0 1 3 2 3 1 2 128 0 7 0 3 1 7 3 105 6 1 4 4 5 95 0 5 5 103 77 0 2 2 0 97 8 1 0 0 110 0 78 1 0 32 30 26 25 24 23 22 21 17 15 9 7 5 4 0 38 1 38 9 12 22 \012CALL[ ]	/* CallFunction */";
};
width = 1277;
}
);
note = uni01BC;
unicode = 01BC;
},
{
glyphname = Tonesix;
lastChange = "2024-07-06 19:21:01 +0000";
layers = (
{
layerId = "67E838D8-D572-4887-B173-0E3F5AAC2F16";
paths = (
{
closed = 1;
nodes = (
"561 870 LINE",
"561 1389 LINE SMOOTH",
"561 1454 OFFCURVE",
"525 1490 OFFCURVE",
"460 1490 CURVE SMOOTH",
"121 1490 LINE SMOOTH",
"56 1490 OFFCURVE",
"20 1461 OFFCURVE",
"20 1407 CURVE SMOOTH",
"20 1353 OFFCURVE",
"56 1323 OFFCURVE",
"121 1323 CURVE SMOOTH",
"371 1323 LINE",
"371 101 LINE SMOOTH",
"371 36 OFFCURVE",
"407 0 OFFCURVE",
"472 0 CURVE SMOOTH",
"929 0 LINE SMOOTH",
"1090.333 0 OFFCURVE",
"1213.833 41.167 OFFCURVE",
"1299.5 123.5 CURVE SMOOTH",
"1385.167 205.833 OFFCURVE",
"1428 312.333 OFFCURVE",
"1428 443 CURVE SMOOTH",
"1428 573 OFFCURVE",
"1385.167 676.667 OFFCURVE",
"1299.5 754 CURVE SMOOTH",
"1213.833 831.333 OFFCURVE",
"1090.333 870 OFFCURVE",
"929 870 CURVE SMOOTH"
);
},
{
closed = 1;
nodes = (
"561 703 LINE",
"929 703 LINE SMOOTH",
"1029.667 703 OFFCURVE",
"1107 677.667 OFFCURVE",
"1161 627 CURVE SMOOTH",
"1215 576.333 OFFCURVE",
"1242 515.667 OFFCURVE",
"1242 445 CURVE SMOOTH",
"1242 397 OFFCURVE",
"1229.833 351.667 OFFCURVE",
"1205.5 309 CURVE SMOOTH",
"1181.167 266.333 OFFCURVE",
"1145.833 231.667 OFFCURVE",
"1099.5 205 CURVE SMOOTH",
"1053.167 178.333 OFFCURVE",
"996.333 165 OFFCURVE",
"929 165 CURVE SMOOTH",
"561 165 LINE"
);
}
);
userData = {
assembly = "NPUSHB[ ]	/* 44 values pushed */\0120 0 6 1 5 4 0 5 103 0 2 2 3 95 0 3 3 103 77 0 4 4 1 95 0 1 1 104 1 78 13 13 13 22 13 21 34 17 17 36 32 7 12 27 \012CALL[ ]	/* CallFunction */";
};
width = 1470;
}
);
note = uni0184;
unicode = 0184;
},
{
glyphname = Tonetwo;
lastChange = "2024-07-06 19:21:01 +0000";
layers = (
{
layerId = "67E838D8-D572-4887-B173-0E3F5AAC2F16";
paths = (
{
closed = 1;
nodes = (
"818.333 -26 OFFCURVE",
"946.667 12.167 OFFCURVE",
"1042 88.5 CURVE SMOOTH",
"1108 141 OFFCURVE",
"1153 205 OFFCURVE",
"1177 280 CURVE SMOOTH",
"1199 348 OFFCURVE",
"1159 390 OFFCURVE",
"1093 390 CURVE SMOOTH",
"1033 390 OFFCURVE",
"1007 360 OFFCURVE",
"981 303 CURVE SMOOTH",
"972 284 OFFCURVE",
"961 267 OFFCURVE",
"946.5 251.5 CURVE SMOOTH",
"913.5 215.167 OFFCURVE",
"871.667 188.167 OFFCURVE",
"821 170.5 CURVE SMOOTH",
"770.333 152.833 OFFCURVE",
"715.667 144 OFFCURVE",
"657 144 CURVE SMOOTH",
"589.667 144 OFFCURVE",
"529.167 155 OFFCURVE",
"475.5 177 CURVE SMOOTH",
"421.833 199 OFFCURVE",
"379.333 230 OFFCURVE",
"348 270 CURVE SMOOTH",
"316.667 310 OFFCURVE",
"301 356.333 OFFCURVE",
"301 409 CURVE SMOOTH",
"301 457 OFFCURVE",
"314.5 496 OFFCURVE",
"341.5 526 CURVE SMOOTH",
"368.5 556 OFFCURVE",
"404.5 580.667 OFFCURVE",
"449.5 600 CURVE SMOOTH",
"494.5 619.333 OFFCURVE",
"543.333 636.333 OFFCURVE",
"596 651 CURVE SMOOTH",
"776 702 LINE SMOOTH",
"896 736 OFFCURVE",
"989.333 784.667 OFFCURVE",
"1056 848 CURVE SMOOTH",
"1122.667 911.333 OFFCURVE",
"1156 992.333 OFFCURVE",
"1156 1091 CURVE SMOOTH",
"1156 1175 OFFCURVE",
"1133.333 1248.5 OFFCURVE",
"1088 1311.5 CURVE SMOOTH",
"1042.667 1374.5 OFFCURVE",
"981.333 1423.333 OFFCURVE",
"904 1458 CURVE SMOOTH",
"826.667 1492.667 OFFCURVE",
"740 1510 OFFCURVE",
"644 1510 CURVE SMOOTH",
"546 1510 OFFCURVE",
"459.333 1492.667 OFFCURVE",
"384 1458 CURVE SMOOTH",
"308.667 1423.333 OFFCURVE",
"249.333 1376.167 OFFCURVE",
"206 1316.5 CURVE SMOOTH",
"184 1286 OFFCURVE",
"167 1255 OFFCURVE",
"156 1221 CURVE SMOOTH",
"134 1155 OFFCURVE",
"173 1114 OFFCURVE",
"234 1114 CURVE SMOOTH",
"293 1114 OFFCURVE",
"319 1144 OFFCURVE",
"347 1198 CURVE SMOOTH",
"365 1232 OFFCURVE",
"391 1260 OFFCURVE",
"426 1282.5 CURVE SMOOTH",
"486.667 1322.167 OFFCURVE",
"561.333 1342 OFFCURVE",
"650 1342 CURVE SMOOTH",
"746.667 1342 OFFCURVE",
"824.333 1319.167 OFFCURVE",
"883 1273.5 CURVE SMOOTH",
"941.667 1227.833 OFFCURVE",
"971 1170 OFFCURVE",
"971 1100 CURVE SMOOTH",
"971 1048 OFFCURVE",
"954.833 1006.167 OFFCURVE",
"922.5 974.5 CURVE SMOOTH",
"890.167 942.833 OFFCURVE",
"852 918.167 OFFCURVE",
"808 900.5 CURVE SMOOTH",
"764 882.833 OFFCURVE",
"723.667 869 OFFCURVE",
"687 859 CURVE SMOOTH",
"538 818 LINE SMOOTH",
"498 807.333 OFFCURVE",
"453.833 792.667 OFFCURVE",
"405.5 774 CURVE SMOOTH",
"357.167 755.333 OFFCURVE",
"311 730.5 OFFCURVE",
"267 699.5 CURVE SMOOTH",
"223 668.5 OFFCURVE",
"186.833 629.167 OFFCURVE",
"158.5 581.5 CURVE SMOOTH",
"130.167 533.833 OFFCURVE",
"116 475.333 OFFCURVE",
"116 406 CURVE SMOOTH",
"116 324.667 OFFCURVE",
"137.167 251.333 OFFCURVE",
"179.5 186 CURVE SMOOTH",
"221.833 120.667 OFFCURVE",
"283.333 69 OFFCURVE",
"364 31 CURVE SMOOTH",
"444.667 -7 OFFCURVE",
"542.333 -26 OFFCURVE",
"657 -26 CURVE SMOOTH"
);
}
);
userData = {
assembly = "NPUSHB[ ]	/* 56 values pushed */\0120 2 1 5 1 2 5 128 0 5 4 1 5 4 126 0 1 1 3 97 0 3 3 109 77 0 4 4 0 97 6 1 0 0 113 0 78 1 0 46 45 42 40 26 24 21 20 18 16 0 48 1 48 7 12 22 \012CALL[ ]	/* CallFunction */";
};
width = 1314;
}
);
leftKerningGroup = S;
note = uni01A7;
rightKerningGroup = B;
unicode = 01A7;
},
{
glyphname = Tretroflexhook;
lastChange = "2024-07-06 19:21:01 +0000";
layers = (
{
layerId = "67E838D8-D572-4887-B173-0E3F5AAC2F16";
paths = (
{
closed = 1;
nodes = (
"868 -427 OFFCURVE",
"879 -427 OFFCURVE",
"889 -427 CURVE SMOOTH",
"943 -425 OFFCURVE",
"971 -385 OFFCURVE",
"971 -322 CURVE SMOOTH",
"971 -264 LINE",
"961 -265.333 OFFCURVE",
"950.667 -266.333 OFFCURVE",
"940 -267 CURVE SMOOTH",
"913 -268 LINE",
"857.667 -268 OFFCURVE",
"817.833 -260.5 OFFCURVE",
"793.5 -245.5 CURVE SMOOTH",
"769.167 -230.5 OFFCURVE",
"757 -205.667 OFFCURVE",
"757 -171 CURVE SMOOTH",
"757 1322 LINE",
"1123 1322 LINE SMOOTH",
"1188 1322 OFFCURVE",
"1224 1352 OFFCURVE",
"1224 1406 CURVE SMOOTH",
"1224 1460 OFFCURVE",
"1188 1490 OFFCURVE",
"1123 1490 CURVE SMOOTH",
"199 1490 LINE SMOOTH",
"134 1490 OFFCURVE",
"98 1460 OFFCURVE",
"98 1406 CURVE SMOOTH",
"98 1352 OFFCURVE",
"134 1322 OFFCURVE",
"199 1322 CURVE SMOOTH",
"567 1322 LINE",
"567 -171 LINE SMOOTH",
"567 -253.667 OFFCURVE",
"591.667 -317 OFFCURVE",
"641 -361 CURVE SMOOTH",
"690.333 -405 OFFCURVE",
"762.333 -427 OFFCURVE",
"857 -427 CURVE SMOOTH"
);
}
);
userData = {
assembly = "NPUSHB[ ]	/* 46 values pushed */\01217 1 0 4 1 76 3 1 1 1 2 95 0 2 2 103 77 0 4 4 0 97 5 1 0 0 114 0 78 1 0 15 12 9 8 7 6 5 4 0 18 1 18 6 12 22 \012CALL[ ]	/* CallFunction */";
};
width = 1322;
}
);
leftKerningGroup = "Kabashkir-cy";
note = Trthook;
rightKerningGroup = "Enghe-cy";
unicode = 01AE;
},
{
glyphname = U;
lastChange = "2024-07-06 19:21:01 +0000";
layers = (
{
layerId = "67E838D8-D572-4887-B173-0E3F5AAC2F16";
paths = (
{
closed = 1;
nodes = (
"880.333 -24 OFFCURVE",
"982.5 -1 OFFCURVE",
"1069.5 45 CURVE SMOOTH",
"1156.5 91 OFFCURVE",
"1224 154 OFFCURVE",
"1272 234 CURVE SMOOTH",
"1320 314 OFFCURVE",
"1344 405 OFFCURVE",
"1344 507 CURVE SMOOTH",
"1344 1389 LINE SMOOTH",
"1344 1454 OFFCURVE",
"1310 1490 OFFCURVE",
"1249 1490 CURVE SMOOTH",
"1188 1490 OFFCURVE",
"1154 1454 OFFCURVE",
"1154 1389 CURVE SMOOTH",
"1154 522 LINE SMOOTH",
"1154 450.667 OFFCURVE",
"1138.333 387.167 OFFCURVE",
"1107 331.5 CURVE SMOOTH",
"1075.667 275.833 OFFCURVE",
"1030.833 232 OFFCURVE",
"972.5 200 CURVE SMOOTH",
"914.167 168 OFFCURVE",
"844.333 152 OFFCURVE",
"763 152 CURVE SMOOTH",
"681.667 152 OFFCURVE",
"611.667 168 OFFCURVE",
"553 200 CURVE SMOOTH",
"494.333 232 OFFCURVE",
"449.167 275.833 OFFCURVE",
"417.5 331.5 CURVE SMOOTH",
"385.833 387.167 OFFCURVE",
"370 450.667 OFFCURVE",
"370 522 CURVE SMOOTH",
"370 1389 LINE SMOOTH",
"370 1454 OFFCURVE",
"336 1490 OFFCURVE",
"275 1490 CURVE SMOOTH",
"214 1490 OFFCURVE",
"180 1454 OFFCURVE",
"180 1389 CURVE SMOOTH",
"180 507 LINE SMOOTH",
"180 405 OFFCURVE",
"204 314 OFFCURVE",
"252 234 CURVE SMOOTH",
"300 154 OFFCURVE",
"367.833 91 OFFCURVE",
"455.5 45 CURVE SMOOTH",
"543.167 -1 OFFCURVE",
"645.667 -24 OFFCURVE",
"763 -24 CURVE SMOOTH"
);
}
);
userData = {
assembly = "NPUSHB[ ]	/* 33 values pushed */\0123 1 1 1 103 77 0 2 2 0 97 4 1 0 0 113 0 78 1 0 17 16 12 10 6 5 0 21 1 21 5 12 22 \012CALL[ ]	/* CallFunction */";
};
width = 1524;
}
);
leftKerningGroup = U;
note = U;
rightKerningGroup = J;
unicode = 0055;
},
{
glyphname = Ubar;
lastChange = "2024-07-06 19:21:01 +0000";
layers = (
{
layerId = "67E838D8-D572-4887-B173-0E3F5AAC2F16";
paths = (
{
closed = 1;
nodes = (
"1524 843 OFFCURVE",
"1488 864 OFFCURVE",
"1423 864 CURVE SMOOTH",
"1344 864 LINE",
"1344 1389 LINE SMOOTH",
"1344 1454 OFFCURVE",
"1310 1490 OFFCURVE",
"1249 1490 CURVE SMOOTH",
"1188 1490 OFFCURVE",
"1154 1454 OFFCURVE",
"1154 1389 CURVE SMOOTH",
"1154 864 LINE",
"370 864 LINE",
"370 1389 LINE SMOOTH",
"370 1454 OFFCURVE",
"336 1490 OFFCURVE",
"275 1490 CURVE SMOOTH",
"214 1490 OFFCURVE",
"180 1454 OFFCURVE",
"180 1389 CURVE SMOOTH",
"180 864 LINE",
"87 864 LINE SMOOTH",
"27 864 OFFCURVE",
"-6 843 OFFCURVE",
"-6 804 CURVE SMOOTH",
"-6 765 OFFCURVE",
"30 744 OFFCURVE",
"95 744 CURVE SMOOTH",
"180 744 LINE",
"180 507 LINE SMOOTH",
"180 405 OFFCURVE",
"204 314 OFFCURVE",
"252 234 CURVE SMOOTH",
"300 154 OFFCURVE",
"367.833 91 OFFCURVE",
"455.5 45 CURVE SMOOTH",
"543.167 -1 OFFCURVE",
"645.667 -24 OFFCURVE",
"763 -24 CURVE SMOOTH",
"880.333 -24 OFFCURVE",
"982.5 -1 OFFCURVE",
"1069.5 45 CURVE SMOOTH",
"1156.5 91 OFFCURVE",
"1224 154 OFFCURVE",
"1272 234 CURVE SMOOTH",
"1320 314 OFFCURVE",
"1344 405 OFFCURVE",
"1344 507 CURVE SMOOTH",
"1344 744 LINE",
"1434 744 LINE SMOOTH",
"1492 744 OFFCURVE",
"1524 765 OFFCURVE",
"1524 804 CURVE SMOOTH"
);
},
{
closed = 1;
nodes = (
"1154 744 LINE",
"1154 522 LINE SMOOTH",
"1154 450.667 OFFCURVE",
"1138.333 387.167 OFFCURVE",
"1107 331.5 CURVE SMOOTH",
"1075.667 275.833 OFFCURVE",
"1030.833 232 OFFCURVE",
"972.5 200 CURVE SMOOTH",
"914.167 168 OFFCURVE",
"844.333 152 OFFCURVE",
"763 152 CURVE SMOOTH",
"681.667 152 OFFCURVE",
"611.667 168 OFFCURVE",
"553 200 CURVE SMOOTH",
"494.333 232 OFFCURVE",
"449.167 275.833 OFFCURVE",
"417.5 331.5 CURVE SMOOTH",
"385.833 387.167 OFFCURVE",
"370 450.667 OFFCURVE",
"370 522 CURVE SMOOTH",
"370 744 LINE"
);
}
);
userData = {
assembly = "NPUSHB[ ]	/* 50 values pushed */\01210 7 5 3 3 8 2 2 0 9 3 0 103 6 1 4 4 103 77 0 9 9 1 97 0 1 1 113 1 78 0 0 30 28 24 23 0 22 0 22 17 17 17 17 20 36 17 11 12 29 \012CALL[ ]	/* CallFunction */";
};
width = 1518;
}
);
leftKerningGroup = U;
note = uni0244;
rightKerningGroup = J;
unicode = 0244;
},
{
glyphname = Uhorn;
lastChange = "2024-07-06 19:21:01 +0000";
layers = (
{
layerId = "67E838D8-D572-4887-B173-0E3F5AAC2F16";
paths = (
{
closed = 1;
nodes = (
"880.333 -24 OFFCURVE",
"982.5 -1 OFFCURVE",
"1069.5 45 CURVE SMOOTH",
"1156.5 91 OFFCURVE",
"1224 154 OFFCURVE",
"1272 234 CURVE SMOOTH",
"1320 314 OFFCURVE",
"1344 405 OFFCURVE",
"1344 507 CURVE SMOOTH",
"1344 1346 LINE",
"1356 1346 LINE SMOOTH",
"1469.333 1346 OFFCURVE",
"1526 1402.667 OFFCURVE",
"1526 1516 CURVE SMOOTH",
"1526 1597 LINE SMOOTH",
"1526 1662 OFFCURVE",
"1496 1698 OFFCURVE",
"1441 1698 CURVE SMOOTH",
"1386 1698 OFFCURVE",
"1356 1662 OFFCURVE",
"1356 1597 CURVE SMOOTH",
"1356 1508 LINE SMOOTH",
"1356 1496 OFFCURVE",
"1350 1490 OFFCURVE",
"1338 1490 CURVE SMOOTH",
"1255 1490 LINE SMOOTH",
"1190 1490 OFFCURVE",
"1154 1454 OFFCURVE",
"1154 1389 CURVE SMOOTH",
"1154 522 LINE SMOOTH",
"1154 450.667 OFFCURVE",
"1138.333 387.167 OFFCURVE",
"1107 331.5 CURVE SMOOTH",
"1075.667 275.833 OFFCURVE",
"1030.833 232 OFFCURVE",
"972.5 200 CURVE SMOOTH",
"914.167 168 OFFCURVE",
"844.333 152 OFFCURVE",
"763 152 CURVE SMOOTH",
"681.667 152 OFFCURVE",
"611.667 168 OFFCURVE",
"553 200 CURVE SMOOTH",
"494.333 232 OFFCURVE",
"449.167 275.833 OFFCURVE",
"417.5 331.5 CURVE SMOOTH",
"385.833 387.167 OFFCURVE",
"370 450.667 OFFCURVE",
"370 522 CURVE SMOOTH",
"370 1389 LINE SMOOTH",
"370 1454 OFFCURVE",
"336 1490 OFFCURVE",
"275 1490 CURVE SMOOTH",
"214 1490 OFFCURVE",
"180 1454 OFFCURVE",
"180 1389 CURVE SMOOTH",
"180 507 LINE SMOOTH",
"180 405 OFFCURVE",
"204 314 OFFCURVE",
"252 234 CURVE SMOOTH",
"300 154 OFFCURVE",
"367.833 91 OFFCURVE",
"455.5 45 CURVE SMOOTH",
"543.167 -1 OFFCURVE",
"645.667 -24 OFFCURVE",
"763 -24 CURVE SMOOTH"
);
}
);
userData = {
assembly = "NPUSHB[ ]	/* 51 values pushed */\01219 1 1 4 1 76 0 4 0 5 2 4 5 105 3 1 1 1 103 77 0 2 2 0 97 6 1 0 0 113 0 78 1 0 24 23 21 20 17 16 12 10 6 5 0 29 1 29 7 12 22 \012CALL[ ]	/* CallFunction */";
};
width = 1518;
}
);
leftKerningGroup = U;
note = Uhorn;
rightKerningGroup = Uhorn;
unicode = 01AF;
},
{
glyphname = "Upsilon-latin";
lastChange = "2024-07-06 19:21:01 +0000";
layers = (
{
layerId = "67E838D8-D572-4887-B173-0E3F5AAC2F16";
paths = (
{
closed = 1;
nodes = (
"122 560.667 OFFCURVE",
"150.333 435.667 OFFCURVE",
"207 327 CURVE SMOOTH",
"263.667 218.333 OFFCURVE",
"341.833 133.333 OFFCURVE",
"441.5 72 CURVE SMOOTH",
"541.167 10.667 OFFCURVE",
"655 -20 OFFCURVE",
"783 -20 CURVE SMOOTH",
"911.667 -20 OFFCURVE",
"1025.833 10.667 OFFCURVE",
"1125.5 72 CURVE SMOOTH",
"1225.167 133.333 OFFCURVE",
"1303.333 218.333 OFFCURVE",
"1360 327 CURVE SMOOTH",
"1416.667 435.667 OFFCURVE",
"1445 560.667 OFFCURVE",
"1445 702 CURVE SMOOTH",
"1445 843.333 OFFCURVE",
"1417 965.167 OFFCURVE",
"1361 1067.5 CURVE SMOOTH",
"1305 1169.833 OFFCURVE",
"1229.667 1251 OFFCURVE",
"1135 1311 CURVE",
"1135 1323 LINE",
"1344 1323 LINE SMOOTH",
"1409 1323 OFFCURVE",
"1445 1353 OFFCURVE",
"1445 1407 CURVE SMOOTH",
"1445 1461 OFFCURVE",
"1409 1490 OFFCURVE",
"1344 1490 CURVE SMOOTH",
"1011 1490 LINE SMOOTH",
"946 1490 OFFCURVE",
"910 1454 OFFCURVE",
"910 1389 CURVE SMOOTH",
"910 1359 LINE SMOOTH",
"910 1303 OFFCURVE",
"935 1270 OFFCURVE",
"982 1239 CURVE SMOOTH",
"1018 1216 OFFCURVE",
"1052 1188 OFFCURVE",
"1084 1154 CURVE SMOOTH",
"1136.667 1098.667 OFFCURVE",
"1178.833 1032.667 OFFCURVE",
"1210.5 956 CURVE SMOOTH",
"1242.167 879.333 OFFCURVE",
"1258 795.333 OFFCURVE",
"1258 704 CURVE SMOOTH",
"1258 602 OFFCURVE",
"1237.667 509.5 OFFCURVE",
"1197 426.5 CURVE SMOOTH",
"1156.333 343.5 OFFCURVE",
"1100.333 277.667 OFFCURVE",
"1029 229 CURVE SMOOTH",
"957.667 180.333 OFFCURVE",
"875.667 156 OFFCURVE",
"783 156 CURVE SMOOTH",
"690.333 156 OFFCURVE",
"608.167 180.333 OFFCURVE",
"536.5 229 CURVE SMOOTH",
"464.833 277.667 OFFCURVE",
"408.667 343.5 OFFCURVE",
"368 426.5 CURVE SMOOTH",
"327.333 509.5 OFFCURVE",
"307 602 OFFCURVE",
"307 704 CURVE SMOOTH",
"307 795.333 OFFCURVE",
"323 879.333 OFFCURVE",
"355 956 CURVE SMOOTH",
"387 1032.667 OFFCURVE",
"429.5 1098.667 OFFCURVE",
"482.5 1154 CURVE SMOOTH",
"515 1188 OFFCURVE",
"549 1216 OFFCURVE",
"585 1239 CURVE SMOOTH",
"632 1269 OFFCURVE",
"657 1303 OFFCURVE",
"657 1359 CURVE SMOOTH",
"657 1389 LINE SMOOTH",
"657 1454 OFFCURVE",
"621 1490 OFFCURVE",
"556 1490 CURVE SMOOTH",
"223 1490 LINE SMOOTH",
"158 1490 OFFCURVE",
"122 1461 OFFCURVE",
"122 1407 CURVE SMOOTH",
"122 1353 OFFCURVE",
"158 1323 OFFCURVE",
"223 1323 CURVE SMOOTH",
"432 1323 LINE",
"432 1311 LINE",
"337.333 1249.667 OFFCURVE",
"262 1168.167 OFFCURVE",
"206 1066.5 CURVE SMOOTH",
"150 964.833 OFFCURVE",
"122 843.333 OFFCURVE",
"122 702 CURVE SMOOTH"
);
}
);
userData = {
assembly = "NPUSHB[ ]	/* 39 values pushed */\01224 8 2 2 0 1 76 4 1 0 0 1 95 3 1 1 1 103 77 0 2 2 5 97 0 5 5 110 5 78 39 17 24 40 17 35 6 12 28 \012CALL[ ]	/* CallFunction */";
};
width = 1567;
}
);
note = Upsilon2;
unicode = 01B1;
},
{
glyphname = V;
lastChange = "2024-07-06 19:21:01 +0000";
layers = (
{
layerId = "67E838D8-D572-4887-B173-0E3F5AAC2F16";
paths = (
{
closed = 1;
nodes = (
"733 0 LINE SMOOTH",
"791 0 OFFCURVE",
"828 26 OFFCURVE",
"848 81 CURVE SMOOTH",
"1319 1374 LINE SMOOTH",
"1344 1444 OFFCURVE",
"1315 1490 OFFCURVE",
"1246 1490 CURVE SMOOTH",
"1188 1490 OFFCURVE",
"1150 1463 OFFCURVE",
"1131 1408 CURVE SMOOTH",
"852 606 LINE SMOOTH",
"836 560 OFFCURVE",
"816.167 500.5 OFFCURVE",
"792.5 427.5 CURVE SMOOTH",
"768.833 354.5 OFFCURVE",
"741.333 263.333 OFFCURVE",
"710 154 CURVE",
"678.667 260.667 OFFCURVE",
"651.167 351.167 OFFCURVE",
"627.5 425.5 CURVE SMOOTH",
"603.833 499.833 OFFCURVE",
"583.667 560 OFFCURVE",
"567 606 CURVE SMOOTH",
"281 1409 LINE SMOOTH",
"261 1465 OFFCURVE",
"224 1490 OFFCURVE",
"166 1490 CURVE SMOOTH",
"152 1490 LINE SMOOTH",
"92 1490 OFFCURVE",
"69 1445 OFFCURVE",
"95 1374 CURVE SMOOTH",
"570 81 LINE SMOOTH",
"590 26 OFFCURVE",
"628 0 OFFCURVE",
"686 0 CURVE SMOOTH"
);
}
);
userData = {
assembly = "NPUSHB[ ]	/* 30 values pushed */\0126 1 2 0 1 76 1 1 0 0 103 77 3 1 2 2 104 2 78 0 0 0 12 0 12 24 17 4 12 24 \012CALL[ ]	/* CallFunction */";
};
width = 1413;
}
);
leftKerningGroup = V;
note = V;
rightKerningGroup = V;
unicode = 0056;
},
{
glyphname = "V-middleWelsh";
lastChange = "2024-07-06 19:21:01 +0000";
layers = (
{
layerId = "67E838D8-D572-4887-B173-0E3F5AAC2F16";
paths = (
{
closed = 1;
nodes = (
"643 772 OFFCURVE",
"664 760 OFFCURVE",
"683.5 744.5 CURVE SMOOTH",
"723.833 714.167 OFFCURVE",
"756.667 673.5 OFFCURVE",
"782 622.5 CURVE SMOOTH",
"807.333 571.5 OFFCURVE",
"820 509 OFFCURVE",
"820 435 CURVE SMOOTH",
"820 344.333 OFFCURVE",
"797.667 274 OFFCURVE",
"753 224 CURVE SMOOTH",
"708.333 174 OFFCURVE",
"645 149 OFFCURVE",
"563 149 CURVE SMOOTH",
"518.333 149 OFFCURVE",
"475.833 163.833 OFFCURVE",
"435.5 193.5 CURVE SMOOTH",
"395.167 223.167 OFFCURVE",
"362.333 266.833 OFFCURVE",
"337 324.5 CURVE SMOOTH",
"311.667 382.167 OFFCURVE",
"299 453 OFFCURVE",
"299 537 CURVE SMOOTH",
"299 667 LINE SMOOTH",
"299 837.667 OFFCURVE",
"334.833 975.5 OFFCURVE",
"406.5 1080.5 CURVE SMOOTH",
"463 1164 OFFCURVE",
"548 1224 OFFCURVE",
"660 1262 CURVE SMOOTH",
"721 1282 OFFCURVE",
"749 1317 OFFCURVE",
"739 1373 CURVE SMOOTH",
"729 1428 OFFCURVE",
"687 1454 OFFCURVE",
"622 1436 CURVE SMOOTH",
"540 1414 OFFCURVE",
"470 1385 OFFCURVE",
"411 1347.5 CURVE SMOOTH",
"329 1295.833 OFFCURVE",
"264.667 1232.333 OFFCURVE",
"218 1157 CURVE SMOOTH",
"171.333 1081.667 OFFCURVE",
"138.333 997.167 OFFCURVE",
"119 903.5 CURVE SMOOTH",
"99.667 809.833 OFFCURVE",
"90 709.333 OFFCURVE",
"90 602 CURVE SMOOTH",
"90 545 LINE SMOOTH",
"90 477 OFFCURVE",
"99.667 409.5 OFFCURVE",
"119 342.5 CURVE SMOOTH",
"138.333 275.5 OFFCURVE",
"167.667 214.667 OFFCURVE",
"207 160 CURVE SMOOTH",
"246.333 105.333 OFFCURVE",
"295.667 61.667 OFFCURVE",
"355 29 CURVE SMOOTH",
"414.333 -3.667 OFFCURVE",
"484 -20 OFFCURVE",
"564 -20 CURVE SMOOTH",
"715.333 -20 OFFCURVE",
"830.167 22.5 OFFCURVE",
"908.5 107.5 CURVE SMOOTH",
"986.833 192.5 OFFCURVE",
"1026 306.333 OFFCURVE",
"1026 449 CURVE SMOOTH",
"1026 537 OFFCURVE",
"1008.5 617 OFFCURVE",
"973.5 689 CURVE SMOOTH",
"938.5 761 OFFCURVE",
"890 821.833 OFFCURVE",
"828 871.5 CURVE SMOOTH",
"791 901 OFFCURVE",
"752 925 OFFCURVE",
"709 944 CURVE SMOOTH",
"649 971 OFFCURVE",
"603 947 OFFCURVE",
"584 893 CURVE SMOOTH",
"564 837 OFFCURVE",
"578 804 OFFCURVE",
"621 783 CURVE SMOOTH"
);
}
);
userData = {
assembly = "NPUSHB[ ]	/* 23 values pushed */\01220 19 1 3 1 74 0 1 1 0 97 0 0 0 110 0 78 29 27 39 2 12 23 \012CALL[ ]	/* CallFunction */";
};
width = 1116;
}
);
note = uni1EFC;
unicode = 1EFC;
},
{
glyphname = "Gamma-latin";
lastChange = "2024-07-06 19:21:01 +0000";
layers = (
{
layerId = "67E838D8-D572-4887-B173-0E3F5AAC2F16";
paths = (
{
closed = 1;
nodes = (
"70 1490 OFFCURVE",
"41 1443 OFFCURVE",
"72 1372 CURVE SMOOTH",
"553 271 LINE",
"515.667 184.333 OFFCURVE",
"483.667 112.333 OFFCURVE",
"457 55 CURVE SMOOTH",
"430.333 -2.333 OFFCURVE",
"409.833 -50.5 OFFCURVE",
"395.5 -89.5 CURVE SMOOTH",
"381.167 -128.5 OFFCURVE",
"374 -163.667 OFFCURVE",
"374 -195 CURVE SMOOTH",
"374 -274.333 OFFCURVE",
"398.667 -335.333 OFFCURVE",
"448 -378 CURVE SMOOTH",
"497.333 -420.667 OFFCURVE",
"565 -442 OFFCURVE",
"651 -442 CURVE SMOOTH",
"737.667 -442 OFFCURVE",
"805.5 -420.667 OFFCURVE",
"854.5 -378 CURVE SMOOTH",
"903.5 -335.333 OFFCURVE",
"928 -274.667 OFFCURVE",
"928 -196 CURVE SMOOTH",
"928 -151.333 OFFCURVE",
"911.167 -94.667 OFFCURVE",
"877.5 -26 CURVE SMOOTH",
"843.833 42.667 OFFCURVE",
"800.333 138.667 OFFCURVE",
"747 262 CURVE",
"1231 1372 LINE SMOOTH",
"1262 1443 OFFCURVE",
"1232 1490 OFFCURVE",
"1158 1490 CURVE SMOOTH",
"1101 1490 OFFCURVE",
"1063 1466 OFFCURVE",
"1041 1413 CURVE SMOOTH",
"649 494 LINE",
"261 1412 LINE SMOOTH",
"239 1465 OFFCURVE",
"201 1490 OFFCURVE",
"144 1490 CURVE SMOOTH"
);
},
{
closed = 1;
nodes = (
"679.333 -16.333 OFFCURVE",
"700.333 -65.167 OFFCURVE",
"715 -101.5 CURVE SMOOTH",
"729.667 -137.833 OFFCURVE",
"737 -168.667 OFFCURVE",
"737 -194 CURVE SMOOTH",
"737 -216 OFFCURVE",
"729 -235.167 OFFCURVE",
"713 -251.5 CURVE SMOOTH",
"697 -267.833 OFFCURVE",
"676.333 -276 OFFCURVE",
"651 -276 CURVE SMOOTH",
"625 -276 OFFCURVE",
"604.167 -268 OFFCURVE",
"588.5 -252 CURVE SMOOTH",
"572.833 -236 OFFCURVE",
"565 -216.667 OFFCURVE",
"565 -194 CURVE SMOOTH",
"565 -169.333 OFFCURVE",
"572.667 -138.667 OFFCURVE",
"588 -102 CURVE SMOOTH",
"603.333 -65.333 OFFCURVE",
"624.667 -16.333 OFFCURVE",
"652 45 CURVE"
);
}
);
userData = {
assembly = "NPUSHB[ ]	/* 32 values pushed */\01218 5 2 3 3 0 1 76 1 1 0 0 103 77 0 3 3 2 97 0 2 2 114 2 78 44 38 18 16 4 12 26 \012CALL[ ]	/* CallFunction */";
};
width = 1302;
}
);
leftKerningGroup = V;
note = Gamma1;
rightKerningGroup = V;
unicode = 0194;
},
{
glyphname = Vhook;
lastChange = "2024-07-06 19:21:01 +0000";
layers = (
{
layerId = "67E838D8-D572-4887-B173-0E3F5AAC2F16";
paths = (
{
closed = 1;
nodes = (
"745.333 -20 OFFCURVE",
"833.667 -1.667 OFFCURVE",
"915 35 CURVE SMOOTH",
"996.333 71.667 OFFCURVE",
"1061.667 126.667 OFFCURVE",
"1111 200 CURVE SMOOTH",
"1160.333 273.333 OFFCURVE",
"1185 364.667 OFFCURVE",
"1185 474 CURVE SMOOTH",
"1185 1155 LINE SMOOTH",
"1185 1269 OFFCURVE",
"1154.167 1356.667 OFFCURVE",
"1092.5 1418 CURVE SMOOTH",
"1030.833 1479.333 OFFCURVE",
"954.333 1510 OFFCURVE",
"863 1510 CURVE SMOOTH",
"841 1510 OFFCURVE",
"818.833 1508.333 OFFCURVE",
"796.5 1505 CURVE SMOOTH",
"786 1503 OFFCURVE",
"776 1502 OFFCURVE",
"766 1500 CURVE SMOOTH",
"746 1495 OFFCURVE",
"737 1462 OFFCURVE",
"737 1401 CURVE SMOOTH",
"737 1325 LINE",
"746.333 1327.667 OFFCURVE",
"758.167 1329.333 OFFCURVE",
"772.5 1330 CURVE SMOOTH",
"807 1331 LINE SMOOTH",
"858.333 1331 OFFCURVE",
"897.833 1318 OFFCURVE",
"925.5 1292 CURVE SMOOTH",
"953.167 1266 OFFCURVE",
"967 1220.333 OFFCURVE",
"967 1155 CURVE SMOOTH",
"967 474 LINE SMOOTH",
"967 363.333 OFFCURVE",
"938.333 282 OFFCURVE",
"881 230 CURVE SMOOTH",
"823.667 178 OFFCURVE",
"746.667 152 OFFCURVE",
"650 152 CURVE SMOOTH",
"552.667 152 OFFCURVE",
"475 178 OFFCURVE",
"417 230 CURVE SMOOTH",
"359 282 OFFCURVE",
"330 363.333 OFFCURVE",
"330 474 CURVE SMOOTH",
"330 1389 LINE SMOOTH",
"330 1454 OFFCURVE",
"294 1490 OFFCURVE",
"229 1490 CURVE SMOOTH",
"217 1490 LINE SMOOTH",
"152 1490 OFFCURVE",
"116 1454 OFFCURVE",
"116 1389 CURVE SMOOTH",
"116 474 LINE SMOOTH",
"116 364 OFFCURVE",
"139.5 272.5 OFFCURVE",
"186.5 199.5 CURVE SMOOTH",
"233.5 126.5 OFFCURVE",
"297.333 71.667 OFFCURVE",
"378 35 CURVE SMOOTH",
"458.667 -1.667 OFFCURVE",
"549.333 -20 OFFCURVE",
"650 -20 CURVE SMOOTH"
);
}
);
userData = {
assembly = "MPPEM[ ]	/* MeasurePixelPerEm */\012PUSHB[ ]	/* 1 value pushed */\01225 \012LT[ ]	/* LessThan */\012IF[ ]	/* If */\012PUSHB[ ]	/* 4 values pushed */\01221 1 1 74 \012ELSE[ ]	/* Else */\012PUSHB[ ]	/* 6 values pushed */\01221 1 1 4 1 76 \012EIF[ ]	/* EndIf */\012MPPEM[ ]	/* MeasurePixelPerEm */\012PUSHB[ ]	/* 1 value pushed */\01225 \012LT[ ]	/* LessThan */\012IF[ ]	/* If */\012NPUSHB[ ]	/* 23 values pushed */\0120 3 3 1 97 4 1 1 1 103 77 0 2 2 0 97 5 1 0 0 110 0 78 \012ELSE[ ]	/* Else */\012NPUSHB[ ]	/* 27 values pushed */\0120 1 1 103 77 0 3 3 4 97 0 4 4 109 77 0 2 2 0 97 5 1 0 0 110 0 78 \012EIF[ ]	/* EndIf */\012NPUSHB[ ]	/* 17 values pushed */\0121 0 25 23 19 16 11 9 6 5 0 31 1 31 6 12 22 \012CALL[ ]	/* CallFunction */";
};
width = 1299;
}
);
note = Vcursive;
unicode = 01B2;
},
{
glyphname = Vturned;
lastChange = "2024-07-06 19:21:01 +0000";
layers = (
{
layerId = "67E838D8-D572-4887-B173-0E3F5AAC2F16";
paths = (
{
closed = 1;
nodes = (
"1255 0 LINE SMOOTH",
"1329 0 OFFCURVE",
"1361 46 OFFCURVE",
"1336 116 CURVE SMOOTH",
"869 1409 LINE SMOOTH",
"849 1465 OFFCURVE",
"812 1490 OFFCURVE",
"754 1490 CURVE SMOOTH",
"733 1490 LINE SMOOTH",
"675 1490 OFFCURVE",
"638 1465 OFFCURVE",
"618 1409 CURVE SMOOTH",
"152 116 LINE SMOOTH",
"127 45 OFFCURVE",
"159 0 OFFCURVE",
"233 0 CURVE SMOOTH",
"260 0 LINE SMOOTH",
"319 0 OFFCURVE",
"356 27 OFFCURVE",
"374 83 CURVE SMOOTH",
"742 1205 LINE",
"1116 83 LINE SMOOTH",
"1135 27 OFFCURVE",
"1171 0 OFFCURVE",
"1230 0 CURVE SMOOTH"
);
}
);
userData = {
assembly = "NPUSHB[ ]	/* 30 values pushed */\0121 1 0 1 1 76 0 1 1 103 77 3 2 2 0 0 104 0 78 0 0 0 6 0 6 17 18 4 12 24 \012CALL[ ]	/* CallFunction */";
};
width = 1486;
}
);
note = uni0245;
unicode = 0245;
},
{
glyphname = W;
lastChange = "2024-07-06 19:21:01 +0000";
layers = (
{
layerId = "67E838D8-D572-4887-B173-0E3F5AAC2F16";
paths = (
{
closed = 1;
nodes = (
"591 0 LINE SMOOTH",
"651 0 OFFCURVE",
"687 28 OFFCURVE",
"703 86 CURVE SMOOTH",
"935 944 LINE SMOOTH",
"949.667 998 OFFCURVE",
"962.667 1051.5 OFFCURVE",
"974 1104.5 CURVE SMOOTH",
"985.333 1157.5 OFFCURVE",
"996.667 1214.333 OFFCURVE",
"1008 1275 CURVE",
"1019.333 1209.667 OFFCURVE",
"1031.167 1150 OFFCURVE",
"1043.5 1096 CURVE SMOOTH",
"1055.833 1042 OFFCURVE",
"1068.333 991.333 OFFCURVE",
"1081 944 CURVE SMOOTH",
"1314 86 LINE SMOOTH",
"1330 28 OFFCURVE",
"1366 0 OFFCURVE",
"1426 0 CURVE SMOOTH",
"1469 0 LINE SMOOTH",
"1529 0 OFFCURVE",
"1566 28 OFFCURVE",
"1582 86 CURVE SMOOTH",
"1935 1377 LINE SMOOTH",
"1954 1446 OFFCURVE",
"1925 1490 OFFCURVE",
"1860 1490 CURVE SMOOTH",
"1800 1490 OFFCURVE",
"1763 1461 OFFCURVE",
"1748 1403 CURVE SMOOTH",
"1535 576 LINE SMOOTH",
"1519 512.667 OFFCURVE",
"1503.5 448.5 OFFCURVE",
"1488.5 383.5 CURVE SMOOTH",
"1473.5 318.5 OFFCURVE",
"1459.667 251.667 OFFCURVE",
"1447 183 CURVE",
"1419.667 320.333 OFFCURVE",
"1389.333 451.333 OFFCURVE",
"1356 576 CURVE SMOOTH",
"1140 1403 LINE SMOOTH",
"1125 1462 OFFCURVE",
"1087 1490 OFFCURVE",
"1027 1490 CURVE SMOOTH",
"990 1490 LINE SMOOTH",
"930 1490 OFFCURVE",
"893 1463 OFFCURVE",
"878 1404 CURVE SMOOTH",
"660 576 LINE SMOOTH",
"642.667 512 OFFCURVE",
"626.667 447 OFFCURVE",
"612 381 CURVE SMOOTH",
"597.333 315 OFFCURVE",
"583.333 247 OFFCURVE",
"570 177 CURVE",
"556.667 247 OFFCURVE",
"542.667 315 OFFCURVE",
"528 381 CURVE SMOOTH",
"513.333 447 OFFCURVE",
"498 512 OFFCURVE",
"482 576 CURVE SMOOTH",
"268 1403 LINE SMOOTH",
"253 1462 OFFCURVE",
"216 1490 OFFCURVE",
"156 1490 CURVE SMOOTH",
"149 1490 LINE SMOOTH",
"89 1490 OFFCURVE",
"64 1446 OFFCURVE",
"83 1377 CURVE SMOOTH",
"435 86 LINE SMOOTH",
"451 28 OFFCURVE",
"487 0 OFFCURVE",
"547 0 CURVE SMOOTH"
);
}
);
userData = {
assembly = "NPUSHB[ ]	/* 36 values pushed */\01225 14 6 3 3 0 1 76 2 1 2 0 0 103 77 5 4 2 3 3 104 3 78 0 0 0 29 0 29 17 23 24 17 6 12 26 \012CALL[ ]	/* CallFunction */";
};
width = 2018;
}
);
leftKerningGroup = W;
note = W;
rightKerningGroup = W;
unicode = 0057;
},
{
glyphname = Wynn;
lastChange = "2024-07-06 19:21:01 +0000";
layers = (
{
layerId = "67E838D8-D572-4887-B173-0E3F5AAC2F16";
paths = (
{
closed = 1;
nodes = (
"330 1477 OFFCURVE",
"294 1490 OFFCURVE",
"229 1490 CURVE SMOOTH",
"215 1490 LINE SMOOTH",
"150 1490 OFFCURVE",
"114 1454 OFFCURVE",
"114 1389 CURVE SMOOTH",
"114 -317 LINE SMOOTH",
"114 -382 OFFCURVE",
"150 -418 OFFCURVE",
"215 -418 CURVE SMOOTH",
"229 -418 LINE SMOOTH",
"294 -418 OFFCURVE",
"330 -382 OFFCURVE",
"330 -317 CURVE SMOOTH",
"330 -161 LINE",
"454 -133.667 OFFCURVE",
"568.167 -89.5 OFFCURVE",
"672.5 -28.5 CURVE SMOOTH",
"776.833 32.5 OFFCURVE",
"867.5 106.667 OFFCURVE",
"944.5 194 CURVE SMOOTH",
"1021.5 281.333 OFFCURVE",
"1081.333 378.833 OFFCURVE",
"1124 486.5 CURVE SMOOTH",
"1166.667 594.167 OFFCURVE",
"1188 708.333 OFFCURVE",
"1188 829 CURVE SMOOTH",
"1188 881 LINE SMOOTH",
"1188 1023 OFFCURVE",
"1163.5 1140.5 OFFCURVE",
"1114.5 1233.5 CURVE SMOOTH",
"1065.5 1326.5 OFFCURVE",
"996.833 1395.833 OFFCURVE",
"908.5 1441.5 CURVE SMOOTH",
"820.167 1487.167 OFFCURVE",
"717 1510 OFFCURVE",
"599 1510 CURVE SMOOTH",
"542.333 1510 OFFCURVE",
"492 1504.833 OFFCURVE",
"448 1494.5 CURVE SMOOTH",
"404 1484.167 OFFCURVE",
"364.667 1470 OFFCURVE",
"330 1452 CURVE"
);
},
{
closed = 1;
nodes = (
"330 1216 LINE",
"356 1254 OFFCURVE",
"390.667 1283.5 OFFCURVE",
"434 1304.5 CURVE SMOOTH",
"477.333 1325.5 OFFCURVE",
"533 1336 OFFCURVE",
"601 1336 CURVE SMOOTH",
"722.333 1336 OFFCURVE",
"814.667 1299.833 OFFCURVE",
"878 1227.5 CURVE SMOOTH",
"941.333 1155.167 OFFCURVE",
"973 1041 OFFCURVE",
"973 885 CURVE SMOOTH",
"973 829 LINE SMOOTH",
"973 747.667 OFFCURVE",
"960.167 665.333 OFFCURVE",
"934.5 582 CURVE SMOOTH",
"908.833 498.667 OFFCURVE",
"869.667 419.667 OFFCURVE",
"817 345 CURVE SMOOTH",
"764.333 270.333 OFFCURVE",
"697.5 204.333 OFFCURVE",
"616.5 147 CURVE SMOOTH",
"535.5 89.667 OFFCURVE",
"440 46 OFFCURVE",
"330 16 CURVE"
);
}
);
userData = {
assembly = "MPPEM[ ]	/* MeasurePixelPerEm */\012PUSHB[ ]	/* 1 value pushed */\01225 \012LT[ ]	/* LessThan */\012IF[ ]	/* If */\012NPUSHB[ ]	/* 12 values pushed */\0121 1 3 0 30 18 14 3 1 3 2 76 \012ELSE[ ]	/* Else */\012NPUSHB[ ]	/* 12 values pushed */\0121 1 3 2 30 18 14 3 1 3 2 76 \012EIF[ ]	/* EndIf */\012MPPEM[ ]	/* MeasurePixelPerEm */\012PUSHB[ ]	/* 1 value pushed */\01225 \012LT[ ]	/* LessThan */\012IF[ ]	/* If */\012NPUSHB[ ]	/* 18 values pushed */\0120 3 3 0 97 4 2 2 0 0 109 77 0 1 1 108 1 78 \012ELSE[ ]	/* Else */\012NPUSHB[ ]	/* 22 values pushed */\0124 1 2 2 103 77 0 3 3 0 97 0 0 0 109 77 0 1 1 108 1 78 \012EIF[ ]	/* EndIf */\012NPUSHB[ ]	/* 13 values pushed */\0120 0 28 26 0 17 0 17 26 35 5 12 24 \012CALL[ ]	/* CallFunction */";
};
width = 1302;
}
);
note = uni01F7;
unicode = 01F7;
},
{
glyphname = X;
lastChange = "2024-07-06 19:21:01 +0000";
layers = (
{
layerId = "67E838D8-D572-4887-B173-0E3F5AAC2F16";
paths = (
{
closed = 1;
nodes = (
"195 0 LINE SMOOTH",
"249 0 OFFCURVE",
"286 20 OFFCURVE",
"317 64 CURVE SMOOTH",
"536 378 LINE SMOOTH",
"574 432.667 OFFCURVE",
"604.667 478.167 OFFCURVE",
"628 514.5 CURVE SMOOTH",
"651.333 550.833 OFFCURVE",
"675 592.667 OFFCURVE",
"699 640 CURVE",
"723.667 591.333 OFFCURVE",
"747.333 549.167 OFFCURVE",
"770 513.5 CURVE SMOOTH",
"792.667 477.833 OFFCURVE",
"822.667 432.667 OFFCURVE",
"860 378 CURVE SMOOTH",
"1077 64 LINE SMOOTH",
"1108 20 OFFCURVE",
"1145 0 OFFCURVE",
"1199 0 CURVE SMOOTH",
"1231 0 LINE SMOOTH",
"1292 0 OFFCURVE",
"1303 55 OFFCURVE",
"1256 123 CURVE SMOOTH",
"811 770 LINE",
"1227 1367 LINE SMOOTH",
"1275 1435 OFFCURVE",
"1251 1490 OFFCURVE",
"1175 1490 CURVE SMOOTH",
"1121 1490 OFFCURVE",
"1084 1470 OFFCURVE",
"1053 1426 CURVE SMOOTH",
"878 1174 LINE SMOOTH",
"848.667 1131.333 OFFCURVE",
"824.167 1095 OFFCURVE",
"804.5 1065 CURVE SMOOTH",
"784.833 1035 OFFCURVE",
"767 1006.167 OFFCURVE",
"751 978.5 CURVE SMOOTH",
"735 950.833 OFFCURVE",
"718.333 919.667 OFFCURVE",
"701 885 CURVE",
"683 919.667 OFFCURVE",
"666.167 950.833 OFFCURVE",
"650.5 978.5 CURVE SMOOTH",
"634.833 1006.167 OFFCURVE",
"617.333 1035 OFFCURVE",
"598 1065 CURVE SMOOTH",
"578.667 1095 OFFCURVE",
"554.333 1131.333 OFFCURVE",
"525 1174 CURVE SMOOTH",
"354 1425 LINE SMOOTH",
"324 1470 OFFCURVE",
"286 1490 OFFCURVE",
"232 1490 CURVE SMOOTH",
"200 1490 LINE SMOOTH",
"139 1490 OFFCURVE",
"127 1436 OFFCURVE",
"174 1367 CURVE SMOOTH",
"591 763 LINE",
"143 123 LINE SMOOTH",
"95 55 OFFCURVE",
"105 0 OFFCURVE",
"165 0 CURVE SMOOTH"
);
}
);
userData = {
assembly = "NPUSHB[ ]	/* 35 values pushed */\01221 15 8 1 4 2 0 1 76 1 1 0 0 103 77 4 3 2 2 2 104 2 78 0 0 0 25 0 25 18 26 18 5 12 25 \012CALL[ ]	/* CallFunction */";
};
width = 1397;
}
);
leftKerningGroup = X;
note = X;
rightKerningGroup = X;
unicode = 0058;
},
{
glyphname = Y;
lastChange = "2024-07-06 19:21:01 +0000";
layers = (
{
layerId = "67E838D8-D572-4887-B173-0E3F5AAC2F16";
paths = (
{
closed = 1;
nodes = (
"600 101 LINE SMOOTH",
"600 36 OFFCURVE",
"634 0 OFFCURVE",
"695 0 CURVE SMOOTH",
"756 0 OFFCURVE",
"790 36 OFFCURVE",
"790 101 CURVE SMOOTH",
"790 610 LINE",
"1262 1368 LINE SMOOTH",
"1305 1438 OFFCURVE",
"1277 1490 OFFCURVE",
"1198 1490 CURVE SMOOTH",
"1143 1490 OFFCURVE",
"1107 1470 OFFCURVE",
"1078 1422 CURVE SMOOTH",
"825 1009 LINE SMOOTH",
"801 969.667 OFFCURVE",
"778.667 931.333 OFFCURVE",
"758 894 CURVE SMOOTH",
"737.333 856.667 OFFCURVE",
"717 814 OFFCURVE",
"697 766 CURVE",
"677 812.667 OFFCURVE",
"656.667 854.5 OFFCURVE",
"636 891.5 CURVE SMOOTH",
"615.333 928.5 OFFCURVE",
"592.333 967.667 OFFCURVE",
"567 1009 CURVE SMOOTH",
"314 1422 LINE SMOOTH",
"285 1469 OFFCURVE",
"248 1490 OFFCURVE",
"193 1490 CURVE SMOOTH",
"162 1490 LINE SMOOTH",
"100 1490 OFFCURVE",
"85 1438 OFFCURVE",
"128 1368 CURVE SMOOTH",
"600 610 LINE"
);
}
);
userData = {
assembly = "NPUSHB[ ]	/* 32 values pushed */\01213 7 1 3 2 0 1 76 1 1 0 0 103 77 3 1 2 2 104 2 78 0 0 0 14 0 14 24 18 4 12 24 \012CALL[ ]	/* CallFunction */";
};
width = 1390;
}
);
leftKerningGroup = Y;
note = Y;
rightKerningGroup = Y;
unicode = 0059;
},
{
glyphname = Yhook;
lastChange = "2024-07-06 19:21:01 +0000";
layers = (
{
layerId = "67E838D8-D572-4887-B173-0E3F5AAC2F16";
paths = (
{
closed = 1;
nodes = (
"114 1490 OFFCURVE",
"88 1438 OFFCURVE",
"131 1368 CURVE SMOOTH",
"597 611 LINE",
"597 101 LINE SMOOTH",
"597 36 OFFCURVE",
"631 0 OFFCURVE",
"692 0 CURVE SMOOTH",
"753 0 OFFCURVE",
"787 36 OFFCURVE",
"787 101 CURVE SMOOTH",
"787 611 LINE",
"1183 1258 LINE SMOOTH",
"1209 1300.667 OFFCURVE",
"1237.667 1326.333 OFFCURVE",
"1269 1335 CURVE SMOOTH",
"1285 1340 OFFCURVE",
"1302 1341 OFFCURVE",
"1320 1339 CURVE SMOOTH",
"1355 1335 OFFCURVE",
"1378 1351 OFFCURVE",
"1395 1402 CURVE SMOOTH",
"1411 1451 OFFCURVE",
"1388 1498 OFFCURVE",
"1323 1506 CURVE SMOOTH",
"1282 1511 OFFCURVE",
"1242 1508 OFFCURVE",
"1202 1495 CURVE SMOOTH",
"1130.667 1472.333 OFFCURVE",
"1070.667 1420.333 OFFCURVE",
"1022 1339 CURVE SMOOTH",
"700 798 LINE",
"684 798 LINE",
"313 1421 LINE SMOOTH",
"285 1469 OFFCURVE",
"247 1490 OFFCURVE",
"192 1490 CURVE SMOOTH"
);
}
);
userData = {
assembly = "NPUSHB[ ]	/* 26 values pushed */\01215 12 8 7 2 5 1 0 1 76 0 0 0 103 77 0 1 1 104 1 78 28 16 2 12 24 \012CALL[ ]	/* CallFunction */";
};
width = 1460;
}
);
leftKerningGroup = Y;
note = uni01B3;
rightKerningGroup = Y;
unicode = 01B3;
},
{
glyphname = Yloop;
lastChange = "2024-07-06 19:21:01 +0000";
layers = (
{
layerId = "67E838D8-D572-4887-B173-0E3F5AAC2F16";
paths = (
{
closed = 1;
nodes = (
"303 1490 LINE SMOOTH",
"224 1490 OFFCURVE",
"194 1440 OFFCURVE",
"231 1370 CURVE SMOOTH",
"628 624 LINE",
"603.333 638.667 OFFCURVE",
"576.333 650 OFFCURVE",
"547 658 CURVE SMOOTH",
"517.667 666 OFFCURVE",
"486.667 670 OFFCURVE",
"454 670 CURVE SMOOTH",
"390 670 OFFCURVE",
"331.833 654.333 OFFCURVE",
"279.5 623 CURVE SMOOTH",
"227.167 591.667 OFFCURVE",
"185.5 550 OFFCURVE",
"154.5 498 CURVE SMOOTH",
"123.5 446 OFFCURVE",
"108 388.333 OFFCURVE",
"108 325 CURVE SMOOTH",
"108 261 OFFCURVE",
"123.5 202.833 OFFCURVE",
"154.5 150.5 CURVE SMOOTH",
"185.5 98.167 OFFCURVE",
"227.167 56.667 OFFCURVE",
"279.5 26 CURVE SMOOTH",
"331.833 -4.667 OFFCURVE",
"390 -20 OFFCURVE",
"454 -20 CURVE SMOOTH",
"529.333 -20 OFFCURVE",
"596.667 1.833 OFFCURVE",
"656 45.5 CURVE SMOOTH",
"715.333 89.167 OFFCURVE",
"756.667 145 OFFCURVE",
"780 213 CURVE",
"1343 1371 LINE SMOOTH",
"1377 1442 OFFCURVE",
"1346 1490 OFFCURVE",
"1268 1490 CURVE SMOOTH",
"1246 1490 LINE SMOOTH",
"1189 1490 OFFCURVE",
"1152 1466 OFFCURVE",
"1128 1414 CURVE SMOOTH",
"800 702 LINE",
"444 1416 LINE SMOOTH",
"419 1466 OFFCURVE",
"381 1490 OFFCURVE",
"325 1490 CURVE SMOOTH"
);
},
{
closed = 1;
nodes = (
"410.667 166 OFFCURVE",
"374.167 179.5 OFFCURVE",
"344.5 206.5 CURVE SMOOTH",
"314.833 233.5 OFFCURVE",
"300 273 OFFCURVE",
"300 325 CURVE SMOOTH",
"300 379 OFFCURVE",
"314.833 419.5 OFFCURVE",
"344.5 446.5 CURVE SMOOTH",
"374.167 473.5 OFFCURVE",
"410.667 487 OFFCURVE",
"454 487 CURVE SMOOTH",
"495.333 487 OFFCURVE",
"530.833 473.5 OFFCURVE",
"560.5 446.5 CURVE SMOOTH",
"590.167 419.5 OFFCURVE",
"605 379 OFFCURVE",
"605 325 CURVE SMOOTH",
"605 273 OFFCURVE",
"590.167 233.5 OFFCURVE",
"560.5 206.5 CURVE SMOOTH",
"530.833 179.5 OFFCURVE",
"495.333 166 OFFCURVE",
"454 166 CURVE SMOOTH"
);
}
);
userData = {
assembly = "NPUSHB[ ]	/* 57 values pushed */\0121 1 2 0 18 1 5 2 2 76 0 2 0 5 4 2 5 106 6 3 2 0 0 103 77 7 1 4 4 1 97 0 1 1 110 1 78 21 20 0 0 27 25 20 31 21 31 0 19 0 19 38 35 18 8 12 25 \012CALL[ ]	/* CallFunction */";
};
width = 1491;
}
);
note = uni1EFE;
unicode = 1EFE;
},
{
glyphname = Yr;
lastChange = "2024-07-06 19:21:01 +0000";
layers = (
{
layerId = "67E838D8-D572-4887-B173-0E3F5AAC2F16";
paths = (
{
closed = 1;
nodes = (
"1376 -359 LINE",
"1376 -354 LINE SMOOTH",
"1376 -351 OFFCURVE",
"1367 -332 OFFCURVE",
"1344 -290 CURVE SMOOTH",
"832 657 LINE",
"922 691 OFFCURVE",
"992 742 OFFCURVE",
"1042 810 CURVE SMOOTH",
"1092 878 OFFCURVE",
"1117 958.667 OFFCURVE",
"1117 1052 CURVE SMOOTH",
"1117 1194 OFFCURVE",
"1072.833 1302.5 OFFCURVE",
"984.5 1377.5 CURVE SMOOTH",
"896.167 1452.5 OFFCURVE",
"768.667 1490 OFFCURVE",
"602 1490 CURVE SMOOTH",
"328 1490 LINE",
"328 1541 LINE SMOOTH",
"328 1574 OFFCURVE",
"292 1592 OFFCURVE",
"227 1592 CURVE SMOOTH",
"211 1592 LINE SMOOTH",
"146 1592 OFFCURVE",
"110 1556 OFFCURVE",
"110 1491 CURVE SMOOTH",
"110 101 LINE SMOOTH",
"110 36 OFFCURVE",
"146 0 OFFCURVE",
"211 0 CURVE SMOOTH",
"227 0 LINE SMOOTH",
"292 0 OFFCURVE",
"328 36 OFFCURVE",
"328 101 CURVE SMOOTH",
"328 617 LINE",
"626 617 LINE",
"1107 -287 LINE SMOOTH",
"1133 -337 OFFCURVE",
"1170 -359 OFFCURVE",
"1226 -359 CURVE SMOOTH"
);
},
{
closed = 1;
nodes = (
"328 788 LINE",
"328 1315 LINE",
"602 1315 LINE SMOOTH",
"709.333 1315 OFFCURVE",
"786.333 1290.833 OFFCURVE",
"833 1242.5 CURVE SMOOTH",
"879.667 1194.167 OFFCURVE",
"903 1130 OFFCURVE",
"903 1050 CURVE SMOOTH",
"903 976 OFFCURVE",
"877.833 913.833 OFFCURVE",
"827.5 863.5 CURVE SMOOTH",
"777.167 813.167 OFFCURVE",
"702 788 OFFCURVE",
"602 788 CURVE SMOOTH"
);
}
);
userData = {
assembly = "NPUSHB[ ]	/* 58 values pushed */\01214 1 0 5 1 76 7 1 4 1 4 134 0 5 0 0 1 5 0 103 0 6 6 3 95 0 3 3 103 77 0 2 2 1 95 0 1 1 104 1 78 0 0 25 23 19 17 0 16 0 15 33 17 17 17 8 12 26 \012CALL[ ]	/* CallFunction */";
};
width = 1486;
}
);
note = YR;
unicode = 01A6;
},
{
glyphname = Ystroke;
lastChange = "2024-07-06 19:21:01 +0000";
layers = (
{
layerId = "67E838D8-D572-4887-B173-0E3F5AAC2F16";
paths = (
{
closed = 1;
nodes = (
"1362 1163 OFFCURVE",
"1326 1184 OFFCURVE",
"1261 1184 CURVE SMOOTH",
"1147 1184 LINE",
"1262 1368 LINE SMOOTH",
"1305 1437 OFFCURVE",
"1277 1490 OFFCURVE",
"1198 1490 CURVE SMOOTH",
"1143 1490 OFFCURVE",
"1107 1470 OFFCURVE",
"1078 1422 CURVE SMOOTH",
"932 1184 LINE",
"460 1184 LINE",
"314 1422 LINE SMOOTH",
"285 1469 OFFCURVE",
"248 1490 OFFCURVE",
"193 1490 CURVE SMOOTH",
"162 1490 LINE SMOOTH",
"100 1490 OFFCURVE",
"85 1437 OFFCURVE",
"128 1368 CURVE SMOOTH",
"243 1184 LINE",
"107 1184 LINE SMOOTH",
"42 1184 OFFCURVE",
"6 1163 OFFCURVE",
"6 1124 CURVE SMOOTH",
"6 1085 OFFCURVE",
"42 1064 OFFCURVE",
"107 1064 CURVE SMOOTH",
"317 1064 LINE",
"600 610 LINE",
"600 101 LINE SMOOTH",
"600 36 OFFCURVE",
"634 0 OFFCURVE",
"695 0 CURVE SMOOTH",
"756 0 OFFCURVE",
"790 36 OFFCURVE",
"790 101 CURVE SMOOTH",
"790 610 LINE",
"1073 1064 LINE",
"1261 1064 LINE SMOOTH",
"1326 1064 OFFCURVE",
"1362 1085 OFFCURVE",
"1362 1124 CURVE SMOOTH"
);
},
{
closed = 1;
nodes = (
"859 1064 LINE",
"825 1009 LINE SMOOTH",
"801 969.667 OFFCURVE",
"778.667 931.333 OFFCURVE",
"758 894 CURVE SMOOTH",
"737.333 856.667 OFFCURVE",
"717 814 OFFCURVE",
"697 766 CURVE",
"677 812.667 OFFCURVE",
"656.667 854.5 OFFCURVE",
"636 891.5 CURVE SMOOTH",
"615.333 928.5 OFFCURVE",
"592.333 967.667 OFFCURVE",
"567 1009 CURVE SMOOTH",
"533 1064 LINE"
);
}
);
userData = {
assembly = "NPUSHB[ ]	/* 51 values pushed */\01223 6 3 3 1 0 1 76 9 7 5 3 3 8 2 2 0 1 3 0 104 6 1 4 4 103 77 0 1 1 104 1 78 0 0 19 18 0 17 0 17 17 17 17 17 18 18 17 10 12 29 \012CALL[ ]	/* CallFunction */";
};
width = 1368;
}
);
leftKerningGroup = Y;
note = uni024E;
rightKerningGroup = Y;
unicode = 024E;
},
{
glyphname = Z;
lastChange = "2024-07-06 19:21:01 +0000";
layers = (
{
layerId = "67E838D8-D572-4887-B173-0E3F5AAC2F16";
paths = (
{
closed = 1;
nodes = (
"130 23 OFFCURVE",
"166 0 OFFCURVE",
"231 0 CURVE SMOOTH",
"1065 0 LINE SMOOTH",
"1130 0 OFFCURVE",
"1166 30 OFFCURVE",
"1166 84 CURVE SMOOTH",
"1166 138 OFFCURVE",
"1130 168 OFFCURVE",
"1065 168 CURVE SMOOTH",
"640 168 LINE SMOOTH",
"590.667 168 OFFCURVE",
"541.5 167.667 OFFCURVE",
"492.5 167 CURVE SMOOTH",
"443.5 166.333 OFFCURVE",
"394.333 165 OFFCURVE",
"345 163 CURVE",
"372.333 198.333 OFFCURVE",
"399.167 234.167 OFFCURVE",
"425.5 270.5 CURVE SMOOTH",
"451.833 306.833 OFFCURVE",
"477.333 343 OFFCURVE",
"502 379 CURVE SMOOTH",
"1120 1297 LINE SMOOTH",
"1147 1338 OFFCURVE",
"1158 1373 OFFCURVE",
"1158 1422 CURVE SMOOTH",
"1158 1466 OFFCURVE",
"1122 1490 OFFCURVE",
"1057 1490 CURVE SMOOTH",
"223 1490 LINE SMOOTH",
"158 1490 OFFCURVE",
"122 1460 OFFCURVE",
"122 1406 CURVE SMOOTH",
"122 1352 OFFCURVE",
"158 1322 OFFCURVE",
"223 1322 CURVE SMOOTH",
"645 1322 LINE SMOOTH",
"694.333 1322 OFFCURVE",
"744 1322.333 OFFCURVE",
"794 1323 CURVE SMOOTH",
"844 1323.667 OFFCURVE",
"893.667 1325 OFFCURVE",
"943 1327 CURVE",
"917.667 1293.667 OFFCURVE",
"892.5 1260 OFFCURVE",
"867.5 1226 CURVE SMOOTH",
"842.5 1192 OFFCURVE",
"818.667 1158.333 OFFCURVE",
"796 1125 CURVE SMOOTH",
"168 191 LINE SMOOTH",
"141 150 OFFCURVE",
"130 115 OFFCURVE",
"130 67 CURVE SMOOTH"
);
}
);
userData = {
assembly = "NPUSHB[ ]	/* 44 values pushed */\01212 1 0 1 1 1 3 2 2 76 0 0 0 1 95 0 1 1 103 77 0 2 2 3 95 4 1 3 3 104 3 78 0 0 0 21 0 21 69 17 69 5 12 25 \012CALL[ ]	/* CallFunction */";
};
width = 1288;
}
);
leftKerningGroup = Z;
note = Z;
rightKerningGroup = Z;
unicode = 005A;
},
{
glyphname = Zhook;
lastChange = "2024-07-06 19:21:01 +0000";
layers = (
{
layerId = "67E838D8-D572-4887-B173-0E3F5AAC2F16";
paths = (
{
closed = 1;
nodes = (
"838 -426 OFFCURVE",
"856 -427 OFFCURVE",
"875 -427 CURVE SMOOTH",
"970.333 -427 OFFCURVE",
"1042.667 -405 OFFCURVE",
"1092 -361 CURVE SMOOTH",
"1141.333 -317 OFFCURVE",
"1166 -253.667 OFFCURVE",
"1166 -171 CURVE SMOOTH",
"1166 67 LINE SMOOTH",
"1166 132 OFFCURVE",
"1130 168 OFFCURVE",
"1065 168 CURVE SMOOTH",
"640 168 LINE SMOOTH",
"590.667 168 OFFCURVE",
"541.5 167.667 OFFCURVE",
"492.5 167 CURVE SMOOTH",
"443.5 166.333 OFFCURVE",
"394.333 165 OFFCURVE",
"345 163 CURVE",
"372.333 198.333 OFFCURVE",
"399.167 234.167 OFFCURVE",
"425.5 270.5 CURVE SMOOTH",
"451.833 306.833 OFFCURVE",
"477.333 343 OFFCURVE",
"502 379 CURVE SMOOTH",
"1120 1297 LINE SMOOTH",
"1147 1338 OFFCURVE",
"1158 1373 OFFCURVE",
"1158 1422 CURVE SMOOTH",
"1158 1466 OFFCURVE",
"1122 1490 OFFCURVE",
"1057 1490 CURVE SMOOTH",
"223 1490 LINE SMOOTH",
"158 1490 OFFCURVE",
"122 1460 OFFCURVE",
"122 1406 CURVE SMOOTH",
"122 1352 OFFCURVE",
"158 1322 OFFCURVE",
"223 1322 CURVE SMOOTH",
"645 1322 LINE SMOOTH",
"694.333 1322 OFFCURVE",
"744 1322.333 OFFCURVE",
"794 1323 CURVE SMOOTH",
"844 1323.667 OFFCURVE",
"893.667 1325 OFFCURVE",
"943 1327 CURVE",
"917.667 1293.667 OFFCURVE",
"892.5 1260 OFFCURVE",
"867.5 1226 CURVE SMOOTH",
"842.5 1192 OFFCURVE",
"818.667 1158.333 OFFCURVE",
"796 1125 CURVE SMOOTH",
"168 191 LINE SMOOTH",
"141 150 OFFCURVE",
"130 115 OFFCURVE",
"130 67 CURVE SMOOTH",
"130 24 OFFCURVE",
"166 0 OFFCURVE",
"231 0 CURVE SMOOTH",
"976 0 LINE",
"976 -163 LINE SMOOTH",
"976 -197.667 OFFCURVE",
"965.5 -223.167 OFFCURVE",
"944.5 -239.5 CURVE SMOOTH",
"923.5 -255.833 OFFCURVE",
"885.333 -264 OFFCURVE",
"830 -264 CURVE",
"803.5 -263 LINE SMOOTH",
"798 -263 OFFCURVE",
"793 -262 OFFCURVE",
"787 -261 CURVE SMOOTH",
"777 -260 OFFCURVE",
"771 -288 OFFCURVE",
"771 -339 CURVE SMOOTH",
"771 -391 OFFCURVE",
"788 -423 OFFCURVE",
"823 -425 CURVE SMOOTH"
);
}
);
userData = {
assembly = "NPUSHB[ ]	/* 58 values pushed */\01221 1 2 3 10 1 1 4 1 1 0 1 0 1 5 0 4 76 0 2 2 3 95 0 3 3 103 77 0 4 4 1 95 0 1 1 104 77 0 0 0 5 97 0 5 5 114 5 78 35 69 17 69 19 50 6 12 28 \012CALL[ ]	/* CallFunction */";
};
width = 1288;
}
);
leftKerningGroup = Z;
note = uni0224;
rightKerningGroup = Z;
unicode = 0224;
},
{
glyphname = Zswashtail;
lastChange = "2024-07-06 19:21:01 +0000";
layers = (
{
layerId = "67E838D8-D572-4887-B173-0E3F5AAC2F16";
paths = (
{
closed = 1;
nodes = (
"1081.333 -436 OFFCURVE",
"1108 -433.5 OFFCURVE",
"1128 -428.5 CURVE SMOOTH",
"1138 -426 OFFCURVE",
"1147 -423 OFFCURVE",
"1156 -420 CURVE SMOOTH",
"1175 -414 OFFCURVE",
"1183 -383 OFFCURVE",
"1183 -327 CURVE SMOOTH",
"1183 -275 OFFCURVE",
"1123 -256 OFFCURVE",
"1122.5 -255.5 CURVE SMOOTH",
"1100.833 -259.167 OFFCURVE",
"1076 -261 OFFCURVE",
"1048 -261 CURVE SMOOTH",
"1005.333 -261 OFFCURVE",
"965.667 -249 OFFCURVE",
"929 -225 CURVE SMOOTH",
"892.333 -201 OFFCURVE",
"855.167 -170.667 OFFCURVE",
"817.5 -134 CURVE SMOOTH",
"779.833 -97.333 OFFCURVE",
"739 -59.333 OFFCURVE",
"695 -20 CURVE SMOOTH",
"651 19.333 OFFCURVE",
"601.167 55.167 OFFCURVE",
"545.5 87.5 CURVE SMOOTH",
"489.833 119.833 OFFCURVE",
"425.333 143 OFFCURVE",
"352 157 CURVE",
"1120 1298 LINE SMOOTH",
"1147 1339 OFFCURVE",
"1158 1374 OFFCURVE",
"1158 1423 CURVE SMOOTH",
"1158 1466 OFFCURVE",
"1122 1490 OFFCURVE",
"1057 1490 CURVE SMOOTH",
"223 1490 LINE SMOOTH",
"158 1490 OFFCURVE",
"122 1460 OFFCURVE",
"122 1406 CURVE SMOOTH",
"122 1352 OFFCURVE",
"158 1322 OFFCURVE",
"223 1322 CURVE SMOOTH",
"928 1322 LINE",
"167 190 LINE SMOOTH",
"140 149 OFFCURVE",
"129 114 OFFCURVE",
"129 67 CURVE SMOOTH",
"129 24 OFFCURVE",
"165 0 OFFCURVE",
"230 0 CURVE SMOOTH",
"240 0 LINE SMOOTH",
"313.333 0 OFFCURVE",
"378.667 -14.667 OFFCURVE",
"436 -44 CURVE SMOOTH",
"493.333 -73.333 OFFCURVE",
"546.167 -109.667 OFFCURVE",
"594.5 -153 CURVE SMOOTH",
"642.833 -196.333 OFFCURVE",
"690 -239.667 OFFCURVE",
"736 -283 CURVE SMOOTH",
"782 -326.333 OFFCURVE",
"830.167 -362.667 OFFCURVE",
"880.5 -392 CURVE SMOOTH",
"930.833 -421.333 OFFCURVE",
"986.667 -436 OFFCURVE",
"1048 -436 CURVE SMOOTH"
);
}
);
userData = {
assembly = "NPUSHB[ ]	/* 63 values pushed */\01213 1 2 3 14 8 2 1 2 23 1 4 1 24 1 0 4 4 76 0 2 2 3 95 0 3 3 103 77 0 1 1 104 77 0 4 4 0 97 5 1 0 0 114 0 78 1 0 21 19 12 11 10 9 7 5 0 26 1 26 6 12 22 \012CALL[ ]	/* CallFunction */";
};
width = 1305;
}
);
leftKerningGroup = Z;
note = uni2C7F;
rightKerningGroup = Z;
unicode = 2C7F;
},
{
glyphname = G.1;
lastChange = "2024-07-06 19:21:01 +0000";
layers = (
{
layerId = "67E838D8-D572-4887-B173-0E3F5AAC2F16";
paths = (
{
closed = 1;
nodes = (
"865.333 -20 OFFCURVE",
"942.833 -4.333 OFFCURVE",
"1004.5 27 CURVE SMOOTH",
"1066.167 58.333 OFFCURVE",
"1114.667 99.833 OFFCURVE",
"1150 151.5 CURVE SMOOTH",
"1185.333 203.167 OFFCURVE",
"1210 260 OFFCURVE",
"1224 322 CURVE",
"1243 97 LINE SMOOTH",
"1248 34 OFFCURVE",
"1277 0 OFFCURVE",
"1326 0 CURVE SMOOTH",
"1374 0 OFFCURVE",
"1400 36 OFFCURVE",
"1400 101 CURVE SMOOTH",
"1400 648 LINE SMOOTH",
"1400 713 OFFCURVE",
"1364 749 OFFCURVE",
"1299 749 CURVE SMOOTH",
"928 749 LINE SMOOTH",
"863 749 OFFCURVE",
"827 720 OFFCURVE",
"827 666 CURVE SMOOTH",
"827 612 OFFCURVE",
"863 583 OFFCURVE",
"928 583 CURVE SMOOTH",
"1215 583 LINE",
"1208.333 451 OFFCURVE",
"1167.167 346.833 OFFCURVE",
"1091.5 270.5 CURVE SMOOTH",
"1015.833 194.167 OFFCURVE",
"915 156 OFFCURVE",
"789 156 CURVE SMOOTH",
"697.667 156 OFFCURVE",
"615.667 178.667 OFFCURVE",
"543 224 CURVE SMOOTH",
"470.333 269.333 OFFCURVE",
"412.833 335.667 OFFCURVE",
"370.5 423 CURVE SMOOTH",
"328.167 510.333 OFFCURVE",
"307 617.333 OFFCURVE",
"307 744 CURVE SMOOTH",
"307 872 OFFCURVE",
"328 979.833 OFFCURVE",
"370 1067.5 CURVE SMOOTH",
"412 1155.167 OFFCURVE",
"468.667 1221.5 OFFCURVE",
"540 1266.5 CURVE SMOOTH",
"611.333 1311.5 OFFCURVE",
"690.667 1334 OFFCURVE",
"778 1334 CURVE SMOOTH",
"883.333 1334 OFFCURVE",
"971.167 1306 OFFCURVE",
"1041.5 1250 CURVE SMOOTH",
"1091 1210 OFFCURVE",
"1131 1161 OFFCURVE",
"1161 1102 CURVE SMOOTH",
"1187 1049 OFFCURVE",
"1220 1023 OFFCURVE",
"1278 1023 CURVE SMOOTH",
"1291 1023 LINE SMOOTH",
"1351 1023 OFFCURVE",
"1383 1068 OFFCURVE",
"1357 1137 CURVE SMOOTH",
"1337 1188 OFFCURVE",
"1310 1235 OFFCURVE",
"1277 1277.5 CURVE SMOOTH",
"1220.333 1350.5 OFFCURVE",
"1149.167 1407.5 OFFCURVE",
"1063.5 1448.5 CURVE SMOOTH",
"977.833 1489.5 OFFCURVE",
"882.333 1510 OFFCURVE",
"777 1510 CURVE SMOOTH",
"649.667 1510 OFFCURVE",
"536.667 1479 OFFCURVE",
"438 1417 CURVE SMOOTH",
"339.333 1355 OFFCURVE",
"262 1266.833 OFFCURVE",
"206 1152.5 CURVE SMOOTH",
"150 1038.167 OFFCURVE",
"122 902 OFFCURVE",
"122 744 CURVE SMOOTH",
"122 587.333 OFFCURVE",
"150 451.833 OFFCURVE",
"206 337.5 CURVE SMOOTH",
"262 223.167 OFFCURVE",
"338.833 135 OFFCURVE",
"436.5 73 CURVE SMOOTH",
"534.167 11 OFFCURVE",
"646 -20 OFFCURVE",
"772 -20 CURVE SMOOTH"
);
}
);
userData = {
assembly = "PUSHB[ ]	/* 6 values pushed */\01233 1 4 5 1 76 \012MPPEM[ ]	/* MeasurePixelPerEm */\012PUSHB[ ]	/* 1 value pushed */\01225 \012LT[ ]	/* LessThan */\012IF[ ]	/* If */\012NPUSHB[ ]	/* 39 values pushed */\0120 2 3 6 3 2 6 128 0 6 0 5 4 6 5 103 0 3 3 1 97 0 1 1 109 77 0 4 4 0 97 7 8 2 0 0 110 0 78 \012ELSE[ ]	/* Else */\012NPUSHB[ ]	/* 43 values pushed */\0120 2 3 6 3 2 6 128 0 6 0 5 4 6 5 103 0 3 3 1 97 0 1 1 109 77 0 7 7 104 77 0 4 4 0 97 8 1 0 0 110 0 78 \012EIF[ ]	/* EndIf */\012NPUSHB[ ]	/* 23 values pushed */\0121 0 32 31 30 29 28 27 25 23 17 15 13 12 9 7 0 36 1 36 9 12 22 \012CALL[ ]	/* CallFunction */";
};
width = 1550;
}
);
leftKerningGroup = C;
note = G.1;
rightKerningGroup = G.1;
},
{
glyphname = Ghook.1;
lastChange = "2024-07-06 19:21:01 +0000";
layers = (
{
layerId = "67E838D8-D572-4887-B173-0E3F5AAC2F16";
paths = (
{
closed = 1;
nodes = (
"865.333 -20 OFFCURVE",
"942.833 -4.333 OFFCURVE",
"1004.5 27 CURVE SMOOTH",
"1066.167 58.333 OFFCURVE",
"1114.667 99.833 OFFCURVE",
"1150 151.5 CURVE SMOOTH",
"1185.333 203.167 OFFCURVE",
"1210 260 OFFCURVE",
"1224 322 CURVE",
"1243 97 LINE SMOOTH",
"1248 34 OFFCURVE",
"1277 0 OFFCURVE",
"1326 0 CURVE SMOOTH",
"1374 0 OFFCURVE",
"1400 36 OFFCURVE",
"1400 101 CURVE SMOOTH",
"1400 648 LINE SMOOTH",
"1400 713 OFFCURVE",
"1364 749 OFFCURVE",
"1299 749 CURVE SMOOTH",
"928 749 LINE SMOOTH",
"863 749 OFFCURVE",
"827 720 OFFCURVE",
"827 666 CURVE SMOOTH",
"827 612 OFFCURVE",
"863 583 OFFCURVE",
"928 583 CURVE SMOOTH",
"1215 583 LINE",
"1208.333 451 OFFCURVE",
"1167.167 346.833 OFFCURVE",
"1091.5 270.5 CURVE SMOOTH",
"1015.833 194.167 OFFCURVE",
"915 156 OFFCURVE",
"789 156 CURVE SMOOTH",
"697.667 156 OFFCURVE",
"615.667 178.667 OFFCURVE",
"543 224 CURVE SMOOTH",
"470.333 269.333 OFFCURVE",
"412.833 335.667 OFFCURVE",
"370.5 423 CURVE SMOOTH",
"328.167 510.333 OFFCURVE",
"307 617.333 OFFCURVE",
"307 744 CURVE SMOOTH",
"307 872 OFFCURVE",
"328 979.833 OFFCURVE",
"370 1067.5 CURVE SMOOTH",
"412 1155.167 OFFCURVE",
"468.667 1221.5 OFFCURVE",
"540 1266.5 CURVE SMOOTH",
"611.333 1311.5 OFFCURVE",
"690.667 1334 OFFCURVE",
"778 1334 CURVE SMOOTH",
"883.333 1334 OFFCURVE",
"971.167 1306 OFFCURVE",
"1041.5 1250 CURVE SMOOTH",
"1091 1210 OFFCURVE",
"1131 1161 OFFCURVE",
"1161 1102 CURVE SMOOTH",
"1187 1049 OFFCURVE",
"1220 1023 OFFCURVE",
"1278 1023 CURVE SMOOTH",
"1291 1023 LINE SMOOTH",
"1354 1023 OFFCURVE",
"1389 1059 OFFCURVE",
"1389 1124 CURVE SMOOTH",
"1389 1429 LINE SMOOTH",
"1389 1496.333 OFFCURVE",
"1443 1530 OFFCURVE",
"1551 1530 CURVE SMOOTH",
"1559.667 1530 OFFCURVE",
"1569 1529.667 OFFCURVE",
"1579 1529 CURVE SMOOTH",
"1599 1527 OFFCURVE",
"1610 1553 OFFCURVE",
"1610 1601 CURVE SMOOTH",
"1610 1650 OFFCURVE",
"1578 1683 OFFCURVE",
"1515 1684 CURVE SMOOTH",
"1512 1684 OFFCURVE",
"1508 1684 OFFCURVE",
"1505 1684 CURVE SMOOTH",
"1410.333 1684 OFFCURVE",
"1338.333 1662.167 OFFCURVE",
"1289 1618.5 CURVE SMOOTH",
"1239.667 1574.833 OFFCURVE",
"1215 1511.667 OFFCURVE",
"1215 1429 CURVE SMOOTH",
"1215 1345 LINE",
"1159.667 1397 OFFCURVE",
"1094.667 1437.5 OFFCURVE",
"1020 1466.5 CURVE SMOOTH",
"945.333 1495.5 OFFCURVE",
"864.333 1510 OFFCURVE",
"777 1510 CURVE SMOOTH",
"649.667 1510 OFFCURVE",
"536.667 1479 OFFCURVE",
"438 1417 CURVE SMOOTH",
"339.333 1355 OFFCURVE",
"262 1266.833 OFFCURVE",
"206 1152.5 CURVE SMOOTH",
"150 1038.167 OFFCURVE",
"122 902 OFFCURVE",
"122 744 CURVE SMOOTH",
"122 587.333 OFFCURVE",
"150 451.833 OFFCURVE",
"206 337.5 CURVE SMOOTH",
"262 223.167 OFFCURVE",
"338.833 135 OFFCURVE",
"436.5 73 CURVE SMOOTH",
"534.167 11 OFFCURVE",
"646 -20 OFFCURVE",
"772 -20 CURVE SMOOTH"
);
}
);
userData = {
assembly = "NPUSHB[ ]	/* 18 values pushed */\01217 1 3 2 18 1 1 3 11 1 5 1 45 1 6 7 4 76 \012MPPEM[ ]	/* MeasurePixelPerEm */\012PUSHB[ ]	/* 1 value pushed */\01225 \012LT[ ]	/* LessThan */\012IF[ ]	/* If */\012NPUSHB[ ]	/* 47 values pushed */\0120 4 5 8 5 4 8 128 0 2 0 3 1 2 3 105 0 8 0 7 6 8 7 103 0 5 5 1 97 0 1 1 109 77 0 6 6 0 97 9 10 2 0 0 110 0 78 \012ELSE[ ]	/* Else */\012NPUSHB[ ]	/* 51 values pushed */\0120 4 5 8 5 4 8 128 0 2 0 3 1 2 3 105 0 8 0 7 6 8 7 103 0 5 5 1 97 0 1 1 109 77 0 9 9 104 77 0 6 6 0 97 10 1 0 0 110 0 78 \012EIF[ ]	/* EndIf */\012NPUSHB[ ]	/* 27 values pushed */\0121 0 44 43 42 41 40 39 37 35 29 27 25 24 22 20 16 14 9 7 0 48 1 48 11 12 22 \012CALL[ ]	/* CallFunction */";
};
width = 1550;
}
);
note = uni0193.1;
},
{
glyphname = I.1;
lastChange = "2024-07-06 19:21:01 +0000";
layers = (
{
layerId = "67E838D8-D572-4887-B173-0E3F5AAC2F16";
paths = (
{
closed = 1;
nodes = (
"92 29 OFFCURVE",
"128 0 OFFCURVE",
"193 0 CURVE SMOOTH",
"710 0 LINE SMOOTH",
"775 0 OFFCURVE",
"811 30 OFFCURVE",
"811 84 CURVE SMOOTH",
"811 138 OFFCURVE",
"775 168 OFFCURVE",
"710 168 CURVE SMOOTH",
"547 168 LINE",
"547 1322 LINE",
"710 1322 LINE SMOOTH",
"775 1322 OFFCURVE",
"811 1352 OFFCURVE",
"811 1406 CURVE SMOOTH",
"811 1460 OFFCURVE",
"775 1490 OFFCURVE",
"710 1490 CURVE SMOOTH",
"193 1490 LINE SMOOTH",
"128 1490 OFFCURVE",
"92 1460 OFFCURVE",
"92 1406 CURVE SMOOTH",
"92 1352 OFFCURVE",
"128 1322 OFFCURVE",
"193 1322 CURVE SMOOTH",
"357 1322 LINE",
"357 168 LINE",
"193 168 LINE SMOOTH",
"128 168 OFFCURVE",
"92 138 OFFCURVE",
"92 84 CURVE SMOOTH"
);
}
);
userData = {
assembly = "NPUSHB[ ]	/* 38 values pushed */\0123 1 1 1 2 95 0 2 2 103 77 4 1 0 0 5 95 6 1 5 5 104 5 78 0 0 0 11 0 11 17 17 17 17 17 7 12 27 \012CALL[ ]	/* CallFunction */";
};
width = 903;
}
);
leftKerningGroup = B;
note = I.1;
rightKerningGroup = Ereversed;
},
{
glyphname = Thook.base;
lastChange = "2024-07-06 19:21:01 +0000";
layers = (
{
layerId = "67E838D8-D572-4887-B173-0E3F5AAC2F16";
paths = (
{
closed = 1;
nodes = (
"456 1352 OFFCURVE",
"492 1323 OFFCURVE",
"557 1323 CURVE SMOOTH",
"564 1323 LINE",
"564 101 LINE SMOOTH",
"564 36 OFFCURVE",
"598 0 OFFCURVE",
"659 0 CURVE SMOOTH",
"720 0 OFFCURVE",
"754 36 OFFCURVE",
"754 101 CURVE SMOOTH",
"754 1323 LINE",
"1120 1323 LINE SMOOTH",
"1185 1323 OFFCURVE",
"1221 1353 OFFCURVE",
"1221 1407 CURVE SMOOTH",
"1221 1461 OFFCURVE",
"1185 1490 OFFCURVE",
"1120 1490 CURVE SMOOTH",
"557 1490 LINE SMOOTH",
"492 1490 OFFCURVE",
"456 1461 OFFCURVE",
"456 1407 CURVE SMOOTH"
);
}
);
userData = {
assembly = "NPUSHB[ ]	/* 35 values pushed */\0120 2 1 2 134 0 0 1 1 0 87 0 0 0 1 95 4 3 2 1 0 1 79 0 0 0 7 0 7 17 17 17 5 6 25 \012CALL[ ]	/* CallFunction */";
};
width = 1319;
}
);
note = uni01AC.base;
rightKerningGroup = "Enghe-cy";
},
{
glyphname = a;
lastChange = "2024-07-06 19:21:01 +0000";
layers = (
{
layerId = "67E838D8-D572-4887-B173-0E3F5AAC2F16";
paths = (
{
closed = 1;
nodes = (
"534.333 -26 OFFCURVE",
"588.333 -16.667 OFFCURVE",
"633 2 CURVE SMOOTH",
"677.667 20.667 OFFCURVE",
"714 43.833 OFFCURVE",
"742 71.5 CURVE SMOOTH",
"770 99.167 OFFCURVE",
"790.333 126 OFFCURVE",
"803 152 CURVE",
"815 152 LINE",
"815 76 LINE SMOOTH",
"815 27 OFFCURVE",
"847 0 OFFCURVE",
"904 0 CURVE SMOOTH",
"961 0 OFFCURVE",
"992 36 OFFCURVE",
"992 101 CURVE SMOOTH",
"992 737 LINE SMOOTH",
"992 824.333 OFFCURVE",
"977.5 894.167 OFFCURVE",
"948.5 946.5 CURVE SMOOTH",
"919.5 998.833 OFFCURVE",
"882.833 1038.333 OFFCURVE",
"838.5 1065 CURVE SMOOTH",
"794.167 1091.667 OFFCURVE",
"748.167 1109.5 OFFCURVE",
"700.5 1118.5 CURVE SMOOTH",
"652.833 1127.5 OFFCURVE",
"610.333 1132 OFFCURVE",
"573 1132 CURVE SMOOTH",
"515.667 1132 OFFCURVE",
"457.667 1124 OFFCURVE",
"399 1108 CURVE SMOOTH",
"340.333 1092 OFFCURVE",
"286.667 1064.833 OFFCURVE",
"238 1026.5 CURVE SMOOTH",
"213 1007 OFFCURVE",
"190 983 OFFCURVE",
"170 954 CURVE SMOOTH",
"134 902 OFFCURVE",
"156 856 OFFCURVE",
"211 838 CURVE SMOOTH",
"267 819 OFFCURVE",
"304 838 OFFCURVE",
"345 882 CURVE SMOOTH",
"358 895 OFFCURVE",
"372 909 OFFCURVE",
"389 921.5 CURVE SMOOTH",
"434.333 956.5 OFFCURVE",
"497.333 974 OFFCURVE",
"578 974 CURVE SMOOTH",
"655.333 974 OFFCURVE",
"713.667 954.833 OFFCURVE",
"753 916.5 CURVE SMOOTH",
"792.333 878.167 OFFCURVE",
"812 824.333 OFFCURVE",
"812 755 CURVE SMOOTH",
"812 749 LINE SMOOTH",
"812 721.667 OFFCURVE",
"801.833 702.333 OFFCURVE",
"781.5 691 CURVE SMOOTH",
"761.167 679.667 OFFCURVE",
"730 671.667 OFFCURVE",
"688 667 CURVE SMOOTH",
"646 662.333 OFFCURVE",
"591.667 655.667 OFFCURVE",
"525 647 CURVE SMOOTH",
"473 640.333 OFFCURVE",
"421.333 631.333 OFFCURVE",
"370 620 CURVE SMOOTH",
"318.667 608.667 OFFCURVE",
"271.833 591.5 OFFCURVE",
"229.5 568.5 CURVE SMOOTH",
"187.167 545.5 OFFCURVE",
"153.333 514 OFFCURVE",
"128 474 CURVE SMOOTH",
"102.667 434 OFFCURVE",
"90 382 OFFCURVE",
"90 318 CURVE SMOOTH",
"90 244.667 OFFCURVE",
"107 182.333 OFFCURVE",
"141 131 CURVE SMOOTH",
"175 79.667 OFFCURVE",
"220.833 40.667 OFFCURVE",
"278.5 14 CURVE SMOOTH",
"336.167 -12.667 OFFCURVE",
"400.333 -26 OFFCURVE",
"471 -26 CURVE SMOOTH"
);
},
{
closed = 1;
nodes = (
"435.333 133 OFFCURVE",
"380.167 147.833 OFFCURVE",
"336.5 177.5 CURVE SMOOTH",
"292.833 207.167 OFFCURVE",
"271 251 OFFCURVE",
"271 309 CURVE SMOOTH",
"271 351.667 OFFCURVE",
"282.333 385.5 OFFCURVE",
"305 410.5 CURVE SMOOTH",
"327.667 435.5 OFFCURVE",
"357.833 454.5 OFFCURVE",
"395.5 467.5 CURVE SMOOTH",
"433.167 480.5 OFFCURVE",
"473.667 489.667 OFFCURVE",
"517 495 CURVE SMOOTH",
"587.5 503.5 LINE SMOOTH",
"617.167 507.167 OFFCURVE",
"647.833 511.667 OFFCURVE",
"679.5 517 CURVE SMOOTH",
"711.167 522.333 OFFCURVE",
"739.333 528.5 OFFCURVE",
"764 535.5 CURVE SMOOTH",
"788.667 542.5 OFFCURVE",
"804.667 550.333 OFFCURVE",
"812 559 CURVE",
"812 404 LINE SMOOTH",
"812 358.667 OFFCURVE",
"800 315.167 OFFCURVE",
"776 273.5 CURVE SMOOTH",
"752 231.833 OFFCURVE",
"717 198 OFFCURVE",
"671 172 CURVE SMOOTH",
"625 146 OFFCURVE",
"568.667 133 OFFCURVE",
"502 133 CURVE SMOOTH"
);
}
);
userData = {
assembly = "NPUSHB[ ]	/* 9 values pushed */\01243 33 21 20 4 4 1 1 76 \012MPPEM[ ]	/* MeasurePixelPerEm */\012PUSHB[ ]	/* 1 value pushed */\01219 \012LT[ ]	/* LessThan */\012IF[ ]	/* If */\012NPUSHB[ ]	/* 24 values pushed */\0120 1 1 2 97 0 2 2 112 77 6 1 4 4 0 97 3 5 2 0 0 113 0 78 \012ELSE[ ]	/* Else */\012NPUSHB[ ]	/* 28 values pushed */\0120 1 1 2 97 0 2 2 112 77 0 3 3 104 77 6 1 4 4 0 97 5 1 0 0 113 0 78 \012EIF[ ]	/* EndIf */\012NPUSHB[ ]	/* 21 values pushed */\01239 38 1 0 38 54 39 54 32 31 26 24 18 16 0 37 1 37 7 12 22 \012CALL[ ]	/* CallFunction */";
};
width = 1150;
}
);
leftKerningGroup = a;
note = a;
rightKerningGroup = a;
unicode = 0061;
},
{
glyphname = "alphaturned-latin";
lastChange = "2024-07-06 19:21:01 +0000";
layers = (
{
layerId = "67E838D8-D572-4887-B173-0E3F5AAC2F16";
paths = (
{
closed = 1;
nodes = (
"770 -24 OFFCURVE",
"851.5 -0.333 OFFCURVE",
"922.5 47 CURVE SMOOTH",
"993.5 94.333 OFFCURVE",
"1049.167 161.333 OFFCURVE",
"1089.5 248 CURVE SMOOTH",
"1129.833 334.667 OFFCURVE",
"1150 437.333 OFFCURVE",
"1150 556 CURVE SMOOTH",
"1150 674 OFFCURVE",
"1129.667 776.167 OFFCURVE",
"1089 862.5 CURVE SMOOTH",
"1048.333 948.833 OFFCURVE",
"992.333 1015.333 OFFCURVE",
"921 1062 CURVE SMOOTH",
"849.667 1108.667 OFFCURVE",
"767.333 1132 OFFCURVE",
"674 1132 CURVE SMOOTH",
"602 1132 OFFCURVE",
"544.667 1120.167 OFFCURVE",
"502 1096.5 CURVE SMOOTH",
"459.333 1072.833 OFFCURVE",
"426.833 1045.667 OFFCURVE",
"404.5 1015 CURVE SMOOTH",
"382.167 984.333 OFFCURVE",
"364.667 959 OFFCURVE",
"352 939 CURVE",
"337 939 LINE",
"337 1029 LINE SMOOTH",
"337 1087 OFFCURVE",
"305 1118 OFFCURVE",
"248 1118 CURVE SMOOTH",
"190 1118 OFFCURVE",
"158 1082 OFFCURVE",
"158 1017 CURVE SMOOTH",
"158 101 LINE SMOOTH",
"158 36 OFFCURVE",
"190 0 OFFCURVE",
"247 0 CURVE SMOOTH",
"304 0 OFFCURVE",
"336 36 OFFCURVE",
"336 101 CURVE SMOOTH",
"336 173 LINE",
"352 173 LINE",
"364.667 152.333 OFFCURVE",
"382.667 126.333 OFFCURVE",
"406 95 CURVE SMOOTH",
"429.333 63.667 OFFCURVE",
"462.667 36 OFFCURVE",
"506 12 CURVE SMOOTH",
"549.333 -12 OFFCURVE",
"606.667 -24 OFFCURVE",
"678 -24 CURVE SMOOTH"
);
},
{
closed = 1;
nodes = (
"546.667 137 OFFCURVE",
"469 176 OFFCURVE",
"415 254 CURVE SMOOTH",
"361 332 OFFCURVE",
"334 433.333 OFFCURVE",
"334 558 CURVE SMOOTH",
"334 681.333 OFFCURVE",
"360.667 781 OFFCURVE",
"414 857 CURVE SMOOTH",
"467.333 933 OFFCURVE",
"545.333 971 OFFCURVE",
"648 971 CURVE SMOOTH",
"719.333 971 OFFCURVE",
"778.5 952.833 OFFCURVE",
"825.5 916.5 CURVE SMOOTH",
"872.5 880.167 OFFCURVE",
"907.833 830.833 OFFCURVE",
"931.5 768.5 CURVE SMOOTH",
"955.167 706.167 OFFCURVE",
"967 636 OFFCURVE",
"967 558 CURVE SMOOTH",
"967 480 OFFCURVE",
"955 409.167 OFFCURVE",
"931 345.5 CURVE SMOOTH",
"907 281.833 OFFCURVE",
"871.333 231.167 OFFCURVE",
"824 193.5 CURVE SMOOTH",
"776.667 155.833 OFFCURVE",
"718 137 OFFCURVE",
"648 137 CURVE SMOOTH"
);
}
);
userData = {
assembly = "PUSHB[ ]	/* 7 values pushed */\01210 4 2 4 5 1 76 \012MPPEM[ ]	/* MeasurePixelPerEm */\012PUSHB[ ]	/* 1 value pushed */\01221 \012LT[ ]	/* LessThan */\012IF[ ]	/* If */\012NPUSHB[ ]	/* 25 values pushed */\0120 5 5 2 97 3 1 2 2 106 77 7 1 4 4 0 97 1 6 2 0 0 113 0 78 \012ELSE[ ]	/* Else */\012MPPEM[ ]	/* MeasurePixelPerEm */\012PUSHB[ ]	/* 1 value pushed */\01236 \012LT[ ]	/* LessThan */\012IF[ ]	/* If */\012NPUSHB[ ]	/* 29 values pushed */\0120 5 5 2 97 3 1 2 2 106 77 0 1 1 104 77 7 1 4 4 0 97 6 1 0 0 113 0 78 \012ELSE[ ]	/* Else */\012NPUSHB[ ]	/* 33 values pushed */\0120 2 2 106 77 0 5 5 3 97 0 3 3 112 77 0 1 1 104 77 7 1 4 4 0 97 6 1 0 0 113 0 78 \012EIF[ ]	/* EndIf */\012EIF[ ]	/* EndIf */\012NPUSHB[ ]	/* 23 values pushed */\01224 23 1 0 32 30 23 36 24 36 16 14 9 8 7 6 0 22 1 22 8 12 22 \012CALL[ ]	/* CallFunction */";
};
width = 1254;
}
);
note = ascriptturn;
unicode = 0252;
},
{
glyphname = aturned;
lastChange = "2024-07-06 19:21:01 +0000";
layers = (
{
layerId = "67E838D8-D572-4887-B173-0E3F5AAC2F16";
paths = (
{
closed = 1;
nodes = (
"616.333 1144 OFFCURVE",
"562.5 1134.667 OFFCURVE",
"517.5 1116 CURVE SMOOTH",
"472.5 1097.333 OFFCURVE",
"436 1074.333 OFFCURVE",
"408 1047 CURVE SMOOTH",
"380 1019.667 OFFCURVE",
"359.667 992.667 OFFCURVE",
"347 966 CURVE",
"335 966 LINE",
"335 1042 LINE SMOOTH",
"335 1091 OFFCURVE",
"304 1118 OFFCURVE",
"247 1118 CURVE SMOOTH",
"190 1118 OFFCURVE",
"158 1082 OFFCURVE",
"158 1017 CURVE SMOOTH",
"158 381 LINE SMOOTH",
"158 293.667 OFFCURVE",
"172.5 223.833 OFFCURVE",
"201.5 171.5 CURVE SMOOTH",
"230.5 119.167 OFFCURVE",
"267.167 79.667 OFFCURVE",
"311.5 53 CURVE SMOOTH",
"355.833 26.333 OFFCURVE",
"401.833 8.5 OFFCURVE",
"449.5 -0.5 CURVE SMOOTH",
"497.167 -9.5 OFFCURVE",
"539.667 -14 OFFCURVE",
"577 -14 CURVE SMOOTH",
"635 -14 OFFCURVE",
"693.167 -6 OFFCURVE",
"751.5 10 CURVE SMOOTH",
"809.833 26 OFFCURVE",
"863.333 53.333 OFFCURVE",
"912 92 CURVE SMOOTH",
"937 112 OFFCURVE",
"960 136 OFFCURVE",
"980 164 CURVE SMOOTH",
"1016 216 OFFCURVE",
"994 262 OFFCURVE",
"939 280 CURVE SMOOTH",
"883 299 OFFCURVE",
"846 280 OFFCURVE",
"805 236 CURVE SMOOTH",
"792 223 OFFCURVE",
"778 210 OFFCURVE",
"761 197 CURVE SMOOTH",
"715.667 161.667 OFFCURVE",
"652.667 144 OFFCURVE",
"572 144 CURVE SMOOTH",
"494.667 144 OFFCURVE",
"436.333 163.167 OFFCURVE",
"397 201.5 CURVE SMOOTH",
"357.667 239.833 OFFCURVE",
"338 293.667 OFFCURVE",
"338 363 CURVE SMOOTH",
"338 369 LINE SMOOTH",
"338 397 OFFCURVE",
"348.167 416.5 OFFCURVE",
"368.5 427.5 CURVE SMOOTH",
"388.833 438.5 OFFCURVE",
"420.167 446.5 OFFCURVE",
"462.5 451.5 CURVE SMOOTH",
"625 471 LINE SMOOTH",
"677 477.667 OFFCURVE",
"728.667 486.667 OFFCURVE",
"780 498 CURVE SMOOTH",
"831.333 509.333 OFFCURVE",
"878.167 526.5 OFFCURVE",
"920.5 549.5 CURVE SMOOTH",
"962.833 572.5 OFFCURVE",
"996.667 604 OFFCURVE",
"1022 644 CURVE SMOOTH",
"1047.333 684 OFFCURVE",
"1060 736 OFFCURVE",
"1060 800 CURVE SMOOTH",
"1060 873.333 OFFCURVE",
"1043 935.667 OFFCURVE",
"1009 987 CURVE SMOOTH",
"975 1038.333 OFFCURVE",
"929.167 1077.333 OFFCURVE",
"871.5 1104 CURVE SMOOTH",
"813.833 1130.667 OFFCURVE",
"749.667 1144 OFFCURVE",
"679 1144 CURVE SMOOTH"
);
},
{
closed = 1;
nodes = (
"715.333 985 OFFCURVE",
"770.667 970.167 OFFCURVE",
"814 940.5 CURVE SMOOTH",
"857.333 910.833 OFFCURVE",
"879 867 OFFCURVE",
"879 809 CURVE SMOOTH",
"879 767 OFFCURVE",
"867.667 733.333 OFFCURVE",
"845 708 CURVE SMOOTH",
"822.333 682.667 OFFCURVE",
"792.333 663.667 OFFCURVE",
"755 651 CURVE SMOOTH",
"717.667 638.333 OFFCURVE",
"677 629 OFFCURVE",
"633 623 CURVE SMOOTH",
"562.5 614.5 LINE SMOOTH",
"532.833 610.833 OFFCURVE",
"502.167 606.333 OFFCURVE",
"470.5 601 CURVE SMOOTH",
"438.833 595.667 OFFCURVE",
"410.667 589.5 OFFCURVE",
"386 582.5 CURVE SMOOTH",
"361.333 575.5 OFFCURVE",
"345.333 567.667 OFFCURVE",
"338 559 CURVE",
"338 714 LINE SMOOTH",
"338 760 OFFCURVE",
"350 803.667 OFFCURVE",
"374 845 CURVE SMOOTH",
"398 886.333 OFFCURVE",
"433.167 920 OFFCURVE",
"479.5 946 CURVE SMOOTH",
"525.833 972 OFFCURVE",
"582 985 OFFCURVE",
"648 985 CURVE SMOOTH"
);
}
);
userData = {
assembly = "NPUSHB[ ]	/* 9 values pushed */\01243 33 21 20 4 1 4 1 76 \012MPPEM[ ]	/* MeasurePixelPerEm */\012PUSHB[ ]	/* 1 value pushed */\01219 \012LT[ ]	/* LessThan */\012IF[ ]	/* If */\012NPUSHB[ ]	/* 24 values pushed */\0126 1 4 4 0 97 3 5 2 0 0 112 77 0 1 1 2 97 0 2 2 110 2 78 \012ELSE[ ]	/* Else */\012NPUSHB[ ]	/* 28 values pushed */\0120 3 3 106 77 6 1 4 4 0 97 5 1 0 0 112 77 0 1 1 2 97 0 2 2 110 2 78 \012EIF[ ]	/* EndIf */\012NPUSHB[ ]	/* 21 values pushed */\01239 38 1 0 38 54 39 54 32 31 26 24 18 16 0 37 1 37 7 12 22 \012CALL[ ]	/* CallFunction */";
};
width = 1150;
}
);
leftKerningGroup = aturned;
note = aturn;
rightKerningGroup = aturned;
unicode = 0250;
},
{
glyphname = ae;
lastChange = "2024-07-06 19:21:01 +0000";
layers = (
{
layerId = "67E838D8-D572-4887-B173-0E3F5AAC2F16";
paths = (
{
closed = 1;
nodes = (
"534.667 -26 OFFCURVE",
"594.833 -16.333 OFFCURVE",
"652.5 3 CURVE SMOOTH",
"710.167 22.333 OFFCURVE",
"760.333 48.333 OFFCURVE",
"803 81 CURVE SMOOTH",
"845.667 113.667 OFFCURVE",
"875.667 150 OFFCURVE",
"893 190 CURVE",
"929.667 124.667 OFFCURVE",
"984.167 72.667 OFFCURVE",
"1056.5 34 CURVE SMOOTH",
"1128.833 -4.667 OFFCURVE",
"1213.667 -24 OFFCURVE",
"1311 -24 CURVE SMOOTH",
"1427 -24 OFFCURVE",
"1524.5 2.667 OFFCURVE",
"1603.5 56 CURVE SMOOTH",
"1649 86 OFFCURVE",
"1685 122 OFFCURVE",
"1713 163 CURVE SMOOTH",
"1753 222 OFFCURVE",
"1728 271 OFFCURVE",
"1672 286 CURVE SMOOTH",
"1614 301 OFFCURVE",
"1580 279 OFFCURVE",
"1542 231 CURVE SMOOTH",
"1525 211 OFFCURVE",
"1505 193 OFFCURVE",
"1482.5 179.5 CURVE SMOOTH",
"1434.833 150.5 OFFCURVE",
"1377.667 136 OFFCURVE",
"1311 136 CURVE SMOOTH",
"1213 136 OFFCURVE",
"1132.833 167.167 OFFCURVE",
"1070.5 229.5 CURVE SMOOTH",
"1008.167 291.833 OFFCURVE",
"974.667 381.333 OFFCURVE",
"970 498 CURVE",
"1678 498 LINE SMOOTH",
"1743 498 OFFCURVE",
"1779 525 OFFCURVE",
"1779 573 CURVE SMOOTH",
"1779 676.333 OFFCURVE",
"1765.167 763.667 OFFCURVE",
"1737.5 835 CURVE SMOOTH",
"1709.833 906.333 OFFCURVE",
"1672.667 963.833 OFFCURVE",
"1626 1007.5 CURVE SMOOTH",
"1579.333 1051.167 OFFCURVE",
"1527.333 1082.833 OFFCURVE",
"1470 1102.5 CURVE SMOOTH",
"1412.667 1122.167 OFFCURVE",
"1354.333 1132 OFFCURVE",
"1295 1132 CURVE SMOOTH",
"1212.333 1132 OFFCURVE",
"1140.5 1115.667 OFFCURVE",
"1079.5 1083 CURVE SMOOTH",
"1018.5 1050.333 OFFCURVE",
"968 1005 OFFCURVE",
"928 947 CURVE",
"901.333 999.667 OFFCURVE",
"867.5 1039.167 OFFCURVE",
"826.5 1065.5 CURVE SMOOTH",
"785.5 1091.833 OFFCURVE",
"742.5 1109.5 OFFCURVE",
"697.5 1118.5 CURVE SMOOTH",
"652.5 1127.5 OFFCURVE",
"611 1132 OFFCURVE",
"573 1132 CURVE SMOOTH",
"515.667 1132 OFFCURVE",
"457.667 1124 OFFCURVE",
"399 1108 CURVE SMOOTH",
"340.333 1092 OFFCURVE",
"286.667 1064.833 OFFCURVE",
"238 1026.5 CURVE SMOOTH",
"213 1007 OFFCURVE",
"190 983 OFFCURVE",
"170 954 CURVE SMOOTH",
"134 902 OFFCURVE",
"156 856 OFFCURVE",
"211 838 CURVE SMOOTH",
"267 819 OFFCURVE",
"303 838 OFFCURVE",
"345 882 CURVE SMOOTH",
"358 895 OFFCURVE",
"373 909 OFFCURVE",
"389.5 921.5 CURVE SMOOTH",
"435.167 956.5 OFFCURVE",
"498 974 OFFCURVE",
"578 974 CURVE SMOOTH",
"655.333 974 OFFCURVE",
"713.333 954.833 OFFCURVE",
"752 916.5 CURVE SMOOTH",
"790.667 878.167 OFFCURVE",
"810 824.333 OFFCURVE",
"810 755 CURVE SMOOTH",
"810 650 LINE",
"566 650 LINE SMOOTH",
"511.333 650 OFFCURVE",
"456 644.5 OFFCURVE",
"400 633.5 CURVE SMOOTH",
"344 622.5 OFFCURVE",
"292.667 604.5 OFFCURVE",
"246 579.5 CURVE SMOOTH",
"199.333 554.5 OFFCURVE",
"161.667 520.667 OFFCURVE",
"133 478 CURVE SMOOTH",
"104.333 435.333 OFFCURVE",
"90 382 OFFCURVE",
"90 318 CURVE SMOOTH",
"90 244.667 OFFCURVE",
"107 182.333 OFFCURVE",
"141 131 CURVE SMOOTH",
"175 79.667 OFFCURVE",
"221 40.667 OFFCURVE",
"279 14 CURVE SMOOTH",
"337 -12.667 OFFCURVE",
"401.333 -26 OFFCURVE",
"472 -26 CURVE SMOOTH"
);
},
{
closed = 1;
nodes = (
"810 498 LINE",
"810 404 LINE SMOOTH",
"810 358.667 OFFCURVE",
"798.167 315.167 OFFCURVE",
"774.5 273.5 CURVE SMOOTH",
"750.833 231.833 OFFCURVE",
"716.167 198 OFFCURVE",
"670.5 172 CURVE SMOOTH",
"624.833 146 OFFCURVE",
"568.667 133 OFFCURVE",
"502 133 CURVE SMOOTH",
"435.333 133 OFFCURVE",
"380.167 147.833 OFFCURVE",
"336.5 177.5 CURVE SMOOTH",
"292.833 207.167 OFFCURVE",
"271 251 OFFCURVE",
"271 309 CURVE SMOOTH",
"271 351.667 OFFCURVE",
"284.833 387 OFFCURVE",
"312.5 415 CURVE SMOOTH",
"340.167 443 OFFCURVE",
"376.5 463.833 OFFCURVE",
"421.5 477.5 CURVE SMOOTH",
"466.5 491.167 OFFCURVE",
"515.333 498 OFFCURVE",
"568 498 CURVE SMOOTH"
);
},
{
closed = 1;
nodes = (
"975 706.667 OFFCURVE",
"990.333 759.5 OFFCURVE",
"1017 808.5 CURVE SMOOTH",
"1043.667 857.5 OFFCURVE",
"1080.667 897 OFFCURVE",
"1128 927 CURVE SMOOTH",
"1175.333 957 OFFCURVE",
"1231 972 OFFCURVE",
"1295 972 CURVE SMOOTH",
"1385.667 972 OFFCURVE",
"1458 941.667 OFFCURVE",
"1512 881 CURVE SMOOTH",
"1566 820.333 OFFCURVE",
"1593.333 743.333 OFFCURVE",
"1594 650 CURVE",
"971 650 LINE"
);
}
);
userData = {
assembly = "NPUSHB[ ]	/* 81 values pushed */\01226 18 17 3 1 2 49 43 42 3 6 5 2 76 10 1 1 8 1 5 6 1 5 103 11 1 2 2 3 97 4 1 3 3 112 77 9 1 6 6 0 97 7 12 2 0 0 113 0 78 1 0 71 69 67 66 62 60 55 53 47 45 40 38 36 35 30 28 23 21 15 13 10 8 0 52 1 52 13 12 22 \012CALL[ ]	/* CallFunction */";
};
width = 1879;
}
);
leftKerningGroup = a;
note = ae;
rightKerningGroup = aturned;
unicode = 00E6;
},
